<svg xmlns="http://www.w3.org/2000/svg" version="1.1" xmlns:xlink="http://www.w3.org/1999/xlink" xmlns:svgjs="http://svgjs.com/svgjs" width="512" height="512" x="0" y="0" viewBox="0 0 128 128" style="enable-background:new 0 0 512 512" xml:space="preserve" class=""><g><g><path d="m58.87 57.969h10.26a22.394 22.394 0 0 1 14.182 5.062v-25.6h-38.625v25.6a22.4 22.4 0 0 1 14.183-5.062z" fill="#ffe1d0" data-original="#ffe1d0"></path><g fill="#613d5c"><path d="m75.071 35.676a4.183 4.183 0 1 0 4.182 4.182 4.187 4.187 0 0 0 -4.182-4.182z" fill="#613d5c" data-original="#613d5c" class=""></path><path d="m52.929 35.676a4.183 4.183 0 1 0 4.182 4.182 4.187 4.187 0 0 0 -4.182-4.182z" fill="#613d5c" data-original="#613d5c" class=""></path></g><path d="m96.059 29.927h-64.118a3.75 3.75 0 0 0 -3.75 3.75 3.75 3.75 0 0 0 3.75 3.75h64.118a3.75 3.75 0 0 0 3.75-3.75 3.75 3.75 0 0 0 -3.75-3.75z" fill="#613d5c" data-original="#613d5c" class=""></path><path d="m90.311 29.927h-52.622v-13.18a15 15 0 0 1 15-15h22.622a15 15 0 0 1 15 15z" fill="#ffc42b" data-original="#ffc42b"></path><path d="m37.689 16.747a15 15 0 0 1 .419-3.466c-1.158.1-2.333.165-3.525.165-11.09 0-20.822-4.679-26.362-11.724 1.059 12.694 13.711 22.815 29.468 23.49z" fill="#613d5c" data-original="#613d5c" class=""></path><path d="m90.311 16.747a15 15 0 0 0 -.419-3.466c1.158.1 2.333.165 3.525.165 11.09 0 20.822-4.679 26.362-11.724-1.059 12.694-13.711 22.815-29.468 23.49z" fill="#613d5c" data-original="#613d5c" class=""></path><path d="m67.75 49.327-3.75 3.002-3.75-3.002v-11.901h7.5z" fill="#ff7c2e" data-original="#ff7c2e"></path><path d="m60.25 1.747h7.5v28.18h-7.5z" fill="#ff7c2e" data-original="#ff7c2e"></path><path d="m83.312 37.427v25.6a22.394 22.394 0 0 0 -14.182-5.058h-10.26a22.4 22.4 0 0 0 -14.183 5.062v-25.6h-5.871v31.011a23.114 23.114 0 0 0 6.9 16.475l2.066 2.035a23.119 23.119 0 0 0 16.218 6.642 23.121 23.121 0 0 0 16.217-6.642l2.066-2.035a23.114 23.114 0 0 0 6.9-16.475v-31.015z" fill="#613d5c" data-original="#613d5c" class=""></path><path d="m38.816 40.08c0-.024 0-.048 0-.073v-1.314a6.85 6.85 0 1 0 -.932 13.636 6.687 6.687 0 0 0 .934-.072z" fill="#ffc1b6" data-original="#ffc1b6"></path><path d="m89.866 38.622a6.13 6.13 0 0 0 -.682.052v13.618a6.665 6.665 0 0 0 .682.037 6.854 6.854 0 1 0 0-13.707z" fill="#ffc1b6" data-original="#ffc1b6"></path><path d="m112.714 94.268a22.557 22.557 0 0 0 -9.461-5.3 55.42 55.42 0 0 0 -9.828-1.312c-2.546-.229-5.026-.348-7.583-.676a13.9 13.9 0 0 1 -4.342-1.289l-1.281 1.261a23.121 23.121 0 0 1 -16.219 6.642 23.119 23.119 0 0 1 -16.217-6.642l-1.27-1.252a7.915 7.915 0 0 1 -4.6 1.3q-3.153.314-6.326.5a54.527 54.527 0 0 0 -10.843 1.472 22.545 22.545 0 0 0 -9.461 5.3l7.717 11.882v20.093h82v-20.093z" fill="#ffe7c7" data-original="#ffe7c7"></path><g fill="#ffd4a1"><path d="m15.286 94.268a22.5 22.5 0 0 0 -7.145 16.462v15.517h14.859v-20.093z" fill="#ffd4a1" data-original="#ffd4a1"></path><path d="m112.714 94.268-7.714 11.886v20.093h14.859v-15.517a22.5 22.5 0 0 0 -7.145-16.462z" fill="#ffd4a1" data-original="#ffd4a1"></path><path d="m65.75 126.247v-7.18l4.616 2.247a1.75 1.75 0 1 0 1.531-3.147l-3.9-1.9 3.9-1.9a1.75 1.75 0 1 0 -1.531-3.147l-4.616 2.246v-7.2l4.616 2.247a1.75 1.75 0 1 0 1.531-3.148l-3.9-1.9 3.9-1.9a1.75 1.75 0 1 0 -1.531-3.148l-4.616 2.247v-7.07c0-.029-.007-.057-.009-.086-.578.044-1.157.086-1.741.086s-1.163-.042-1.741-.086c0 .029-.009.057-.009.086v7.078l-4.616-2.247a1.75 1.75 0 1 0 -1.532 3.148l3.9 1.9-3.9 1.9a1.75 1.75 0 0 0 1.532 3.148l4.616-2.247v7.2l-4.616-2.246a1.75 1.75 0 1 0 -1.532 3.147l3.9 1.9-3.9 1.9a1.75 1.75 0 1 0 1.532 3.147l4.616-2.247v7.18z" fill="#ffd4a1" data-original="#ffd4a1"></path></g></g><g><path d="m95.161 86.064-.634-.052a1.75 1.75 0 0 0 -.285 3.489l.638.051c.561.046 1.124.091 1.685.14.053.005.105.007.157.007a1.75 1.75 0 0 0 .152-3.493q-.856-.075-1.713-.142z" fill="#000000" data-original="#000000" class=""></path><path d="m113.91 93.005a24.244 24.244 0 0 0 -7.362-4.738 1.75 1.75 0 1 0 -1.333 3.236 20.7 20.7 0 0 1 5.2 3.1l-6.888 10.614a1.753 1.753 0 0 0 -.282.953v18.343h-37.495v-5.43l4.616 2.247a1.75 1.75 0 1 0 1.531-3.148l-3.9-1.9 3.9-1.9a1.75 1.75 0 1 0 -1.531-3.148l-4.616 2.247v-7.2l4.616 2.246a1.75 1.75 0 1 0 1.531-3.147l-3.9-1.9 3.9-1.9a1.75 1.75 0 1 0 -1.531-3.147l-4.616 2.247v-5.4a24.7 24.7 0 0 0 15.694-7.078l.431-.424a17 17 0 0 0 3.715.943 1.819 1.819 0 0 0 .254.018 1.75 1.75 0 0 0 .249-3.482c-.514-.075-.994-.175-1.455-.286a25.03 25.03 0 0 0 6.3-16.525v-14.426a8.584 8.584 0 0 0 4.773-14.829h.352a5.5 5.5 0 0 0 0-11h-4v-1.325c15.834-1.339 28.368-11.851 29.463-24.983a1.75 1.75 0 0 0 -3.126-1.227c-5.441 6.922-14.781 11.054-24.983 11.054-.7 0-1.432-.03-2.166-.074a16.775 16.775 0 0 0 -15.941-11.624h-22.621a16.774 16.774 0 0 0 -15.936 11.612c-1.212.072-2.405.1-3.561.061a1.73 1.73 0 0 0 -1.814 1.683 1.75 1.75 0 0 0 1.683 1.814q.756.028 1.522.028c.471 0 .954-.016 1.437-.034-.05.523-.081 1.051-.081 1.586v6.581c-11.518-1.066-21.024-7.413-24.559-15.954a34.616 34.616 0 0 0 11.254 6 1.75 1.75 0 1 0 1.066-3.339 29.2 29.2 0 0 1 -14.1-9.395 1.751 1.751 0 0 0 -3.12 1.228c1.092 13.132 13.626 23.644 29.459 24.983v1.325h-4a5.5 5.5 0 0 0 0 11h.1a8.588 8.588 0 0 0 5.025 14.861v14.4a25.033 25.033 0 0 0 6.4 16.644 7.839 7.839 0 0 1 -1.541.163c-.049 0-.121 0-.181.009-2.006.2-4.111.366-6.268.5a56.855 56.855 0 0 0 -11.188 1.532 24.329 24.329 0 0 0 -17.9 23.445v15.517a1.749 1.749 0 0 0 1.75 1.75h111.723a1.749 1.749 0 0 0 1.75-1.75v-15.517a24.391 24.391 0 0 0 -7.699-17.74zm-22.976-42.524v-9.981a5.1 5.1 0 0 1 0 9.982zm2.483-35.271a36.882 36.882 0 0 0 23.191-7.792c-3.544 8.526-13.042 14.861-24.548 15.925v-6.581c0-.535-.031-1.063-.08-1.586.483.018.966.034 1.437.034zm-4.857 1.552v11.429h-19.06v-24.679h5.81a13.264 13.264 0 0 1 13.25 13.25zm-22.56-13.25v24.679h-4v-24.679zm-26.561 13.25a13.265 13.265 0 0 1 13.25-13.25h5.811v24.679h-19.061zm-9.5 16.929a2 2 0 0 1 2-2h64.12a2 2 0 0 1 0 4h-64.119a2 2 0 0 1 -2-2zm51.623 25.991a24.212 24.212 0 0 0 -12.432-3.449h-10.26a24.218 24.218 0 0 0 -12.433 3.449v-20.491h2.378a4.26 4.26 0 0 0 -.068.682 4.183 4.183 0 1 0 8.3-.682h1.453v10.15a1.75 1.75 0 0 0 .656 1.367l3.75 3a1.75 1.75 0 0 0 2.188 0l3.75-3a1.75 1.75 0 0 0 .656-1.367v-10.15h1.458a4.183 4.183 0 1 0 8.226 0h2.378zm-15.562-20.491v9.309l-2 1.6-2-1.6v-9.31zm-33.222 6.3a5.112 5.112 0 0 1 4.288-5.038v10.075a5.111 5.111 0 0 1 -4.288-5.038zm7.788-6.3h2.371v23.855a1.767 1.767 0 0 0 2.863 1.354 20.7 20.7 0 0 1 13.07-4.667h10.26a20.7 20.7 0 0 1 13.07 4.667 1.767 1.767 0 0 0 2.858-1.354v-23.855h2.372v29.266a21.5 21.5 0 0 1 -6.378 15.228l-2.067 2.034a21.368 21.368 0 0 1 -29.978 0l-1.276-1.256h-.005l-.786-.774a21.5 21.5 0 0 1 -6.378-15.228zm-30.675 71.554a20.878 20.878 0 0 1 5.125-13.664l6.234 9.606v17.825h-11.359zm14.859-4.576a1.753 1.753 0 0 0 -.282-.953l-6.888-10.616a20.882 20.882 0 0 1 7.629-3.926 52.265 52.265 0 0 1 10.491-1.412c2.161-.13 4.282-.3 6.306-.5a10.031 10.031 0 0 0 4.216-.884l.339.333a24.7 24.7 0 0 0 15.689 7.08v5.4l-4.616-2.251a1.75 1.75 0 1 0 -1.532 3.147l3.9 1.9-3.9 1.9a1.75 1.75 0 1 0 1.532 3.147l4.616-2.246v7.2l-4.616-2.247a1.75 1.75 0 1 0 -1.532 3.148l3.9 1.9-3.9 1.9a1.75 1.75 0 0 0 1.532 3.148l4.616-2.247v5.43h-37.5zm93.359 18.343h-11.359v-17.825l6.234-9.606a20.878 20.878 0 0 1 5.125 13.664z" fill="#000000" data-original="#000000" class=""></path></g></g></svg>