<svg xmlns="http://www.w3.org/2000/svg" version="1.1" xmlns:xlink="http://www.w3.org/1999/xlink" xmlns:svgjs="http://svgjs.com/svgjs" width="512" height="512" x="0" y="0" viewBox="0 0 512.001 512.001" style="enable-background:new 0 0 512 512" xml:space="preserve" class=""><g><g><g><g><path d="m69.855 108.151c-61.609 13.014-74.545 39.378-52 47.667 45.333 16.667 211.333 18.667 294 4 51.12-9.07 52.667-23.333 35-36.667s-105-51.333-277-15z" fill="#258264" data-original="#258264"></path><path d="m298.458 246.151h-231.23v-93l231.23-46z" fill="#bf7341" data-original="#bf7341"></path><path d="m56.973 504.151v-98.68c0-35.215 28.688-63.762 64.076-63.762h123.095c35.388 0 64.076 28.547 64.076 63.762v98.68z" fill="#e6e8f7" data-original="#e6e8f7"></path><path d="m244.144 341.709h-30c35.388 0 64.076 28.547 64.076 63.762v98.68h30v-98.68c0-35.215-28.688-63.762-64.076-63.762z" fill="#dadcf0" data-original="#dadcf0"></path><g><path d="m263.823 504.151v-97.172l43.301-49.669c-12.425-18.65-33.7-30.953-57.87-30.953l-65.92 20-62.622-20h-4.773c-24.171 0-45.445 12.304-57.87 30.953l43.301 49.669v97.172" fill="#4cc9a0" data-original="#4cc9a0"></path></g><g><path d="m249.254 326.357-9.812 2.977c15.596 4.716 28.868 14.746 37.682 27.976l-43.301 49.669v97.172h30v-97.172l43.301-49.669c-12.425-18.65-33.7-30.953-57.87-30.953z" fill="#36ba8f" data-original="#36ba8f"></path></g><g><g><g><path d="m182.26 355.342c-50.844 0-61.548-28.982-61.548-28.982h20.683c9.068-1.094 17.381-7.476 17.381-17.277v-38.966h46.967v38.966c0 9.709 8.362 16.111 17.381 17.277h20.683s-12.808 28.982-61.547 28.982z" fill="#ffe6d1" data-original="#ffe6d1"></path></g><path d="m288.895 205.323h-213.241c-9.079 0-16.439-7.36-16.439-16.439v-10.946c0-9.079 7.36-16.439 16.439-16.439h213.241c9.079 0 16.439 7.36 16.439 16.439v10.946c.001 9.079-7.359 16.439-16.439 16.439z" fill="#ffe6d1" data-original="#ffe6d1"></path><g><path d="m273.267 116.257v88.135c0 50.119-40.738 90.749-90.992 90.749-50.253 0-90.992-40.63-90.992-90.749v-88.135z" fill="#ffe6d1" data-original="#ffe6d1"></path><path d="m243.267 116.257v88.135c0 45.023-32.877 82.381-75.992 89.514 4.88.808 9.89 1.235 15 1.235 50.253 0 90.992-40.63 90.992-90.749v-88.135z" fill="#ffdec2" data-original="#ffdec2"></path></g></g></g><path d="m102.608 504.151 120.36-177.784c1.545-2.321 4.149-3.716 6.938-3.716h28.7c2.125 0 3.393 2.369 2.214 4.137l-120.212 177.363" fill="#f0b86c" data-original="#f0b86c"></path><path d="m77.275 144.151s13.386-121.668 46.946-129.397c17.916-4.126 33.39 18.712 49.992 16.395 12.528-1.748 24.473-25.339 42.394-23.383 40.024 4.37 62.714 86.418 62.714 86.418z" fill="#4cc9a0" data-original="#4cc9a0"></path><g><path d="m216.607 7.766c-5.959-.651-11.255 1.53-16.133 4.787 31.355 18.393 48.847 81.631 48.847 81.631h30c-.001 0-22.69-82.048-62.714-86.418z" fill="#36ba8f" data-original="#36ba8f"></path></g><path d="m355.275 131.151s-52.121-91.905-168-35c-112 55-169.42 59.667-169.42 59.667s111.42 38.333 247.42-28.667c25.195-12.412 63.878-9.946 90 4z" fill="#30a680" data-original="#30a680"></path></g><g><g><path d="m341.501 504.651c0-67.931 35.817-123 80-123s83 55.069 83 123z" fill="#f0b86c" data-original="#f0b86c"></path><path d="m421.501 381.651c-5.108 0-10.102.745-14.944 2.152 37.582 10.762 67.944 60.771 67.944 120.848h30c0-67.931-38.818-123-83-123z" fill="#e8a54a" data-original="#e8a54a"></path><path d="m409.001 253.151h28v215h-28z" fill="#bf7341" data-original="#bf7341"></path><g><path d="m429.081 266.151h-14.16c-9.897 0-17.92-8.023-17.92-17.92v-37.16c0-9.897 8.023-17.92 17.92-17.92h14.16c9.897 0 17.92 8.023 17.92 17.92v37.16c0 9.897-8.023 17.92-17.92 17.92z" fill="#f0b86c" data-original="#f0b86c"></path></g></g><path d="m379.501 504.651c0-24.024 19.476-43.5 43.5-43.5s43.5 19.476 43.5 43.5z" fill="#9197b8" data-original="#9197b8"></path></g></g><g fill="#060606"><path d="m312.777 362.238c2.223-2.55 2.464-6.272.588-9.087-10.412-15.627-26.256-26.375-45.049-30.753-1.201-3.994-5.535-7.247-9.711-7.247h-28.7c-3.855 0-7.503 1.396-10.329 3.83-3.338-1.515-6.318-4.317-6.318-8.55v-12.775c22.975-7.614 42.219-23.454 54.208-44.005h30.993c4.142 0 7.5-3.357 7.5-7.5v-40.498c4.249-4.323 6.876-10.244 6.876-16.769 0-7.026.794-14.694-2.322-21.223 15.522-2.633 48.863-6.629 53.593-26.348 5.226-21.779-31.335-47.257-45.63-55.498-12.85-7.408-25.922-11.827-38.841-14.001-4.56-11.836-11.498-27.401-20.619-40.839-12.707-18.72-26.701-29.037-41.595-30.663-13.697-1.489-23.972 7.64-32.225 14.979-11.816 10.509-17.127 9.27-30.447 1.261-9.315-5.601-19.873-11.952-32.211-9.105-9.828 2.263-18.286 10.794-25.859 26.079-4.167 8.41 9.085 15.453 13.44 6.658 5.224-10.544 10.83-16.979 15.785-18.12 6.441-1.482 13.567 2.806 21.116 7.344 18.541 11.147 31.802 11.628 48.146-2.908 6.659-5.924 13.54-12.05 20.627-11.275 21.382 2.334 38.105 33.8 47.016 54.967-29.56-.827-57.41 8.706-78.839 19.23-39.879 19.583-72.564 32.573-97.326 41.1 2.046-13.969 5.685-35.319 11.221-55.894 2.437-9.063-11.935-13.373-14.485-3.896-2.569 9.55-4.74 19.247-6.545 28.335-22.025 4.412-74.602 13.663-76.787 43.933-.628 8.701 5.062 16.126 15.22 19.86 11.96 4.403 24.925 6.375 37.492 8.147-1.698 5.609-1.044 12.097-1.044 17.879 0 7.089 3.1 13.466 8.013 17.853v39.415c0 4.143 3.358 7.5 7.5 7.5h29.856c11.988 20.551 31.232 36.391 54.207 44.005v12.775c0 5.71-5.302 9.03-10.376 9.777-8.326 0-16.651 0-24.977 0-26.796 0-50.164 12.007-64.112 32.942-1.875 2.814-1.634 6.537.588 9.087l6.639 7.615c-6.274 10.802-9.581 23.025-9.581 35.618v98.68c0 9.386 15 9.813 15 0v-98.68c0-8.183 1.769-16.167 5.155-23.489l24.241 27.806v94.362c0 7.518 10.85 10.258 14.949 4.204l120.393-177.833c.155-.232.414-.371.694-.371h19.574l-115.079 169.791c-5.289 7.804 6.979 16.439 12.417 8.416l116.398-171.739c13.867 2.855 25.796 9.921 34.301 20.298l-39.346 45.132c-1.191 1.366-1.847 3.117-1.847 4.929v97.173c0 9.386 15 9.813 15 0v-94.362l24.239-27.804c3.387 7.319 5.158 15.296 5.158 23.486v98.68c0 9.386 15 9.813 15 0v-98.68c0-12.606-3.3-24.82-9.577-35.623zm-32.01-193.24h8.128c4.929 0 8.939 4.01 8.939 8.939v10.946c0 4.93-4.01 8.939-8.939 8.939h-8.128zm10.192-14.905c-3.36-.288-6.822-.139-10.191-.095v-24.576c3.269-.858 6.681-1.521 10.191-1.991zm-16.374 84.558c3.052-8.156 5.044-16.82 5.815-25.828h8.495c.695 0 1.382-.036 2.063-.095v25.923zm74.934-100.838c-2.691 11.196-36.01 14.16-43.561 15.398v-26.63c4.779.079 45.173 4.512 43.561 11.232zm-158.938-34.929c45.41-22.299 85.729-23.778 119.832-4.4 8.744 4.969 15.967 10.752 21.697 16.228-24.262-5.587-50.802-3.819-70.15 5.713-68.61 33.8-130.621 39.72-170.55 38.705-12.328-.308-24.552-1.417-36.76-3.079 28.557-7.529 73.925-22.718 135.931-53.167zm-163.44 28.425c14.064-8.7 30.76-13.009 46.774-16.341-1.416 8.368-2.455 15.575-3.148 20.77-4.155 1.298-8.006 2.446-11.524 3.45-22.204 6.336-35.79 8.396-40.308 8.964-9.997-4.658 3.893-14.174 8.206-16.843zm56.642 42.553v23.961h-8.129c-4.929 0-8.939-4.01-8.939-8.939v-10.946c0-1.847.575-3.634 1.625-5.131 4.864.445 10.017.807 15.443 1.055zm-9.055 64.789v-25.851c.308.012.616.023.926.023h8.495c.771 9.008 2.764 17.673 5.815 25.828zm24.055-34.259v-30.167c.258.001.506.005.766.005 41.18-.001 100.758-7.361 166.218-38.99v69.153c0 45.903-37.455 83.249-83.492 83.249s-83.492-37.346-83.492-83.25zm42.628 130.817c12.96 0 24.881-11.951 24.881-24.777v-9.091c5.204.851 10.542 1.301 15.983 1.301s10.779-.45 15.983-1.301v9.091c0 8.689 4.723 16.313 12.358 20.802l-11.162 16.488c-20.753 3.72-47.163 2.042-63.781-12.512h5.738zm-73.735 21.707c11.347-13.865 28.627-21.707 48.263-21.707 16.639 22.983 44.889 30.196 72.47 28.828l-79.539 117.487v-74.546c0-1.812-.656-3.563-1.847-4.929z" fill="#060606" data-original="#060606" class=""></path><path d="m209.866 243.65c6.661-6.612-3.604-17.556-10.568-10.645-9.209 9.143-24.194 9.143-33.403 0-6.661-6.612-17.533 3.731-10.568 10.645 7.519 7.464 17.394 11.196 27.27 11.196s19.751-3.732 27.269-11.196z" fill="#060606" data-original="#060606" class=""></path><path d="m492.925 422.722c-12.237-22.668-29.42-39.231-48.384-46.638-.014-.005-.027-.009-.041-.014v-23.223c0-9.386-15-9.813-15 0v101.233c-4.333-.572-8.667-.572-13 0v-180.429c4.332 0 8.669.065 13-.011v34.846c0 9.386 15 9.813 15 0v-40.065c5.47-4.188 9.196-10.541 9.882-17.77h11.618c9.386 0 9.813-15 0-15h-11.5v-12h11.5c9.386 0 9.813-15 0-15h-11.618c-1.223-12.885-12.102-23-25.302-23h-14.16c-13.2 0-24.079 10.115-25.302 23h-11.618c-9.386 0-9.813 15 0 15h11.5v12h-11.5c-9.386 0-9.813 15 0 15h11.618c.767 8.079 5.33 15.065 11.882 19.155v105.229c-19.016 6.557-36.132 22.584-48.34 45.33-12.355 23.018-19.16 52.063-19.16 81.786 0 9.386 15 9.813 15 0 0-51.625 21.732-96.792 52.5-110.971v67.24c-17.405 8.127-29.5 25.789-29.5 46.231 0 9.386 15 9.813 15 0 0-19.851 16.149-36 36-36s36 16.149 36 36c0 9.386 15 9.813 15 0 0-20.442-12.095-38.104-29.5-46.231v-65.894c30.729 15.826 52.5 60.615 52.5 109.625 0 9.386 15 9.813 15 0 .001-28.846-6.596-56.312-19.075-79.429zm-88.424-211.651c0-5.745 4.674-10.42 10.42-10.42h14.16c5.746 0 10.42 4.675 10.42 10.42v37.16c0 3.713-1.959 6.97-4.891 8.816-.663.223-1.285.532-1.851.921-1.146.434-2.382.683-3.678.683h-14.16c-5.746 0-10.42-4.675-10.42-10.42z" fill="#060606" data-original="#060606" class=""></path></g></g></g></svg>