<svg xmlns="http://www.w3.org/2000/svg" version="1.1" xmlns:xlink="http://www.w3.org/1999/xlink" xmlns:svgjs="http://svgjs.com/svgjs" width="512" height="512" x="0" y="0" viewBox="0 0 682.66669 682.66669" style="enable-background:new 0 0 512 512" xml:space="preserve" class=""><g><defs id="defs8803"><clipPath clipPathUnits="userSpaceOnUse" id="clipPath8813"><path d="M 0,512 H 512 V 0 H 0 Z" id="path8811" fill="#000000" data-original="#000000"></path></clipPath></defs><g id="g8805" transform="matrix(1.3333333,0,0,-1.3333333,0,682.66667)"><g id="g8807"><g id="g8809" clip-path="url(#clipPath8813)"><g id="g8815" transform="translate(350.4307,293.4453)"><path d="m 0,0 v 110.391 c 0,49.52 -40.517,90.038 -90.038,90.038 -49.522,0 -90.039,-40.518 -90.039,-90.039 V 0 Z" style="fill-opacity:1;fill-rule:nonzero;stroke:none" id="path8817" fill="#a44f3e" data-original="#a44f3e"></path></g><g id="g8819" transform="translate(350.4307,403.8359)"><path d="m 0,0 c 0,49.521 -40.517,90.038 -90.038,90.038 -49.522,0 -90.039,-40.517 -90.039,-90.039 v -110.39 H 0 v 75.555" style="stroke:#000000;stroke-width:15;stroke-linecap:round;stroke-linejoin:miter;stroke-miterlimit:10;stroke-dasharray:none;stroke-opacity:1" id="path8821" fill="none" stroke="#000000" stroke-width="15" stroke-linecap="round" stroke-linejoin="miter" stroke-miterlimit="10" stroke-dasharray="none" stroke-opacity="" data-original="#000000"></path></g><g id="g8823" transform="translate(260.2148,293.4453)"><path d="m 0,0 v 140.143 c 0,39.002 -31.91,70.912 -70.912,70.912 h -46.702 c -34.355,0 -62.463,-28.109 -62.463,-62.463 V 0 Z" style="fill-opacity:1;fill-rule:nonzero;stroke:none" id="path8825" fill="#bb5d4c" data-original="#bb5d4c"></path></g><g id="g8827" transform="translate(189.3437,504.499)"><path d="m 0,0 c -0.014,0 -0.027,0.001 -0.041,0.001 h -46.702 c -34.355,0 -62.463,-28.108 -62.463,-62.463 v -148.592 h 46.784 V -62.462 C -62.422,-28.121 -34.336,-0.022 0,0" style="fill-opacity:1;fill-rule:nonzero;stroke:none" id="path8829" fill="#a44f3e" data-original="#a44f3e"></path></g><g id="g8831" transform="translate(260.2148,293.4453)"><path d="m 0,0 v 140.143 c 0,39.002 -31.91,70.912 -70.912,70.912 h -46.702 c -34.355,0 -62.463,-28.109 -62.463,-62.463 V 0 Z" style="stroke:#000000;stroke-width:15;stroke-linecap:round;stroke-linejoin:miter;stroke-miterlimit:10;stroke-dasharray:none;stroke-opacity:1" id="path8833" fill="none" stroke="#000000" stroke-width="15" stroke-linecap="round" stroke-linejoin="miter" stroke-miterlimit="10" stroke-dasharray="none" stroke-opacity="" data-original="#000000"></path></g><g id="g8835" transform="translate(336.8838,275)"><path d="m 0,0 h -243.199 c -14.861,0 -26.907,12.047 -26.907,26.907 v 18.658 c 0,14.861 12.046,26.908 26.907,26.908 H 0 c 14.86,0 26.907,-12.047 26.907,-26.908 V 26.907 C 26.907,12.047 14.86,0 0,0" style="fill-opacity:1;fill-rule:nonzero;stroke:none" id="path8837" fill="#f6a96c" data-original="#f6a96c"></path></g><g id="g8839" transform="translate(336.8838,275)"><path d="m 0,0 h -243.199 c -14.861,0 -26.907,12.047 -26.907,26.907 v 18.658 c 0,14.861 12.046,26.908 26.907,26.908 H 0 c 14.86,0 26.907,-12.047 26.907,-26.908 V 26.907 C 26.907,12.047 14.86,0 0,0 Z" style="stroke:#000000;stroke-width:15;stroke-linecap:round;stroke-linejoin:miter;stroke-miterlimit:10;stroke-dasharray:none;stroke-opacity:1" id="path8841" fill="none" stroke="#000000" stroke-width="15" stroke-linecap="round" stroke-linejoin="miter" stroke-miterlimit="10" stroke-dasharray="none" stroke-opacity="" data-original="#000000"></path></g><path d="M 263.828,88.936 H 166.74 v 140.48 h 97.088 z" style="fill-opacity:1;fill-rule:nonzero;stroke:none" id="path8843" fill="#ffbd86" data-original="#ffbd86"></path><path d="M 166.74,88.936 H 197 v 140.48 h -30.26 z" style="fill-opacity:1;fill-rule:nonzero;stroke:none" id="path8845" fill="#f6a96c" data-original="#f6a96c"></path><path d="M 263.828,88.936 H 166.74 v 140.48 h 97.088 z" style="stroke:#000000;stroke-width:15;stroke-linecap:round;stroke-linejoin:miter;stroke-miterlimit:10;stroke-dasharray:none;stroke-opacity:1" id="path8847" fill="none" stroke="#000000" stroke-width="15" stroke-linecap="round" stroke-linejoin="miter" stroke-miterlimit="10" stroke-dasharray="none" stroke-opacity="" data-original="#000000"></path><path d="m 240.712,41.019 h -50.855 v 107.444 h 50.855 z" style="fill-opacity:1;fill-rule:nonzero;stroke:#000000;stroke-width:15;stroke-linecap:round;stroke-linejoin:miter;stroke-miterlimit:10;stroke-dasharray:none;stroke-opacity:1" id="path8849" data-original="#000000"></path><g id="g8851" transform="translate(191.791,158.9121)"><path d="m 0,0 h -45.479 c -2.761,0 -5,-2.239 -5,-5 v -73.063 c 0,-2.761 2.239,-5 5,-5 H 0 c 2.762,0 5,2.239 5,5 V -5 C 5,-2.239 2.762,0 0,0" style="fill-opacity:1;fill-rule:nonzero;stroke:none" id="path8853" fill="#444444" data-original="#444444"></path></g><g id="g8855" transform="translate(233.7773,153.9121)"><path d="m 0,0 v -73.063 c 0,-2.761 2.238,-5 5,-5 h 45.479 c 2.761,0 5,2.239 5,5 V 0 c 0,2.761 -2.239,5 -5,5 H 5 C 2.238,5 0,2.761 0,0" style="fill-opacity:1;fill-rule:nonzero;stroke:none" id="path8857" fill="#444444" data-original="#444444"></path></g><g id="g8859" transform="translate(191.791,158.9121)"><path d="m 0,0 h -45.479 c -2.761,0 -5,-2.239 -5,-5 v -73.063 c 0,-2.761 2.239,-5 5,-5 H 0 c 2.762,0 5,2.239 5,5 V -5 C 5,-2.239 2.762,0 0,0 Z" style="stroke:#000000;stroke-width:15;stroke-linecap:round;stroke-linejoin:miter;stroke-miterlimit:10;stroke-dasharray:none;stroke-opacity:1" id="path8861" fill="none" stroke="#000000" stroke-width="15" stroke-linecap="round" stroke-linejoin="miter" stroke-miterlimit="10" stroke-dasharray="none" stroke-opacity="" data-original="#000000"></path></g><g id="g8863" transform="translate(233.7773,153.9121)"><path d="m 0,0 v -73.063 c 0,-2.761 2.238,-5 5,-5 h 45.479 c 2.761,0 5,2.239 5,5 V 0 c 0,2.761 -2.239,5 -5,5 H 5 C 2.238,5 0,2.761 0,0 Z" style="stroke:#000000;stroke-width:15;stroke-linecap:round;stroke-linejoin:miter;stroke-miterlimit:10;stroke-dasharray:none;stroke-opacity:1" id="path8865" fill="none" stroke="#000000" stroke-width="15" stroke-linecap="round" stroke-linejoin="miter" stroke-miterlimit="10" stroke-dasharray="none" stroke-opacity="" data-original="#000000"></path></g><g id="g8867" transform="translate(164.1621,416.9873)"><path d="m 0,0 h 102.244 c 32.258,0 58.407,-26.15 58.407,-58.407 v -73.236 c 0,-55.55 -45.033,-100.584 -100.584,-100.584 h -17.89 c -55.551,0 -100.584,45.034 -100.584,100.584 v 73.236 C -58.407,-26.15 -32.258,0 0,0" style="fill-opacity:1;fill-rule:nonzero;stroke:none" id="path8869" fill="#ffbd86" data-original="#ffbd86"></path></g><g id="g8871" transform="translate(141,285.3457)"><path d="m 0,0 v 73.234 c 0,32.257 26.149,58.407 58.407,58.407 H 23.162 c -32.258,0 -58.407,-26.15 -58.407,-58.407 V 0 c 0,-55.552 45.033,-100.585 100.584,-100.585 h 17.89 c 2.924,0 5.817,0.132 8.677,0.377 C 40.419,-95.808 0,-52.628 0,0" style="fill-opacity:1;fill-rule:nonzero;stroke:none" id="path8873" fill="#f6a96c" data-original="#f6a96c"></path></g><g id="g8875" transform="translate(164.1621,416.9873)"><path d="m 0,0 h 102.244 c 32.258,0 58.407,-26.15 58.407,-58.407 v -73.236 c 0,-55.55 -45.033,-100.584 -100.584,-100.584 h -17.89 c -55.551,0 -100.584,45.034 -100.584,100.584 v 73.236 C -58.407,-26.15 -32.258,0 0,0 Z" style="stroke:#000000;stroke-width:15;stroke-linecap:round;stroke-linejoin:miter;stroke-miterlimit:10;stroke-dasharray:none;stroke-opacity:1" id="path8877" fill="none" stroke="#000000" stroke-width="15" stroke-linecap="round" stroke-linejoin="miter" stroke-miterlimit="10" stroke-dasharray="none" stroke-opacity="" data-original="#000000"></path></g><g id="g8879" transform="translate(156.501,341.2187)"><path d="M 0,0 V -19.595" style="stroke:#000000;stroke-width:15;stroke-linecap:round;stroke-linejoin:miter;stroke-miterlimit:10;stroke-dasharray:none;stroke-opacity:1" id="path8881" fill="none" stroke="#000000" stroke-width="15" stroke-linecap="round" stroke-linejoin="miter" stroke-miterlimit="10" stroke-dasharray="none" stroke-opacity="" data-original="#000000"></path></g><g id="g8883" transform="translate(274.0674,341.2187)"><path d="M 0,0 V -19.595" style="stroke:#000000;stroke-width:15;stroke-linecap:round;stroke-linejoin:miter;stroke-miterlimit:10;stroke-dasharray:none;stroke-opacity:1" id="path8885" fill="none" stroke="#000000" stroke-width="15" stroke-linecap="round" stroke-linejoin="miter" stroke-miterlimit="10" stroke-dasharray="none" stroke-opacity="" data-original="#000000"></path></g><g id="g8887" transform="translate(202.2217,332.7285)"><path d="m 0,0 v -27.432 c 0,-3.607 2.924,-6.532 6.531,-6.532 h 19.594" style="stroke:#000000;stroke-width:15;stroke-linecap:round;stroke-linejoin:miter;stroke-miterlimit:10;stroke-dasharray:none;stroke-opacity:1" id="path8889" fill="none" stroke="#000000" stroke-width="15" stroke-linecap="round" stroke-linejoin="miter" stroke-miterlimit="10" stroke-dasharray="none" stroke-opacity="" data-original="#000000"></path></g><g id="g8891" transform="translate(179.1689,267.4395)"><path d="m 0,0 c -4.037,0 -7.195,-3.622 -6.491,-7.598 3.592,-20.275 21.301,-35.673 42.606,-35.673 21.306,0 39.015,15.398 42.607,35.673 C 79.426,-3.622 76.268,0 72.23,0 Z" style="fill-opacity:1;fill-rule:nonzero;stroke:none" id="path8893" fill="#fd93d3" data-original="#fd93d3"></path></g><g id="g8895" transform="translate(179.1689,267.4395)"><path d="m 0,0 c -4.037,0 -7.195,-3.622 -6.491,-7.598 3.592,-20.275 21.301,-35.673 42.606,-35.673 21.306,0 39.015,15.398 42.607,35.673 C 79.426,-3.622 76.268,0 72.23,0 Z" style="stroke:#000000;stroke-width:15;stroke-linecap:round;stroke-linejoin:miter;stroke-miterlimit:10;stroke-dasharray:none;stroke-opacity:1" id="path8897" fill="none" stroke="#000000" stroke-width="15" stroke-linecap="round" stroke-linejoin="miter" stroke-miterlimit="10" stroke-dasharray="none" stroke-opacity="" data-original="#000000"></path></g><g id="g8899" transform="translate(413.3389,7.5)"><path d="m 0,0 h -391.109 c -2.761,0 -5,2.238 -5,5 v 44.198 c 0,32.397 26.262,58.659 58.66,58.659 H -58.66 C -26.263,107.857 0,81.595 0,49.198 Z" style="fill-opacity:1;fill-rule:nonzero;stroke:none" id="path8901" fill="#5a5a5a" data-original="#5a5a5a"></path></g><g id="g8903" transform="translate(79,12.5)"><path d="m 0,0 v 44.198 c 0,32.397 26.263,58.659 58.659,58.659 H -3.11 c -32.398,0 -58.66,-26.262 -58.66,-58.659 L -61.77,0 c 0,-2.762 2.239,-5 5,-5 H 5 C 2.238,-5 0,-2.762 0,0" style="fill-opacity:1;fill-rule:nonzero;stroke:none" id="path8905" fill="#444444" data-original="#444444"></path></g><g id="g8907" transform="translate(101,7.5)"><path d="m 0,0 h -78.771 c -2.76,0 -5,2.238 -5,5 v 44.198 c 0,32.397 26.263,58.659 58.661,58.659 h 278.789 c 32.397,0 58.66,-26.262 58.66,-58.659 L 312.339,0 H 35" style="stroke:#000000;stroke-width:15;stroke-linecap:round;stroke-linejoin:miter;stroke-miterlimit:10;stroke-dasharray:none;stroke-opacity:1" id="path8909" fill="none" stroke="#000000" stroke-width="15" stroke-linecap="round" stroke-linejoin="miter" stroke-miterlimit="10" stroke-dasharray="none" stroke-opacity="" data-original="#000000"></path></g><g id="g8911" transform="translate(222.7842,79.5)"><path d="m 0,0 c 0,-4.143 -3.357,-7.5 -7.5,-7.5 -4.143,0 -7.5,3.357 -7.5,7.5 0,4.143 3.357,7.5 7.5,7.5 C -3.357,7.5 0,4.143 0,0" style="fill-opacity:1;fill-rule:nonzero;stroke:none" id="path8913" fill="#000000" data-original="#000000"></path></g><g id="g8915" transform="translate(222.7842,43.5)"><path d="m 0,0 c 0,-4.143 -3.357,-7.5 -7.5,-7.5 -4.143,0 -7.5,3.357 -7.5,7.5 0,4.143 3.357,7.5 7.5,7.5 C -3.357,7.5 0,4.143 0,0" style="fill-opacity:1;fill-rule:nonzero;stroke:none" id="path8917" fill="#000000" data-original="#000000"></path></g><g id="g8919" transform="translate(464.3418,7.5)"><path d="m 0,0 h -140.632 v 189.177 c 0,2.761 2.238,5 5,5 H 0 c 2.762,0 5,-2.239 5,-5 V 5 C 5,2.238 2.762,0 0,0" style="fill-opacity:1;fill-rule:nonzero;stroke:none" id="path8921" fill="#925cb4" data-original="#925cb4"></path></g><g id="g8923" transform="translate(354.3672,12.5)"><path d="m 0,0 v 184.177 c 0,2.761 2.238,5 5,5 h -30.658 c -2.761,0 -5,-2.239 -5,-5 V -5 H 5 C 2.238,-5 0,-2.762 0,0" style="fill-opacity:1;fill-rule:nonzero;stroke:none" id="path8925" fill="#814ba2" data-original="#814ba2"></path></g><g id="g8927" transform="translate(469.3418,144)"><path d="m 0,0 v -131.5 c 0,-2.762 -2.238,-5 -5,-5 H -145.632 V 52.677 c 0,2.761 2.238,5 5,5 H -5 c 2.762,0 5,-2.239 5,-5 V 35" style="stroke:#000000;stroke-width:15;stroke-linecap:round;stroke-linejoin:miter;stroke-miterlimit:10;stroke-dasharray:none;stroke-opacity:1" id="path8929" fill="none" stroke="#000000" stroke-width="15" stroke-linecap="round" stroke-linejoin="miter" stroke-miterlimit="10" stroke-dasharray="none" stroke-opacity="" data-original="#000000"></path></g><g id="g8931" transform="translate(396.5264,161.2236)"><path d="M 0,0 V -80.416" style="stroke:#000000;stroke-width:15;stroke-linecap:round;stroke-linejoin:miter;stroke-miterlimit:10;stroke-dasharray:none;stroke-opacity:1" id="path8933" fill="none" stroke="#000000" stroke-width="15" stroke-linecap="round" stroke-linejoin="miter" stroke-miterlimit="10" stroke-dasharray="none" stroke-opacity="" data-original="#000000"></path></g><g id="g8935" transform="translate(367.1436,134.418)"><path d="M 0,0 H 58.765" style="stroke:#000000;stroke-width:15;stroke-linecap:round;stroke-linejoin:miter;stroke-miterlimit:10;stroke-dasharray:none;stroke-opacity:1" id="path8937" fill="none" stroke="#000000" stroke-width="15" stroke-linecap="round" stroke-linejoin="miter" stroke-miterlimit="10" stroke-dasharray="none" stroke-opacity="" data-original="#000000"></path></g><g id="g8939" transform="translate(459.209,121.6865)"><path d="m 0,0 h 10.562 c 13.806,0 25,-11.193 25,-25 v -36.687 c 0,-13.806 -11.194,-25 -25,-25 H 0 c -13.808,0 -25,11.194 -25,25 V -25 c 0,13.807 11.192,25 25,25" style="fill-opacity:1;fill-rule:nonzero;stroke:none" id="path8941" fill="#ffbd86" data-original="#ffbd86"></path></g><g id="g8943" transform="translate(462,60)"><path d="m 0,0 v 36.686 c 0,10.78 6.822,19.965 16.385,23.475 -2.686,0.986 -5.587,1.525 -8.615,1.525 H -2.791 c -13.808,0 -25,-11.193 -25,-25 V 0 c 0,-13.807 11.192,-25 25,-25 H 7.77 c 3.028,0 5.929,0.539 8.615,1.524 C 6.822,-19.965 0,-10.779 0,0" style="fill-opacity:1;fill-rule:nonzero;stroke:none" id="path8945" fill="#f6a96c" data-original="#f6a96c"></path></g><g id="g8947" transform="translate(459.209,121.6865)"><path d="m 0,0 h 10.562 c 13.806,0 25,-11.193 25,-25 v -36.687 c 0,-13.806 -11.194,-25 -25,-25 H 0 c -13.808,0 -25,11.194 -25,25 V -25 c 0,13.807 11.192,25 25,25 z" style="stroke:#000000;stroke-width:15;stroke-linecap:round;stroke-linejoin:miter;stroke-miterlimit:10;stroke-dasharray:none;stroke-opacity:1" id="path8949" fill="none" stroke="#000000" stroke-width="15" stroke-linecap="round" stroke-linejoin="miter" stroke-miterlimit="10" stroke-dasharray="none" stroke-opacity="" data-original="#000000"></path></g></g></g></g></g></svg>