<svg xmlns="http://www.w3.org/2000/svg" version="1.1" xmlns:xlink="http://www.w3.org/1999/xlink" xmlns:svgjs="http://svgjs.com/svgjs" width="512" height="512" x="0" y="0" viewBox="0 0 682.66669 682.66669" style="enable-background:new 0 0 512 512" xml:space="preserve" class=""><g><defs id="defs175"><clipPath clipPathUnits="userSpaceOnUse" id="clipPath185"><path d="M 0,512 H 512 V 0 H 0 Z" id="path183" fill="#000000" data-original="#000000"></path></clipPath></defs><g id="g177" transform="matrix(1.3333333,0,0,-1.3333333,0,682.66667)"><g id="g179"><g id="g181" clip-path="url(#clipPath185)"><g id="g187" transform="translate(395.854,288.0024)"><path d="m 0,0 c 0,-23.544 19.086,-42.631 42.631,-42.631 23.544,0 42.631,19.087 42.631,42.631 0,23.544 -19.087,42.631 -42.631,42.631 C 19.086,42.631 0,23.544 0,0" style="fill-opacity:1;fill-rule:nonzero;stroke:none" id="path189" fill="#ffdcce" data-original="#ffdcce"></path></g><g id="g191" transform="translate(116.146,288.0024)"><path d="m 0,0 c 0,-23.544 -19.086,-42.631 -42.631,-42.631 -23.544,0 -42.631,19.087 -42.631,42.631 0,23.544 19.087,42.631 42.631,42.631 C -19.086,42.631 0,23.544 0,0" style="fill-opacity:1;fill-rule:nonzero;stroke:none" id="path193" fill="#ffdcce" data-original="#ffdcce"></path></g><g id="g195" transform="translate(208.2051,97.834)"><path d="m 0,0 47.795,-45.167 -74.34,-45.167 H -129.757 C -121.228,-20.343 -90.275,0 -90.275,0 Z" style="fill-opacity:1;fill-rule:nonzero;stroke:none" id="path197" fill="#ffefe0" data-original="#ffefe0"></path></g><g id="g199" transform="translate(433.5518,7.5)"><path d="m 0,0 h -103.212 l -74.34,45.167 47.795,45.167 h 90.275 C -39.482,90.334 -8.529,69.991 0,0" style="fill-opacity:1;fill-rule:nonzero;stroke:none" id="path201" fill="#ffefe0" data-original="#ffefe0"></path></g><g id="g203" transform="translate(117.9302,97.8335)"><path d="M 0,0 C 0,0 -10.316,-6.781 -20.679,-25.981 7.256,-48.776 48.256,-61.207 106.468,-64.367 l 31.602,19.2 L 90.275,0 Z" style="fill-opacity:1;fill-rule:nonzero;stroke:none" id="path205" fill="#fbe5c8" data-original="#fbe5c8"></path></g><g id="g207" transform="translate(287.6021,33.4663)"><path d="m 0,0 c 58.212,3.16 99.212,15.592 127.147,38.386 -10.362,19.2 -20.679,25.981 -20.679,25.981 H 16.193 L -31.602,19.2 Z" style="fill-opacity:1;fill-rule:nonzero;stroke:none" id="path209" fill="#fbe5c8" data-original="#fbe5c8"></path></g><g id="g211" transform="translate(330.3398,7.5)"><path d="m 0,0 h -148.68 l 26.545,90.334 h 95.59 z" style="fill-opacity:1;fill-rule:nonzero;stroke:none" id="path213" fill="#80dfb5" data-original="#80dfb5"></path></g><g id="g215" transform="translate(190.2251,36.6475)"><path d="m 0,0 c 19.484,-2.688 41.331,-4.005 65.775,-4.005 24.445,0 46.291,1.317 65.775,4.005 L 113.57,61.186 H 17.98 Z" style="fill-opacity:1;fill-rule:nonzero;stroke:none" id="path217" fill="#36d39a" data-original="#36d39a"></path></g><g id="g219" transform="translate(442.0303,292.7324)"><path d="m 0,0 c 0,31.759 -7.966,61.655 -21.998,87.811 l -26.692,29.615 -137.34,42.472 -134.924,-31.436 -29.109,-40.651 C -364.094,61.655 -372.061,31.759 -372.061,0 c 0,-11.724 1.087,-23.194 3.164,-34.316 4.811,-25.768 8.211,-51.796 9.316,-77.986 2.675,-63.404 21.152,-117.788 173.551,-117.788 152.399,0 170.875,54.384 173.55,117.788 1.105,26.19 4.506,52.218 9.317,77.986 C -1.087,-23.194 0,-11.724 0,0" style="fill-opacity:1;fill-rule:nonzero;stroke:none" id="path221" fill="#b2b0bc" data-original="#b2b0bc"></path></g><g id="g223" transform="translate(393.3398,410.1587)"><path d="m 0,0 -136.74,42.286 -0.6,-0.139 -0.6,0.139 L -274.68,0 c 1.014,-20.1 1.302,-40.223 1.202,-60.348 -10e-4,-0.224 -10e-4,-0.448 -10e-4,-0.672 0,-28.458 8.777,-54.903 23.766,-76.773 14.035,-20.48 38.852,-30.725 63.236,-26.052 l 49.137,9.418 49.154,-9.421 c 23.879,-4.577 48.464,4.982 62.416,24.894 15.478,22.093 24.57,48.972 24.57,77.934 0,0.224 -0.001,0.448 -0.002,0.672 C -1.301,-40.223 -1.014,-20.1 0,0" style="fill-opacity:1;fill-rule:nonzero;stroke:none" id="path225" fill="#ffdcce" data-original="#ffdcce"></path></g><g id="g227" transform="translate(96.6064,295.8491)"><path d="M 0,0 C 0,45.149 6.272,87.235 22.554,122.668 L -4.639,84.694 C -18.67,58.538 -26.637,28.643 -26.637,-3.117 c 0,-11.724 1.087,-23.194 3.163,-34.316 4.811,-25.768 8.213,-51.796 9.317,-77.986 2.516,-59.638 19.028,-111.289 147.802,-117.215 C 50.75,-195.724 0,-99.065 0,0" style="fill-opacity:1;fill-rule:nonzero;stroke:none" id="path229" fill="#a19dae" data-original="#a19dae"></path></g><g id="g231" transform="translate(144.2148,448.3633)"><path d="m 0,0 c -0.791,0.381 -1.593,0.748 -2.406,1.1 -22.567,9.776 -47.625,5.76 -65.78,-8.312 -5.413,-4.196 -8.294,-10.847 -7.652,-17.666 2.151,-22.869 16.361,-43.895 38.928,-53.671 0.813,-0.352 1.629,-0.686 2.448,-1.003 C 17.271,-99.549 49.973,-24.061 0,0" style="fill-opacity:1;fill-rule:nonzero;stroke:none" id="path233" fill="#80dfb5" data-original="#80dfb5"></path></g><g id="g235" transform="translate(367.7852,448.3633)"><path d="m 0,0 c 0.791,0.381 1.593,0.748 2.406,1.1 22.567,9.776 47.625,5.76 65.78,-8.312 5.413,-4.196 8.294,-10.847 7.652,-17.666 C 73.687,-47.747 59.477,-68.773 36.91,-78.549 36.097,-78.901 35.281,-79.235 34.462,-79.552 -17.271,-99.549 -49.973,-24.061 0,0" style="fill-opacity:1;fill-rule:nonzero;stroke:none" id="path237" fill="#80dfb5" data-original="#80dfb5"></path></g><g id="g239" transform="translate(210.9497,469.0923)"><path d="m 0,0 c -0.596,0.646 -1.207,1.282 -1.833,1.908 -17.39,17.39 -42.168,22.871 -64.226,16.462 -6.578,-1.912 -11.703,-7.036 -13.614,-13.614 -6.409,-22.057 -0.928,-46.836 16.462,-64.226 0.627,-0.626 1.263,-1.238 1.908,-1.833 C -20.55,-98.925 37.622,-40.753 0,0" style="fill-opacity:1;fill-rule:nonzero;stroke:none" id="path241" fill="#b0ebce" data-original="#b0ebce"></path></g><g id="g243" transform="translate(301.0503,469.0923)"><path d="M 0,0 C 0.596,0.646 1.207,1.282 1.833,1.908 19.223,19.298 44.001,24.779 66.059,18.37 72.637,16.458 77.762,11.334 79.673,4.756 86.082,-17.301 80.601,-42.08 63.211,-59.47 62.584,-60.096 61.948,-60.708 61.303,-61.303 20.55,-98.925 -37.622,-40.753 0,0" style="fill-opacity:1;fill-rule:nonzero;stroke:none" id="path245" fill="#b0ebce" data-original="#b0ebce"></path></g><g id="g247" transform="translate(265.6265,502.0254)"><path d="m 0,0 c -6.002,3.299 -13.25,3.299 -19.253,0 -20.129,-11.065 -33.774,-32.462 -33.774,-57.055 0,-0.886 0.018,-1.768 0.053,-2.645 2.214,-55.42 84.481,-55.42 86.695,0 0.035,0.877 0.053,1.759 0.053,2.645 C 33.774,-32.462 20.129,-11.065 0,0" style="fill-opacity:1;fill-rule:nonzero;stroke:none" id="path249" fill="#80dfb5" data-original="#80dfb5"></path></g><g id="g251" transform="translate(256,229.1841)"><path d="m 0,0 c -28.956,-36.194 -71.62,-21.195 -94.121,-9.309 -5.457,2.883 -5.846,10.462 -0.789,14 12.898,9.026 20.408,28.788 31.062,38.717 C -47.295,58.835 -18.779,68.207 0,51.18 18.779,68.207 47.295,58.835 63.848,43.408 74.502,33.479 82.012,13.717 94.91,4.691 99.967,1.153 99.578,-6.426 94.121,-9.309 71.62,-21.195 28.956,-36.194 0,0" style="fill-opacity:1;fill-rule:nonzero;stroke:none" id="path253" fill="#c7c5cb" data-original="#c7c5cb"></path></g><g id="g255" transform="translate(94.5542,446.1069)"><path d="m 0,0 c 0,1.741 0.086,3.461 0.212,5.17 -6.728,-2.319 -13.069,-5.732 -18.737,-10.126 -5.413,-4.196 -8.294,-10.846 -7.653,-17.666 2.152,-22.869 16.362,-43.895 38.928,-53.671 0.813,-0.352 1.63,-0.686 2.449,-1.003 18.535,-7.164 34.626,-2.07 45.347,8.523 C 26.405,-64.445 0,-35.316 0,0" style="fill-opacity:1;fill-rule:nonzero;stroke:none" id="path257" fill="#36d39a" data-original="#36d39a"></path></g><g id="g259" transform="translate(177.021,319.4111)"><path d="M 0,0 V -15.177" style="stroke:#000000;stroke-width:15;stroke-linecap:round;stroke-linejoin:round;stroke-miterlimit:10;stroke-dasharray:none;stroke-opacity:1" id="path261" fill="none" stroke="#000000" stroke-width="15" stroke-linecap="round" stroke-linejoin="round" stroke-miterlimit="10" stroke-dasharray="none" stroke-opacity="" data-original="#000000"></path></g><g id="g263" transform="translate(334.979,319.4111)"><path d="M 0,0 V -15.177" style="stroke:#000000;stroke-width:15;stroke-linecap:round;stroke-linejoin:round;stroke-miterlimit:10;stroke-dasharray:none;stroke-opacity:1" id="path265" fill="none" stroke="#000000" stroke-width="15" stroke-linecap="round" stroke-linejoin="round" stroke-miterlimit="10" stroke-dasharray="none" stroke-opacity="" data-original="#000000"></path></g><g id="g267" transform="translate(265.6265,502.0254)"><path d="m 0,0 c -6.002,3.299 -13.25,3.299 -19.252,0 -20.13,-11.065 -33.775,-32.462 -33.775,-57.055 0,-0.886 0.018,-1.768 0.053,-2.645 2.214,-55.42 84.481,-55.42 86.696,0 0.034,0.877 0.052,1.759 0.052,2.645 C 33.774,-32.462 20.129,-11.065 0,0 Z" style="stroke:#000000;stroke-width:15;stroke-linecap:round;stroke-linejoin:round;stroke-miterlimit:10;stroke-dasharray:none;stroke-opacity:1" id="path269" fill="none" stroke="#000000" stroke-width="15" stroke-linecap="round" stroke-linejoin="round" stroke-miterlimit="10" stroke-dasharray="none" stroke-opacity="" data-original="#000000"></path></g><g id="g271" transform="translate(149.6465,407.7891)"><path d="m 0,0 c -0.646,0.596 -1.281,1.207 -1.908,1.833 -12.181,12.182 -18.511,27.988 -19.012,43.945 -18.767,3.778 -37.995,-1.02 -52.697,-12.416 -5.413,-4.196 -8.295,-10.846 -7.653,-17.666 2.152,-22.869 16.362,-43.895 38.928,-53.671 0.813,-0.352 1.629,-0.686 2.448,-1.003 28.204,-10.902 50.747,6.576 57.326,28.627 C 11.488,-8.501 5.581,-5.152 0,0 Z" style="stroke:#000000;stroke-width:15;stroke-linecap:round;stroke-linejoin:round;stroke-miterlimit:10;stroke-dasharray:none;stroke-opacity:1" id="path273" fill="none" stroke="#000000" stroke-width="15" stroke-linecap="round" stroke-linejoin="round" stroke-miterlimit="10" stroke-dasharray="none" stroke-opacity="" data-original="#000000"></path></g><g id="g275" transform="translate(212.6523,442.3252)"><path d="m 0,0 c -0.035,0.877 -0.053,1.759 -0.053,2.645 0,6.497 0.961,12.767 2.734,18.687 -1.288,1.838 -2.74,3.654 -4.383,5.435 -0.596,0.646 -1.207,1.282 -1.834,1.908 -17.39,17.39 -42.168,22.871 -64.226,16.462 -6.578,-1.911 -11.702,-7.036 -13.613,-13.614 -6.41,-22.057 -0.929,-46.836 16.461,-64.226 0.627,-0.626 1.263,-1.237 1.908,-1.833 25.228,-23.289 57.12,-9.866 68.842,13.405 C 2.462,-15.323 0.331,-8.286 0,0 Z" style="stroke:#000000;stroke-width:15;stroke-linecap:round;stroke-linejoin:round;stroke-miterlimit:10;stroke-dasharray:none;stroke-opacity:1" id="path277" fill="none" stroke="#000000" stroke-width="15" stroke-linecap="round" stroke-linejoin="round" stroke-miterlimit="10" stroke-dasharray="none" stroke-opacity="" data-original="#000000"></path></g><g id="g279" transform="translate(435.9707,441.1514)"><path d="m 0,0 c -14.702,11.396 -33.931,16.193 -52.697,12.416 -0.502,-15.957 -6.831,-31.764 -19.012,-43.945 -0.627,-0.626 -1.263,-1.238 -1.908,-1.833 -5.581,-5.153 -11.488,-8.501 -17.432,-10.351 6.579,-22.052 29.122,-39.529 57.325,-28.627 0.82,0.317 1.636,0.651 2.449,1.003 22.566,9.775 36.776,30.802 38.928,53.671 C 8.295,-10.847 5.414,-4.196 0,0 Z" style="stroke:#000000;stroke-width:15;stroke-linecap:round;stroke-linejoin:round;stroke-miterlimit:10;stroke-dasharray:none;stroke-opacity:1" id="path281" fill="none" stroke="#000000" stroke-width="15" stroke-linecap="round" stroke-linejoin="round" stroke-miterlimit="10" stroke-dasharray="none" stroke-opacity="" data-original="#000000"></path></g><g id="g283" transform="translate(380.7227,473.8486)"><path d="m 0,0 c -1.911,6.577 -7.035,11.702 -13.613,13.613 -22.058,6.41 -46.836,0.929 -64.226,-16.461 -0.627,-0.627 -1.238,-1.263 -1.833,-1.908 -1.644,-1.782 -3.096,-3.598 -4.384,-5.436 1.774,-5.919 2.734,-12.189 2.734,-18.686 0,-0.886 -0.018,-1.768 -0.053,-2.645 -0.331,-8.287 -2.461,-15.323 -5.836,-21.131 11.722,-23.272 43.614,-36.694 68.842,-13.406 0.645,0.596 1.281,1.207 1.908,1.834 C 0.929,-46.836 6.41,-22.058 0,0 Z" style="stroke:#000000;stroke-width:15;stroke-linecap:round;stroke-linejoin:round;stroke-miterlimit:10;stroke-dasharray:none;stroke-opacity:1" id="path285" fill="none" stroke="#000000" stroke-width="15" stroke-linecap="round" stroke-linejoin="round" stroke-miterlimit="10" stroke-dasharray="none" stroke-opacity="" data-original="#000000"></path></g><g id="g287" transform="translate(438.4844,330.6328)"><path d="m 0,0 c -0.115,0 -0.229,-0.008 -0.345,-0.009 2.537,-12.235 3.891,-24.903 3.891,-37.891 0,-11.725 -1.087,-23.195 -3.163,-34.316 -0.808,-4.325 -1.559,-8.659 -2.282,-12.997 0.629,-0.028 1.262,-0.049 1.899,-0.049 23.545,0 42.631,19.087 42.631,42.631 C 42.631,-19.086 23.545,0 0,0 Z" style="stroke:#000000;stroke-width:15;stroke-linecap:round;stroke-linejoin:round;stroke-miterlimit:10;stroke-dasharray:none;stroke-opacity:1" id="path289" fill="none" stroke="#000000" stroke-width="15" stroke-linecap="round" stroke-linejoin="round" stroke-miterlimit="10" stroke-dasharray="none" stroke-opacity="" data-original="#000000"></path></g><g id="g291" transform="translate(73.1328,258.4165)"><path d="m 0,0 c -2.076,11.122 -3.163,22.592 -3.163,34.316 0,12.988 1.353,25.657 3.891,37.892 -0.116,0 -0.23,0.008 -0.345,0.008 -23.545,0 -42.631,-19.086 -42.631,-42.631 0,-23.544 19.086,-42.63 42.631,-42.63 0.637,0 1.269,0.02 1.899,0.048 C 1.559,-8.659 0.808,-4.324 0,0 Z" style="stroke:#000000;stroke-width:15;stroke-linecap:round;stroke-linejoin:round;stroke-miterlimit:10;stroke-dasharray:none;stroke-opacity:1" id="path293" fill="none" stroke="#000000" stroke-width="15" stroke-linecap="round" stroke-linejoin="round" stroke-miterlimit="10" stroke-dasharray="none" stroke-opacity="" data-original="#000000"></path></g><g id="g295" transform="translate(392.1514,366.043)"><path d="m 0,0 c -23.394,-3.775 -41.459,12.049 -47.23,31.399 -20.923,-6.512 -42.281,5.629 -51.41,23.752 -15.823,-27.232 -59.2,-27.232 -75.023,0 -9.129,-18.123 -30.486,-30.264 -51.409,-23.752 -5.772,-19.35 -23.836,-35.174 -47.231,-31.399 0.036,-5.411 0.04,-10.821 0.014,-16.232 -0.001,-0.224 -0.002,-0.448 -0.002,-0.672 0,-28.458 8.777,-54.904 23.766,-76.774 7.702,-11.238 18.653,-19.385 30.995,-23.685 5.932,8.558 11.172,17.986 17.531,23.912 16.553,15.427 45.068,24.799 63.848,7.772 18.779,17.027 47.295,7.655 63.847,-7.772 6.378,-5.944 11.631,-15.411 17.586,-23.99 11.956,4.118 22.599,11.846 30.136,22.603 15.478,22.092 24.57,48.971 24.57,77.934 0,0.224 -10e-4,0.448 -0.002,0.672 C -0.04,-10.821 -0.036,-5.411 0,0 Z" style="stroke:#000000;stroke-width:15;stroke-linecap:round;stroke-linejoin:round;stroke-miterlimit:10;stroke-dasharray:none;stroke-opacity:1" id="path297" fill="none" stroke="#000000" stroke-width="15" stroke-linecap="round" stroke-linejoin="round" stroke-miterlimit="10" stroke-dasharray="none" stroke-opacity="" data-original="#000000"></path></g><g id="g299" transform="translate(256,229.1841)"><path d="m 0,0 c -28.956,-36.194 -71.62,-21.195 -94.121,-9.309 -5.457,2.883 -5.846,10.462 -0.789,14 12.898,9.025 20.408,28.788 31.062,38.717 C -47.295,58.835 -18.779,68.207 0,51.18 18.779,68.207 47.295,58.835 63.848,43.408 74.502,33.479 82.012,13.716 94.911,4.691 99.967,1.153 99.578,-6.426 94.121,-9.309 71.62,-21.195 28.956,-36.194 0,0 Z" style="stroke:#000000;stroke-width:15;stroke-linecap:round;stroke-linejoin:round;stroke-miterlimit:10;stroke-dasharray:none;stroke-opacity:1" id="path301" fill="none" stroke="#000000" stroke-width="15" stroke-linecap="round" stroke-linejoin="round" stroke-miterlimit="10" stroke-dasharray="none" stroke-opacity="" data-original="#000000"></path></g><g id="g303" transform="translate(115.3545,95.791)"><path d="M 0,0 C -7.604,-6.633 -29.874,-30.587 -36.906,-88.291 H 66.306 l 17.135,58.312 C 43.477,-24.999 17.239,-14.4 0,0 Z" style="stroke:#000000;stroke-width:15;stroke-linecap:round;stroke-linejoin:round;stroke-miterlimit:10;stroke-dasharray:none;stroke-opacity:1" id="path305" fill="none" stroke="#000000" stroke-width="15" stroke-linecap="round" stroke-linejoin="round" stroke-miterlimit="10" stroke-dasharray="none" stroke-opacity="" data-original="#000000"></path></g><g id="g307" transform="translate(256,62.6426)"><path d="M 0,0 C -21.664,0 -40.614,1.102 -57.204,3.169 L -74.34,-55.143 H 74.34 L 57.205,3.169 C 40.614,1.102 21.664,0 0,0 Z" style="stroke:#000000;stroke-width:15;stroke-linecap:round;stroke-linejoin:round;stroke-miterlimit:10;stroke-dasharray:none;stroke-opacity:1" id="path309" fill="none" stroke="#000000" stroke-width="15" stroke-linecap="round" stroke-linejoin="round" stroke-miterlimit="10" stroke-dasharray="none" stroke-opacity="" data-original="#000000"></path></g><g id="g311" transform="translate(414.5996,72.1128)"><path d="M 0,0 C -7.16,13.184 -14.274,20.468 -17.954,23.678 -35.193,9.278 -61.431,-1.32 -101.395,-6.301 L -84.26,-64.613 H 18.952 C 17.2,-50.232 14.5,-37.949 11.317,-27.506" style="stroke:#000000;stroke-width:15;stroke-linecap:round;stroke-linejoin:round;stroke-miterlimit:10;stroke-dasharray:none;stroke-opacity:1" id="path313" fill="none" stroke="#000000" stroke-width="15" stroke-linecap="round" stroke-linejoin="round" stroke-miterlimit="10" stroke-dasharray="none" stroke-opacity="" data-original="#000000"></path></g><g id="g315" transform="translate(83.6523,163.4951)"><path d="m 0,0 c 5.909,-55.854 33.723,-100.853 172.348,-100.853 152.399,0 170.875,54.384 173.549,117.788 1.106,26.19 4.506,52.218 9.318,77.986 2.076,11.122 3.163,22.592 3.163,34.316 0,31.367 -7.782,60.91 -21.492,86.834 -4.674,-3.899 -9.973,-7.209 -15.843,-9.752 -0.813,-0.352 -1.629,-0.686 -2.448,-1.003 -28.204,-10.902 -50.748,6.578 -57.326,28.631 -20.923,-6.512 -42.281,5.629 -51.41,23.752 -15.823,-27.232 -59.2,-27.232 -75.023,0 -9.129,-18.123 -30.486,-30.264 -51.409,-23.752 -6.578,-22.053 -29.121,-39.533 -57.326,-28.631 -0.82,0.317 -1.636,0.651 -2.449,1.003 -5.87,2.543 -11.168,5.853 -15.842,9.752 -13.71,-25.924 -21.493,-55.467 -21.493,-86.834 0,-11.724 1.087,-23.194 3.163,-34.316 C -6.509,73.443 -3.501,51.783 -1.963,30" style="stroke:#000000;stroke-width:15;stroke-linecap:round;stroke-linejoin:round;stroke-miterlimit:10;stroke-dasharray:none;stroke-opacity:1" id="path317" fill="none" stroke="#000000" stroke-width="15" stroke-linecap="round" stroke-linejoin="round" stroke-miterlimit="10" stroke-dasharray="none" stroke-opacity="" data-original="#000000"></path></g></g></g></g></g></svg>