<svg xmlns="http://www.w3.org/2000/svg" version="1.1" xmlns:xlink="http://www.w3.org/1999/xlink" xmlns:svgjs="http://svgjs.com/svgjs" width="512" height="512" x="0" y="0" viewBox="0 0 340 340" style="enable-background:new 0 0 512 512" xml:space="preserve" class=""><g><linearGradient id="linear-gradient" gradientUnits="userSpaceOnUse" x1="322.408" x2="289.161" y1="28.416" y2="233.544"><stop offset="0" stop-color="#f9ffff"></stop><stop offset="1" stop-color="#cce2ec"></stop></linearGradient><linearGradient id="linear-gradient-2" gradientUnits="userSpaceOnUse" x1="315.56" x2="277.295" y1="61.724" y2="261.834"><stop offset="0" stop-color="#89a3be"></stop><stop offset="1" stop-color="#67839b"></stop></linearGradient><linearGradient id="linear-gradient-3" gradientUnits="userSpaceOnUse" x1="269.672" x2="273.275" y1="316.729" y2="285.745"><stop offset="0" stop-color="#6f6f81"></stop><stop offset="1" stop-color="#555568"></stop></linearGradient><linearGradient id="linear-gradient-4" gradientUnits="userSpaceOnUse" x1="292.883" x2="234.944" y1="258.902" y2="283.457"><stop offset="0" stop-color="#ffc564"></stop><stop offset=".532" stop-color="#faa34f"></stop><stop offset="1" stop-color="#f78a40"></stop></linearGradient><linearGradient id="linear-gradient-5" gradientUnits="userSpaceOnUse" x1="177.536" x2="214.796" y1="216.722" y2="216.722"><stop offset="0" stop-color="#ffe1db"></stop><stop offset="1" stop-color="#feb5a9"></stop></linearGradient><linearGradient id="linear-gradient-6" gradientUnits="userSpaceOnUse" x1="145.948" x2="145.948" y1="76.179" y2="122.531"><stop offset="0" stop-color="#444456"></stop><stop offset="1" stop-color="#363644"></stop></linearGradient><linearGradient id="linear-gradient-7" x1="139.885" x2="139.345" xlink:href="#linear-gradient-3" y1="252.057" y2="317.992"></linearGradient><radialGradient id="radial-gradient" cx="158.511" cy="225.501" r="55.068" xlink:href="#linear-gradient"></radialGradient><linearGradient id="linear-gradient-8" x1="124.626" x2="123.313" xlink:href="#linear-gradient-2" y1="140.345" y2="244.461"></linearGradient><linearGradient id="linear-gradient-9" x1="145.654" x2="144.342" xlink:href="#linear-gradient-2" y1="140.61" y2="244.726"></linearGradient><radialGradient id="radial-gradient-2" cx="168.274" cy="196.214" r="53.483" xlink:href="#linear-gradient"></radialGradient><linearGradient id="linear-gradient-10" x1="116.495" x2="115.182" xlink:href="#linear-gradient-2" y1="140.243" y2="244.359"></linearGradient><linearGradient id="linear-gradient-11" x1="187.49" x2="186.177" xlink:href="#linear-gradient-2" y1="141.138" y2="245.254"></linearGradient><linearGradient id="linear-gradient-12" x1="142.865" x2="141.552" xlink:href="#linear-gradient-2" y1="140.575" y2="244.691"></linearGradient><linearGradient id="linear-gradient-13" x1="109.063" x2="107.75" xlink:href="#linear-gradient-2" y1="140.149" y2="244.265"></linearGradient><linearGradient id="linear-gradient-14" x1="144.989" x2="144.989" xlink:href="#linear-gradient-5" y1="136.214" y2="163.583"></linearGradient><linearGradient id="linear-gradient-15" x1="137.845" x2="137.845" xlink:href="#linear-gradient-5" y1="64.869" y2="132.003"></linearGradient><radialGradient id="radial-gradient-3" cx="62.924" cy="137.572" r="44.854" xlink:href="#linear-gradient"></radialGradient><linearGradient id="linear-gradient-16" x1="78.501" x2="77.673" xlink:href="#linear-gradient-2" y1="146.272" y2="217.25"></linearGradient><linearGradient id="linear-gradient-17" x1="92.041" x2="90.728" xlink:href="#linear-gradient-2" y1="139.934" y2="244.051"></linearGradient><linearGradient id="linear-gradient-18" gradientUnits="userSpaceOnUse" x1="142.545" x2="143.947" y1="22.601" y2="149.81"><stop offset="0" stop-color="#ffd58a"></stop><stop offset=".553" stop-color="#ffbe65"></stop><stop offset="1" stop-color="#ffae4c"></stop></linearGradient><linearGradient id="linear-gradient-19" gradientUnits="userSpaceOnUse" x1="204.004" x2="105.5" y1="304.573" y2="307.958"><stop offset="0" stop-color="#d06c6c"></stop><stop offset="1" stop-color="#b45858"></stop></linearGradient><linearGradient id="linear-gradient-20" x1="147.546" x2="145.625" xlink:href="#linear-gradient-4" y1="298.272" y2="331.658"></linearGradient><radialGradient id="radial-gradient-4" cx="74.451" cy="190.275" r="115.978" xlink:href="#linear-gradient"></radialGradient><radialGradient id="radial-gradient-5" cx="215.457" cy="251.94" r="50.262" xlink:href="#linear-gradient"></radialGradient><linearGradient id="linear-gradient-21" x1="218.31" x2="270.398" xlink:href="#linear-gradient-2" y1="279.826" y2="279.826"></linearGradient><linearGradient id="linear-gradient-22" x1="259.986" x2="291.298" xlink:href="#linear-gradient-5" y1="282.227" y2="282.227"></linearGradient><linearGradient id="linear-gradient-23" x1="182.619" x2="181.307" xlink:href="#linear-gradient-2" y1="141.076" y2="245.192"></linearGradient><radialGradient id="radial-gradient-6" cx="203.255" cy="133.167" r="41.996" xlink:href="#linear-gradient"></radialGradient><radialGradient id="radial-gradient-7" cx="74.944" cy="213.358" r="88.003" xlink:href="#linear-gradient-2"></radialGradient><linearGradient id="linear-gradient-24" x1="-1160.066" x2="-1159.574" xlink:href="#linear-gradient-6" y1="170" y2="170"></linearGradient><linearGradient id="linear-gradient-25" x1="-1160.066" x2="-1159.574" xlink:href="#linear-gradient-6" y1="247.146" y2="247.146"></linearGradient><linearGradient id="linear-gradient-26" x1="-1160.066" x2="-1159.574" xlink:href="#linear-gradient-6" y1="267.767" y2="267.767"></linearGradient><path d="m324.416 26.07s-7.213 5.963-14.922 21.6c0 0-27.071 113.943-32.648 200.613l15.054 10.566s23.919-95.012 33.1-164.06c0 0 5.944-39.909-.584-68.719z" fill="url(#linear-gradient)" data-original="url(#linear-gradient)" class=""></path><path d="m310.857 64.1-1.57-16c-4.561 9.342-9.275 22.063-12.755 38.951 0 0-19.443 81.493-25.02 168.162l20.388 3.64s1.439-5.717 3.743-15.35l-6.71-5.814a8.352 8.352 0 0 1 -2.757-7.757l23.452-133.527a119.353 119.353 0 0 0 1.229-32.305z" fill="url(#linear-gradient-2)" data-original="url(#linear-gradient-2)" class=""></path><path d="m264.442 294.273-3.073 18.256a4.923 4.923 0 0 0 3.8 5.624l5.949 1.308a4.921 4.921 0 0 0 5.882-3.861l3.973-20.417z" fill="url(#linear-gradient-3)" data-original="url(#linear-gradient-3)"></path><path d="m257.265 250.3 25.7-2.654 22.82 12.83a6.556 6.556 0 0 1 3.266 6.718l-1.471 9.49-58.587-10.043 2.555-11.269a6.555 6.555 0 0 1 5.717-5.072z" fill="url(#linear-gradient-4)" data-original="url(#linear-gradient-4)"></path><path d="m210.247 169.6s-7.077 38.9 4.549 71.251l-13.142 23s-24.118-20.472-24.118-55.349l8.141-33.108z" fill="url(#linear-gradient-5)" data-original="url(#linear-gradient-5)"></path><path d="m185.677 175.39-8.14 33.108a74.844 74.844 0 0 0 8.963 35.439c1.721-7.336 6.942-19.107 22.6-28.616a175.852 175.852 0 0 1 1.151-45.724z" fill="#e78582" data-original="#e78582"></path><path d="m124.276 94.31-28.175 59.56 99.695-1.43-18.26-68.234z" fill="url(#linear-gradient-6)" data-original="url(#linear-gradient-6)"></path><path d="m175.475 258.542s-1.867 20.666 2.061 40.734l-24.225 12.579s-26.349 6.29-51.812-17.371l11.976-35.942z" fill="url(#linear-gradient-7)" data-original="url(#linear-gradient-7)"></path><path d="m182.4 241.854c-.519 4.359-.98 8.941-1.271 13.328a13.888 13.888 0 0 1 -3.726 8.533 92.09 92.09 0 0 1 -21.8 17.37q-.582.323-1.185.587l-6.106 1.164a14.061 14.061 0 0 1 -4.881-1.061c-1.944-.806-4.292-1.85-6.961-3.171 0 0-21.762-12.115-34.967-24.384l4.726-43.76s77.588 19.44 76.171 31.394z" fill="url(#radial-gradient)" data-original="url(#radial-gradient)"></path><path d="m101.5 254.22a148.662 148.662 0 0 0 34.97 24.38c7.709-21.769 8.93-43.565 8.766-56.794-19.348-6.418-39.01-11.346-39.01-11.346z" fill="url(#linear-gradient-8)" data-original="url(#linear-gradient-8)"></path><path d="m103.429 236.346c12.336 10.319 31.021 23.947 48.033 28.274 0 0 16.725-1.371 30.934-22.766 1.422-11.951 3.281-22.231 3.281-22.231l-79.452-9.163z" fill="url(#linear-gradient-9)" data-original="url(#linear-gradient-9)"></path><path d="m195.3 165.807 2.3 25.547a55.705 55.705 0 0 1 -8.6 28.079c-6.3 9.989-16.732 24.492-28.548 32.68a12.261 12.261 0 0 1 -11.276 1.3c-1.692-.632-3.688-1.45-5.915-2.488 0 0-45.8-27.689-57.039-75.04l10.815-12.359c49.438-9.656 98.263 2.281 98.263 2.281z" fill="url(#radial-gradient-2)" data-original="url(#radial-gradient-2)"></path><path d="m117.4 178.6 1.415-18.054a199.623 199.623 0 0 0 -21.779 2.976l-10.815 12.362c11.245 47.36 40.492 67.318 57.041 75.037a182.749 182.749 0 0 0 1.914-31.986 30.618 30.618 0 0 0 -6.685-18.212 199.12 199.12 0 0 0 -21.091-22.123z" fill="url(#linear-gradient-10)" data-original="url(#linear-gradient-10)"></path><path d="m178.356 162.7-1.975 6.9s4.248 22.715 21.21 21.757c0-.132.013-.264.016-.4a115.087 115.087 0 0 0 -2.311-25.151s-6.413-1.566-16.94-3.106z" fill="url(#linear-gradient-11)" data-original="url(#linear-gradient-11)"></path><path d="m144.47 134.317c-17.1 3.024-33.7 6.343-49.694 11.3l6.723 20.9s12.593 19.221 42.079 29.774a17.3 17.3 0 0 0 17.074-3.176 244.161 244.161 0 0 0 17.809-16.781c4.681-4.934 12.406-33.943 12.406-33.943a297.437 297.437 0 0 0 -46.397-8.074z" fill="url(#linear-gradient-12)" data-original="url(#linear-gradient-12)"></path><path d="m123.3 138.371c-9.7 2.04-19.218 4.362-28.527 7.247l6.723 20.9a61.25 61.25 0 0 0 9.01 10.04 41.791 41.791 0 0 0 3.347-22.688 20.111 20.111 0 0 0 9.447-15.499z" fill="url(#linear-gradient-13)" data-original="url(#linear-gradient-13)"></path><path d="m131.006 142.512a13.982 13.982 0 0 0 13.983 13.988 13.982 13.982 0 0 0 13.982-13.983v-11.59c-10.434 3.052-20.531 6.354-27.965 11.585z" fill="url(#linear-gradient-14)" data-original="url(#linear-gradient-14)"></path><path d="m131.006 142.392a49.787 49.787 0 0 0 27.965-11.47v-18.791l-27.965 6.369z" fill="#e78582" data-original="#e78582"></path><path d="m139.544 39.125s-33.4.745-28.075 54.633c0 0 7.238 24.064 27.316 34.468a9.315 9.315 0 0 0 9.174-.3 46.341 46.341 0 0 0 16.778-17.762c1.08-14.21-12.537-43.107-25.193-71.039z" fill="url(#linear-gradient-15)" data-original="url(#linear-gradient-15)"></path><path d="m155.126 96.274a29.377 29.377 0 0 1 9.674 13.756 44.388 44.388 0 0 0 4.818-20.636l-26.374-44.08-8.742 3.03s-3.502 29.273 20.624 47.93z" fill="#e78582" data-original="#e78582"></path><path d="m85.009 127.276s-29.334-.86-34.545 28.343a25.708 25.708 0 0 0 4.076 16.869 14.449 14.449 0 0 0 14.168 6.636 39.894 39.894 0 0 1 15.761.84c5.8 1.546 18.113-9.732 18.113-9.732a34.769 34.769 0 0 0 3.634-15.122z" fill="url(#radial-gradient-3)" data-original="url(#radial-gradient-3)"></path><path d="m68.708 179.124a39.894 39.894 0 0 1 15.761.84 14.448 14.448 0 0 0 15.555-5.51 32.328 32.328 0 0 0 2.553-4.224 103.863 103.863 0 0 0 -18.3-7.981 24.3 24.3 0 0 0 -19.53 2.083c-4.241 2.438-8.195 5.1-10.891 7 .221.385.439.771.687 1.159a14.449 14.449 0 0 0 14.165 6.633z" fill="url(#linear-gradient-16)" data-original="url(#linear-gradient-16)"></path><path d="m106.216 155.08a52.705 52.705 0 0 0 -3.066-17.98l-13.526-7.325-11.816-.488s3.974 25.602 28.408 25.793z" fill="url(#linear-gradient-17)" data-original="url(#linear-gradient-17)"></path><path d="m134.5 48.344s.958 23.675 27.762 42.491c7.9 5.545 12.416 14.868 12.815 24.511a40.927 40.927 0 0 0 1.973 11.254c5.951 17.751 32.155 15.167 34.35-3.426.027-.235.053-.472.077-.713a17.419 17.419 0 0 0 -.7-6.912 44.255 44.255 0 0 0 -9.435-16.285 27.735 27.735 0 0 1 -7.021-23.327c1.622-9.382 1.81-22.3-4.445-35.4 0 0-20.257-41.315-55.836-18.839 0 0-37.778-8.985-38.182 56.137a21.573 21.573 0 0 1 -7.974 16.631c-8.359 6.8-19.517 24.327-5.671 42.258 0 0 11.43 14.856 26.605 6.234 7.8-4.435 13.3-16.568 13.448-25.544.1-6.04-1.981-14.054-5.273-25-2.816-9.364-1.467-34.044 17.507-44.07z" fill="url(#linear-gradient-18)" data-original="url(#linear-gradient-18)"></path><path d="m185.179 294.035a5.114 5.114 0 0 0 -7.82-1.493c-5.693 4.83-14.507 14.359-31.442 14.359-19.008 0-32.615-9.51-40.049-14.3a5.314 5.314 0 0 0 -7.35 1.568l-3.518 5.431a5.685 5.685 0 0 0 1.23 7.556c6.993 5.508 23.422 15.683 49.35 15.683 22.158 0 34.615-9.429 40.3-15.437a8.35 8.35 0 0 0 1.268-9.679z" fill="url(#linear-gradient-19)" data-original="url(#linear-gradient-19)"></path><path d="m162.223 317.989a108.271 108.271 0 0 0 -1.125-10.822 5.523 5.523 0 0 0 -6.071-4.642 166.78 166.78 0 0 1 -18.287.933 5.518 5.518 0 0 0 -5.59 4.987 62.764 62.764 0 0 0 -.052 10.836 5.477 5.477 0 0 0 4.417 4.891 59.779 59.779 0 0 0 22.462-.533 5.488 5.488 0 0 0 4.246-5.65z" fill="url(#linear-gradient-20)" data-original="url(#linear-gradient-20)"></path><path d="m132.632 211.173c-5.494-7.768-19.937-24.5-50.478-39.674a18.211 18.211 0 0 0 -16.2 0c-30.541 15.175-44.984 31.906-50.478 39.674a16.116 16.116 0 0 0 -2.931 8.974c-1.411 70.19 36.3 93.264 53.349 100.1a21.963 21.963 0 0 0 16.323 0c17.05-6.831 54.76-29.905 53.349-100.1a16.108 16.108 0 0 0 -2.934-8.974z" fill="url(#radial-gradient-4)" data-original="url(#radial-gradient-4)"></path><path d="m212.793 234.587s-15.933 10.782-19.03 38.437a8.623 8.623 0 0 0 4.8 8.771c9.81 4.713 32.9 13.671 65.263 12.8l6.571-25.95s-39.46-5.754-57.604-34.058z" fill="url(#radial-gradient-5)" data-original="url(#radial-gradient-5)"></path><path d="m132.839 92.294a2.915 2.915 0 0 1 -.515-.045 24.334 24.334 0 0 0 -3.25-.318 2.953 2.953 0 0 1 .2-5.9 30.114 30.114 0 0 1 4.071.4 2.953 2.953 0 0 1 -.508 5.861z" fill="#e78582" data-original="#e78582"></path><path d="m146.569 93.187a2.953 2.953 0 0 1 -.911-5.762 27.409 27.409 0 0 1 3.9-.932 2.953 2.953 0 0 1 .978 5.824 21.616 21.616 0 0 0 -3.053.724 2.933 2.933 0 0 1 -.914.146z" fill="#e78582" data-original="#e78582"></path><path d="m263.827 294.594 6.571-25.95a96.02 96.02 0 0 1 -14.475-3.644c-3.548 8-13.315 22.605-37.613 24.122a153.082 153.082 0 0 0 45.517 5.472z" fill="url(#linear-gradient-21)" data-original="url(#linear-gradient-21)"></path><path d="m263.845 269.888-3.771 21.967a6.031 6.031 0 0 0 5.03 6.982l12.928 1.982a7.8 7.8 0 0 0 8.8-6.034l4.249-19.259a8.954 8.954 0 0 0 -6.766-10.676 54.769 54.769 0 0 0 -13.088-1.294 7.641 7.641 0 0 0 -7.382 6.332z" fill="url(#linear-gradient-22)" data-original="url(#linear-gradient-22)"></path><path d="m178.459 176.333a109.99 109.99 0 0 0 12.392-15.247l.016-18.694c-4.133-1.1-8.239-2.06-12.317-2.92-10.235 11.128-.108 36.819-.091 36.861z" fill="url(#linear-gradient-23)" data-original="url(#linear-gradient-23)"></path><path d="m215.809 127a31.71 31.71 0 0 0 -22.9 3.731c-6.025 3.565-12.336 9.741-12.009 19.9 0 0-.3 14.7 9.834 25.061a9.952 9.952 0 0 0 11.592 1.813 53.867 53.867 0 0 1 20.674-5.763 10.113 10.113 0 0 0 9.472-8.344c1.977-11.812 2.428-32.184-16.663-36.398z" fill="url(#radial-gradient-6)" data-original="url(#radial-gradient-6)"></path><path d="m135.456 218.649a16.063 16.063 0 0 0 -2.474-6.938c-4.512 4.267-14.348 10.472-22.679 13.458-3.618-4.921-12.2-14.427-29.314-23.288a15.112 15.112 0 0 0 -13.873 0c-17.964 9.3-26.525 19.31-29.815 23.984-7.464-2.365-17.041-8.565-22.93-12.865a16.178 16.178 0 0 0 -1.829 7.152v.011c6.346 4.488 15.249 10 22.957 12.368-.465 42.875 22.592 57.208 33.264 61.539a14.053 14.053 0 0 0 1.844.588v26.868a22 22 0 0 0 6.891 0v-26.873a14.053 14.053 0 0 0 1.844-.588c10.742-4.359 34.023-18.866 33.242-62.4a85.166 85.166 0 0 0 22.872-13.016z" fill="url(#radial-gradient-7)" data-original="url(#radial-gradient-7)"></path><path d="m325.528 22.81a3.437 3.437 0 0 0 -3.306.605c-.792.654-19.5 16.559-29.054 62.887-.574 2.428-18.263 77.841-24.438 159.351l-11.819 1.22a9.993 9.993 0 0 0 -8.724 7.737l-2.555 11.269a3.445 3.445 0 0 0 2.778 4.158l11.574 1.983-3.284 19.157c-27.562-.5-47.19-7.948-56.639-12.487a5.2 5.2 0 0 1 -2.869-5.283c2.141-19.126 10.568-29.539 14.921-33.741a73.578 73.578 0 0 0 23.219 20.044 3.445 3.445 0 1 0 3.411-5.987c-9.85-5.61-17.5-12.533-22.768-20.58-6.053-21.826-4.469-45.509-3.281-56.066a46.707 46.707 0 0 1 10.517-1.9 13.509 13.509 0 0 0 12.664-11.213c3.7-22.1-3.344-36.8-19.319-40.329q-.847-.187-1.7-.33c.019-.167.038-.333.055-.506a20.715 20.715 0 0 0 -.841-8.282 47.476 47.476 0 0 0 -10.171-17.568 24.161 24.161 0 0 1 -6.175-20.424c1.594-9.231 2.069-23.223-4.747-37.5-.417-.851-10.431-20.9-29.177-26.2-9.8-2.775-20.035-1-30.453 5.262a30.679 30.679 0 0 0 -22.863 6.3c-11.824 9.282-17.9 27.259-18.064 53.43a18.1 18.1 0 0 1 -6.7 13.979c-8.056 6.55-15.993 19.588-12.679 33.841-9.366 2.774-22.52 10.09-25.963 29.383a27.722 27.722 0 0 0 1.176 12.084 3.445 3.445 0 1 0 6.569-2.078 21.3 21.3 0 0 1 -.96-8.809c2.742-15.366 12.725-21.605 21.477-24.079a37.474 37.474 0 0 0 4.151 6.69c3.306 4.3 10.663 10.254 19.782 10.253a21.036 21.036 0 0 0 3.148-.248 33.953 33.953 0 0 1 -2.3 18.551l-.011.025a29.053 29.053 0 0 1 -2.885 5.034 10.938 10.938 0 0 1 -2.043 2.153c-3.561-2.075-7.381-4.146-11.492-6.188a21.772 21.772 0 0 0 -19.269 0c-30.753 15.28-45.628 32.1-51.757 40.77a19.46 19.46 0 0 0 -3.564 10.899c-1.46 72.63 38.334 96.48 55.511 103.363a25.281 25.281 0 0 0 18.887 0 78.985 78.985 0 0 0 16.754-9.294 82.1 82.1 0 0 0 29.977 10.921 8.959 8.959 0 0 0 4.622 2.486 52.814 52.814 0 0 0 10.05.888 65.067 65.067 0 0 0 13.845-1.441 8.892 8.892 0 0 0 4.836-2.958 52.179 52.179 0 0 0 24.8-14.269 11.777 11.777 0 0 0 1.8-13.672l-1.972-3.688a8.563 8.563 0 0 0 -8.871-4.426 169.3 169.3 0 0 1 -.839-20.44c.493-.508.969-1.007 1.412-1.482a17.388 17.388 0 0 0 4.642-10.653c.15-2.253.346-4.56.572-6.865a83.992 83.992 0 0 0 7.794 11.114 75.64 75.64 0 0 0 -2.588 12.981 12.1 12.1 0 0 0 6.734 12.261c10.138 4.87 31.4 12.952 61.044 13.186.072.109.136.221.212.327a9.556 9.556 0 0 0 1.63 1.738l-1.987 11.807a8.362 8.362 0 0 0 6.454 9.559l5.949 1.308a8.435 8.435 0 0 0 1.815.2 8.376 8.376 0 0 0 8.194-6.771l2.432-12.5a11.267 11.267 0 0 0 7.385-8.223l3.895-17.659 12.911 2.205a3.446 3.446 0 0 0 3.987-2.868l1.47-9.49a10.046 10.046 0 0 0 -4.982-10.249l-10.263-5.77c5.944-24.431 23.608-99.312 31.2-156.406.246-1.656 5.964-40.883-.631-69.988a3.444 3.444 0 0 0 -2.253-2.499zm-110.461 107.556c15.5 3.419 16.169 19.541 14.008 32.464a6.655 6.655 0 0 1 -6.28 5.473 57.371 57.371 0 0 0 -22.025 6.129 6.546 6.546 0 0 1 -7.576-1.146c-8.954-9.155-8.855-22.457-8.853-22.582 0-.061 0-.121 0-.182-.225-6.978 3.247-12.639 10.32-16.824a28.292 28.292 0 0 1 14.421-3.985 27.765 27.765 0 0 1 5.985.653zm-130.126 4.262c-12.5-16.191-2.119-31.6 5.118-37.479a24.966 24.966 0 0 0 9.241-19.283c.146-23.544 5.446-40.132 15.326-47.973a23.452 23.452 0 0 1 18.615-4.835 3.437 3.437 0 0 0 2.636-.439c9.076-5.733 17.825-7.471 26-5.169 15.775 4.44 24.814 22.435 24.886 22.58 6.019 12.607 5.584 25.08 4.159 33.324a31.006 31.006 0 0 0 7.866 26.231 40.553 40.553 0 0 1 8.7 15 13.865 13.865 0 0 1 .558 5.537c-.022.219-.045.435-.07.65 0 .025-.009.049-.012.074a35.176 35.176 0 0 0 -16.815 4.921 33.422 33.422 0 0 0 -6.077 4.546 14.041 14.041 0 0 1 -4.758-6.806 37.3 37.3 0 0 1 -1.793-10.3c-.46-11.07-5.8-21.234-14.279-27.187-24.95-17.516-26.256-38.922-26.3-39.812 0-.019 0-.037-.006-.056s0-.02 0-.03a21.231 21.231 0 0 1 .936-6.928 3.445 3.445 0 0 0 -6.557-2.115 27.924 27.924 0 0 0 -1.256 7.261c-18.576 11.286-20.589 36.345-17.359 47.07 3.316 11.034 5.219 18.491 5.127 23.955-.126 7.619-4.965 18.777-11.7 22.607-12.339 7.006-21.793-4.84-22.186-5.344zm24.128 12.1q.723-.354 1.452-.767a20.485 20.485 0 0 0 2.582-1.778c4.487-1.081 9.251-2.128 14.458-3.183v1.511a17.428 17.428 0 0 0 34.856 0v-2.461c5.576.852 10.863 1.817 16.014 2.916a24.432 24.432 0 0 0 -.98 7.7 43.74 43.74 0 0 0 3.915 17.3c-7.987 9.549-16.589 18.029-22.7 22.342a16.265 16.265 0 0 1 -14.275 2.642c-15.227-3.688-32.09-19.819-37.118-24.911a42.279 42.279 0 0 0 1.796-21.31zm37.086-21.741a5.911 5.911 0 0 1 -5.785.18 46.5 46.5 0 0 1 -14.959-12.731c-.679-5.5-2.473-12.21-5.118-21.011-2.2-7.329-1.473-27.028 11.623-37.313 1.929 8.578 8.182 25.37 28.371 39.542a25.058 25.058 0 0 1 4.987 4.671c-3.035 14.784-13.223 23.036-19.119 26.663zm23.826-18.187a30.224 30.224 0 0 1 1.659 8.69 44.129 44.129 0 0 0 2.144 12.209 21.242 21.242 0 0 0 5.053 8.313c-5.277-1.1-10.7-2.072-16.42-2.928v-13.208a46.088 46.088 0 0 0 7.564-13.076zm-14.454 19.936v15.777a10.538 10.538 0 1 1 -21.076 0v-12.786c.9.55 1.818 1.076 2.749 1.558a12.857 12.857 0 0 0 5.915 1.437 12.694 12.694 0 0 0 6.649-1.865 52.343 52.343 0 0 0 5.763-4.122zm-27.966-2.066v9.3c-2.49.5-4.88.993-7.186 1.49a41.848 41.848 0 0 0 4.8-13q1.173 1.148 2.386 2.209zm-46.628 192.374a18.418 18.418 0 0 1 -13.761 0c-15.848-6.35-52.56-28.5-51.186-96.828a12.609 12.609 0 0 1 2.3-7.054c5.755-8.138 19.8-23.971 49.2-38.578a14.839 14.839 0 0 1 13.137 0c29.4 14.608 43.444 30.441 49.2 38.578a12.609 12.609 0 0 1 2.3 7.054c1.37 68.332-35.342 90.478-51.19 96.828zm46.786-8.911a66.657 66.657 0 0 0 -.174 9.435 75.044 75.044 0 0 1 -21.513-8.011 83.741 83.741 0 0 0 7.97-7.928 74.183 74.183 0 0 0 13.8 5.932c-.032.19-.065.378-.083.572zm29.489 12.149a56.741 56.741 0 0 1 -21.026.51 2.028 2.028 0 0 1 -1.65-1.793 59.6 59.6 0 0 1 .049-10.243 2.08 2.08 0 0 1 2.087-1.853h.027a169.581 169.581 0 0 0 18.723-.955 2.076 2.076 0 0 1 2.282 1.752 104.387 104.387 0 0 1 1.088 10.474 2.035 2.035 0 0 1 -1.58 2.108zm3.244-19.841a8.914 8.914 0 0 0 -5.816-1.339 162.2 162.2 0 0 1 -17.853.912h-.115a8.955 8.955 0 0 0 -4.964 1.511 64.906 64.906 0 0 1 -13.29-5.347 92.725 92.725 0 0 0 10.317-17.765 128 128 0 0 0 13.377 6.545 17.369 17.369 0 0 0 15.165-.861 87.96 87.96 0 0 0 14.343-10.073 164.505 164.505 0 0 0 1.25 17.871 48.467 48.467 0 0 1 -12.414 8.546zm19.136-5.271a1.667 1.667 0 0 1 2.553.49l1.973 3.689a4.9 4.9 0 0 1 -.732 5.685 44.253 44.253 0 0 1 -17.823 11.208c-.226-3.32-.575-6.55-1.058-9.612-.023-.143-.059-.279-.088-.419a57.961 57.961 0 0 0 13.344-9.443c.643-.568 1.255-1.11 1.831-1.598zm-1.9-40.216a10.486 10.486 0 0 1 -2.811 6.414 89.348 89.348 0 0 1 -20.951 16.706 10.515 10.515 0 0 1 -9.179.518 122.111 122.111 0 0 1 -13.411-6.623 119.8 119.8 0 0 0 5.429-20.469 89.912 89.912 0 0 0 11.206 5.139 16.129 16.129 0 0 0 5.649 1.027 15.42 15.42 0 0 0 8.794-2.721 87.943 87.943 0 0 0 16.886-16.115c-.661 5.194-1.26 10.795-1.613 16.124zm-19.2-5.672a8.811 8.811 0 0 1 -8.106.9 84.631 84.631 0 0 1 -12.531-5.978 169.738 169.738 0 0 0 1.156-24.13 19.471 19.471 0 0 0 -3.561-10.893c-4.821-6.817-15.057-18.68-34.171-30.869a18.009 18.009 0 0 0 1.551-1.855c.416-.581.832-1.215 1.244-1.877 6.854 6.729 23.072 21.273 38.7 25.058a26.726 26.726 0 0 0 6.293.788 23.036 23.036 0 0 0 13.579-4.5c6.244-4.407 14.448-12.356 22.409-21.655a34.167 34.167 0 0 0 3.221 3.828 13.108 13.108 0 0 0 5.66 3.409c.215 3.21.3 6.356.234 9.369a52.265 52.265 0 0 1 -8.079 26.714c-6.422 10.184-16.42 23.945-27.599 31.691zm37.2 2.737a76.738 76.738 0 0 1 -9.088-15.869c.419-3.08.843-5.943 1.227-8.406.014-.095.008-.187.015-.28 1.476-2.151 2.84-4.236 4.074-6.193a59.142 59.142 0 0 0 9.139-30.237c.066-3.016 0-6.15-.2-9.342a13.855 13.855 0 0 0 3.026-1.108c.5-.253 1.039-.513 1.6-.775-1.225 13.027-1.784 33.6 3.4 53.5a52.332 52.332 0 0 0 -13.197 18.71zm77.937 62.917a1.478 1.478 0 0 1 -1.767 1.16l-5.948-1.307a1.479 1.479 0 0 1 -1.14-1.688l1.778-10.558 9.213 1.412zm14.1-40.152-4.249 19.26a4.363 4.363 0 0 1 -4.918 3.37l-12.928-1.982a2.588 2.588 0 0 1 -2.157-2.994l3.771-21.967a4.2 4.2 0 0 1 4.056-3.471 51.227 51.227 0 0 1 12.263 1.212 5.515 5.515 0 0 1 4.158 6.572zm16.375-11.305a3.123 3.123 0 0 1 1.549 3.187l-.934 6.031-10.271-1.76a12.391 12.391 0 0 0 -9.367-9.449 57.8 57.8 0 0 0 -13.913-1.376 11.115 11.115 0 0 0 -9.2 5.256l-8.8-1.509 1.753-7.726a3.106 3.106 0 0 1 2.712-2.406l24.609-2.542zm17.49-169.144c-7.37 55.42-24.293 127.754-30.615 153.861l-6.319-3.553a3.453 3.453 0 0 0 -2.042-.423l-6.915.714c6.288-81.4 24.009-156.33 24.189-157.088.009-.034.016-.069.023-.1 6.244-30.306 16.6-46.9 22.407-54.266 4.195 27.02-.672 60.444-.733 60.855z" fill="url(#linear-gradient-24)" data-original="url(#linear-gradient-24)" class=""></path><path d="m115.582 226.513c-.307-.612-7.821-15.156-33.009-28.2a18.565 18.565 0 0 0 -17.041 0c-25.188 13.04-32.7 27.584-33.009 28.2a3.451 3.451 0 0 0 -.363 1.4 103.454 103.454 0 0 0 1.868 25.687 3.445 3.445 0 0 0 6.742-1.424 95.825 95.825 0 0 1 -1.759-23.145c1.63-2.683 9.448-14.119 29.689-24.6a11.653 11.653 0 0 1 10.7 0c20.262 10.49 28.075 21.939 29.689 24.6 1.572 43.33-21.154 57.322-31.048 61.336a10.564 10.564 0 0 1 -7.988 0 45.106 45.106 0 0 1 -15.408-10.527 3.445 3.445 0 0 0 -4.965 4.777 52.056 52.056 0 0 0 17.787 12.136 17.417 17.417 0 0 0 13.171 0c11.309-4.589 37.389-20.482 35.307-68.843a3.451 3.451 0 0 0 -.363-1.397z" fill="url(#linear-gradient-25)" data-original="url(#linear-gradient-25)"></path><path d="m45.083 265.561a3.445 3.445 0 0 0 -6.277 2.843q.384.846.782 1.66a3.445 3.445 0 1 0 6.19-3.026q-.354-.724-.695-1.477z" fill="url(#linear-gradient-26)" data-original="url(#linear-gradient-26)"></path></g></svg>