<svg xmlns="http://www.w3.org/2000/svg" version="1.1" xmlns:xlink="http://www.w3.org/1999/xlink" xmlns:svgjs="http://svgjs.com/svgjs" width="512" height="512" x="0" y="0" viewBox="0 0 682.66669 682.66669" style="enable-background:new 0 0 512 512" xml:space="preserve" class=""><g><defs id="defs7027"><clipPath clipPathUnits="userSpaceOnUse" id="clipPath7037"><path d="M 0,512 H 512 V 0 H 0 Z" id="path7035" fill="#000000" data-original="#000000"></path></clipPath></defs><g id="g7029" transform="matrix(1.3333333,0,0,-1.3333333,0,682.66667)"><g id="g7031"><g id="g7033" clip-path="url(#clipPath7037)"><g id="g7039" transform="translate(315.9092,255.9189)"><path d="M 0,0 63.052,95.963 108.733,65.947 45.682,-30.016 c -1.634,-2.487 -3.942,-4.459 -6.654,-5.685 L 19.237,-44.653 C 8.738,-49.402 -3.13,-41.604 -2.938,-30.082 l 0.36,21.719 C -2.528,-5.388 -1.635,-2.487 0,0" style="fill-opacity:1;fill-rule:nonzero;stroke:none" id="path7041" fill="#8c818f" data-original="#8c818f"></path></g><g id="g7043" transform="translate(363.3994,328.1982)"><path d="M 0,0 45.683,-30.016 61.243,-6.332 15.562,23.684 Z" style="fill-opacity:1;fill-rule:nonzero;stroke:none" id="path7045" fill="#766d78" data-original="#766d78"></path></g><g id="g7047" transform="translate(315.9092,255.9189)"><path d="M 0,0 63.052,95.963 108.733,65.947 45.682,-30.016 c -1.634,-2.487 -3.942,-4.459 -6.654,-5.685 L 19.237,-44.653 C 8.738,-49.402 -3.13,-41.604 -2.938,-30.082 l 0.36,21.719 C -2.528,-5.388 -1.635,-2.487 0,0 Z" style="stroke:#000000;stroke-width:15;stroke-linecap:round;stroke-linejoin:round;stroke-miterlimit:10;stroke-dasharray:none;stroke-opacity:1" id="path7049" fill="none" stroke="#000000" stroke-width="15" stroke-linecap="round" stroke-linejoin="round" stroke-miterlimit="10" stroke-dasharray="none" stroke-opacity="" data-original="#000000"></path></g><g id="g7051" transform="translate(404.3857,373.9873)"><path d="M 0,0 49.97,76.053 80.425,56.042 30.455,-20.011 Z" style="fill-opacity:1;fill-rule:nonzero;stroke:none" id="path7053" fill="#c77e67" data-original="#c77e67"></path></g><g id="g7055" transform="translate(404.3857,373.9873)"><path d="M 0,0 49.97,76.053 80.425,56.042 30.455,-20.011 Z" style="stroke:#000000;stroke-width:15;stroke-linecap:round;stroke-linejoin:round;stroke-miterlimit:10;stroke-dasharray:none;stroke-opacity:1" id="path7057" fill="none" stroke="#000000" stroke-width="15" stroke-linecap="round" stroke-linejoin="round" stroke-miterlimit="10" stroke-dasharray="none" stroke-opacity="" data-original="#000000"></path></g><g id="g7059" transform="translate(372.7842,385.6162)"><path d="m 0,0 -9.427,-14.348 c -2.315,-3.523 -1.336,-8.257 2.189,-10.572 l 72.511,-47.644 c 3.525,-2.316 8.258,-1.336 10.574,2.188 l 9.426,14.347 c 2.316,3.524 1.336,8.258 -2.188,10.573 L 10.573,2.188 C 7.049,4.503 2.315,3.523 0,0" style="fill-opacity:1;fill-rule:nonzero;stroke:none" id="path7061" fill="#eec06b" data-original="#eec06b"></path></g><g id="g7063" transform="translate(372.7842,385.6162)"><path d="m 0,0 -9.427,-14.348 c -2.315,-3.523 -1.336,-8.257 2.189,-10.572 l 72.511,-47.644 c 3.525,-2.316 8.258,-1.336 10.574,2.188 l 9.426,14.347 c 2.316,3.524 1.336,8.258 -2.188,10.573 L 10.573,2.188 C 7.049,4.503 2.315,3.523 0,0 Z" style="stroke:#000000;stroke-width:15;stroke-linecap:round;stroke-linejoin:round;stroke-miterlimit:10;stroke-dasharray:none;stroke-opacity:1" id="path7065" fill="none" stroke="#000000" stroke-width="15" stroke-linecap="round" stroke-linejoin="round" stroke-miterlimit="10" stroke-dasharray="none" stroke-opacity="" data-original="#000000"></path></g><g id="g7067" transform="translate(453.8379,416.0703)"><path d="M 0,0 C -12.615,8.288 -16.122,25.234 -7.834,37.849 0.455,50.464 17.4,53.971 30.015,45.683 42.63,37.394 46.137,20.448 37.849,7.833 29.56,-4.781 12.614,-8.288 0,0" style="fill-opacity:1;fill-rule:nonzero;stroke:none" id="path7069" fill="#eec06b" data-original="#eec06b"></path></g><g id="g7071" transform="translate(453.8379,416.0703)"><path d="M 0,0 C -12.615,8.288 -16.122,25.234 -7.834,37.849 0.455,50.464 17.4,53.971 30.015,45.683 42.63,37.394 46.137,20.448 37.849,7.833 29.56,-4.781 12.614,-8.288 0,0 Z" style="stroke:#000000;stroke-width:15;stroke-linecap:round;stroke-linejoin:round;stroke-miterlimit:10;stroke-dasharray:none;stroke-opacity:1" id="path7073" fill="none" stroke="#000000" stroke-width="15" stroke-linecap="round" stroke-linejoin="round" stroke-miterlimit="10" stroke-dasharray="none" stroke-opacity="" data-original="#000000"></path></g><g id="g7075" transform="translate(260.0684,223.0293)"><path d="m 0,0 c 48.749,0 88.269,39.519 88.269,88.268 v 36.821 c 0,48.749 -39.52,88.267 -88.269,88.267 -48.749,0 -88.268,-39.518 -88.268,-88.267 V 88.268 C -88.268,39.519 -48.749,0 0,0" style="fill-opacity:1;fill-rule:nonzero;stroke:none" id="path7077" fill="#80b6fc" data-original="#80b6fc"></path></g><g id="g7079" transform="translate(260.0684,436.3857)"><path d="m 0,0 c -5.709,0 -11.29,-0.549 -16.698,-1.584 40.763,-7.807 71.57,-43.645 71.57,-86.684 v -36.821 c 0,-43.039 -30.807,-78.877 -71.57,-86.683 5.408,-1.036 10.989,-1.584 16.698,-1.584 48.749,0 88.269,39.518 88.269,88.267 v 36.821 C 88.269,-39.519 48.749,0 0,0" style="fill-opacity:1;fill-rule:nonzero;stroke:none" id="path7081" fill="#62a4fb" data-original="#62a4fb"></path></g><g id="g7083" transform="translate(283.7256,433.1797)"><path d="m 0,0 c -7.528,2.09 -15.462,3.206 -23.657,3.206 -48.749,0 -88.268,-39.519 -88.268,-88.268 v -36.821 c 0,-48.749 39.519,-88.267 88.268,-88.267 48.749,0 88.268,39.518 88.268,88.267 v 36.821 c 0,27.653 -12.715,52.334 -32.619,68.519" style="stroke:#000000;stroke-width:15;stroke-linecap:round;stroke-linejoin:round;stroke-miterlimit:10;stroke-dasharray:none;stroke-opacity:1" id="path7085" fill="none" stroke="#000000" stroke-width="15" stroke-linecap="round" stroke-linejoin="round" stroke-miterlimit="10" stroke-dasharray="none" stroke-opacity="" data-original="#000000"></path></g><g id="g7087" transform="translate(295.3359,341.9355)"><path d="m 0,0 c 0,-16.994 -13.776,-30.771 -30.771,-30.771 h -78.716 c -7.708,0 -13.964,6.237 -13.988,13.946 -0.033,10.47 -0.036,25.389 0.012,26.571 0.475,11.759 10.197,21.025 21.965,21.025 h 70.727 C -13.776,30.771 0,16.994 0,0" style="fill-opacity:1;fill-rule:nonzero;stroke:none" id="path7089" fill="#ffcdbe" data-original="#ffcdbe"></path></g><g id="g7091" transform="translate(295.3359,341.9355)"><path d="m 0,0 c 0,-16.994 -13.776,-30.771 -30.771,-30.771 h -78.716 c -7.708,0 -13.964,6.237 -13.988,13.946 -0.033,10.47 -0.036,25.389 0.012,26.571 0.475,11.759 10.197,21.025 21.965,21.025 h 70.727 C -13.776,30.771 0,16.994 0,0 Z" style="stroke:#000000;stroke-width:15;stroke-linecap:round;stroke-linejoin:round;stroke-miterlimit:10;stroke-dasharray:none;stroke-opacity:1" id="path7093" fill="none" stroke="#000000" stroke-width="15" stroke-linecap="round" stroke-linejoin="round" stroke-miterlimit="10" stroke-dasharray="none" stroke-opacity="" data-original="#000000"></path></g><g id="g7095" transform="translate(241.5396,343.667)"><path d="M 0,0 V -3.463" style="stroke:#000000;stroke-width:15;stroke-linecap:round;stroke-linejoin:round;stroke-miterlimit:10;stroke-dasharray:none;stroke-opacity:1" id="path7097" fill="none" stroke="#000000" stroke-width="15" stroke-linecap="round" stroke-linejoin="round" stroke-miterlimit="10" stroke-dasharray="none" stroke-opacity="" data-original="#000000"></path></g><g id="g7099" transform="translate(198.3257,343.667)"><path d="M 0,0 V -3.463" style="stroke:#000000;stroke-width:15;stroke-linecap:round;stroke-linejoin:round;stroke-miterlimit:10;stroke-dasharray:none;stroke-opacity:1" id="path7101" fill="none" stroke="#000000" stroke-width="15" stroke-linecap="round" stroke-linejoin="round" stroke-miterlimit="10" stroke-dasharray="none" stroke-opacity="" data-original="#000000"></path></g><g id="g7103" transform="translate(28.1011,187.0557)"><path d="m 0,0 v -135.662 c 0,-3.114 2.524,-5.639 5.639,-5.639 h 435.71 c 3.114,0 5.639,2.525 5.639,5.639 V 0 Z" style="fill-opacity:1;fill-rule:nonzero;stroke:none" id="path7105" fill="#c77e67" data-original="#c77e67"></path></g><g id="g7107" transform="translate(28.1011,187.0557)"><path d="m 0,0 v -38.976 h 390.325 c 10.978,0 19.878,-8.899 19.878,-19.878 v -76.808 c 0,-3.114 -2.525,-5.639 -5.639,-5.639 h 36.785 c 3.114,0 5.639,2.525 5.639,6.767 l 0,134.534 z" style="fill-opacity:1;fill-rule:nonzero;stroke:none" id="path7109" fill="#be694e" data-original="#be694e"></path></g><g id="g7111" transform="translate(241.623,45.7549)"><path d="m 0,0 h 227.827 c 3.114,0 5.639,2.524 5.639,5.639 v 135.662" style="stroke:#000000;stroke-width:15;stroke-linecap:round;stroke-linejoin:round;stroke-miterlimit:10;stroke-dasharray:none;stroke-opacity:1" id="path7113" fill="none" stroke="#000000" stroke-width="15" stroke-linecap="round" stroke-linejoin="round" stroke-miterlimit="10" stroke-dasharray="none" stroke-opacity="" data-original="#000000"></path></g><g id="g7115" transform="translate(28.1011,187.0557)"><path d="m 0,0 v -135.662 c 0,-3.114 2.524,-5.639 5.639,-5.639 h 172.883" style="stroke:#000000;stroke-width:15;stroke-linecap:round;stroke-linejoin:round;stroke-miterlimit:10;stroke-dasharray:none;stroke-opacity:1" id="path7117" fill="none" stroke="#000000" stroke-width="15" stroke-linecap="round" stroke-linejoin="round" stroke-miterlimit="10" stroke-dasharray="none" stroke-opacity="" data-original="#000000"></path></g><g id="g7119" transform="translate(20.1401,246.1338)"><path d="m 0,0 h 471.719 c 6.982,0 12.641,-5.659 12.641,-12.641 v -33.797 c 0,-6.98 -5.659,-12.64 -12.641,-12.64 L 0,-59.078 c -6.981,0 -12.64,5.66 -12.64,12.64 v 33.797 C -12.64,-5.659 -6.981,0 0,0" style="fill-opacity:1;fill-rule:nonzero;stroke:none" id="path7121" fill="#e2bcb0" data-original="#e2bcb0"></path></g><g id="g7123" transform="translate(20.1401,246.1338)"><path d="m 0,0 h 471.719 c 6.982,0 12.641,-5.659 12.641,-12.641 v -33.797 c 0,-6.98 -5.659,-12.64 -12.641,-12.64 L 0,-59.078 c -6.981,0 -12.64,5.66 -12.64,12.64 v 33.797 C -12.64,-5.659 -6.981,0 0,0 Z" style="stroke:#000000;stroke-width:15;stroke-linecap:round;stroke-linejoin:round;stroke-miterlimit:10;stroke-dasharray:none;stroke-opacity:1" id="path7125" fill="none" stroke="#000000" stroke-width="15" stroke-linecap="round" stroke-linejoin="round" stroke-miterlimit="10" stroke-dasharray="none" stroke-opacity="" data-original="#000000"></path></g><g id="g7127" transform="translate(387.7832,226.9912)"><path d="M 0,0 H 30.141 V 47.263 H 0 c -9.456,0 -17.121,-7.666 -17.121,-17.122 V 17.121 C -17.121,7.665 -9.456,0 0,0" style="fill-opacity:1;fill-rule:nonzero;stroke:none" id="path7129" fill="#62a4fb" data-original="#62a4fb"></path></g><g id="g7131" transform="translate(387.7832,226.9912)"><path d="M 0,0 H 30.141 V 47.263 H 0 c -9.456,0 -17.121,-7.666 -17.121,-17.122 V 17.121 C -17.121,7.665 -9.456,0 0,0 Z" style="stroke:#000000;stroke-width:15;stroke-linecap:round;stroke-linejoin:round;stroke-miterlimit:10;stroke-dasharray:none;stroke-opacity:1" id="path7133" fill="none" stroke="#000000" stroke-width="15" stroke-linecap="round" stroke-linejoin="round" stroke-miterlimit="10" stroke-dasharray="none" stroke-opacity="" data-original="#000000"></path></g><g id="g7135" transform="translate(455.709,217.7119)"><path d="m 0,0 h -20.683 c -18.646,0 -33.761,15.115 -33.761,33.762 v 8.873 c 0,11.594 9.398,20.992 20.991,20.992 h 46.224 c 11.593,0 20.992,-9.398 20.992,-20.992 V 33.762 C 33.763,15.115 18.646,0 0,0" style="fill-opacity:1;fill-rule:nonzero;stroke:none" id="path7137" fill="#80b6fc" data-original="#80b6fc"></path></g><g id="g7139" transform="translate(455.709,217.7119)"><path d="m 0,0 h -20.683 c -18.646,0 -33.761,15.115 -33.761,33.762 v 8.873 c 0,11.594 9.398,20.992 20.991,20.992 h 46.224 c 11.593,0 20.992,-9.398 20.992,-20.992 V 33.762 C 33.763,15.115 18.646,0 0,0 Z" style="stroke:#000000;stroke-width:15;stroke-linecap:round;stroke-linejoin:round;stroke-miterlimit:10;stroke-dasharray:none;stroke-opacity:1" id="path7141" fill="none" stroke="#000000" stroke-width="15" stroke-linecap="round" stroke-linejoin="round" stroke-miterlimit="10" stroke-dasharray="none" stroke-opacity="" data-original="#000000"></path></g><g id="g7143" transform="translate(124.2173,226.9912)"><path d="M 0,0 H -30.142 V 47.263 H 0 c 9.456,0 17.121,-7.666 17.121,-17.122 V 17.121 C 17.121,7.665 9.456,0 0,0" style="fill-opacity:1;fill-rule:nonzero;stroke:none" id="path7145" fill="#62a4fb" data-original="#62a4fb"></path></g><g id="g7147" transform="translate(124.2173,226.9912)"><path d="M 0,0 H -30.142 V 47.263 H 0 c 9.456,0 17.121,-7.666 17.121,-17.122 V 17.121 C 17.121,7.665 9.456,0 0,0 Z" style="stroke:#000000;stroke-width:15;stroke-linecap:round;stroke-linejoin:round;stroke-miterlimit:10;stroke-dasharray:none;stroke-opacity:1" id="path7149" fill="none" stroke="#000000" stroke-width="15" stroke-linecap="round" stroke-linejoin="round" stroke-miterlimit="10" stroke-dasharray="none" stroke-opacity="" data-original="#000000"></path></g><g id="g7151" transform="translate(56.291,217.7119)"><path d="m 0,0 h 20.682 c 18.647,0 33.763,15.115 33.763,33.762 v 8.873 c 0,11.594 -9.399,20.992 -20.992,20.992 h -46.224 c -11.593,0 -20.992,-9.398 -20.992,-20.992 V 33.762 C -33.763,15.115 -18.646,0 0,0" style="fill-opacity:1;fill-rule:nonzero;stroke:none" id="path7153" fill="#80b6fc" data-original="#80b6fc"></path></g><g id="g7155" transform="translate(56.291,217.7119)"><path d="m 0,0 h 20.682 c 18.647,0 33.763,15.115 33.763,33.762 v 8.873 c 0,11.594 -9.399,20.992 -20.992,20.992 h -46.224 c -11.593,0 -20.992,-9.398 -20.992,-20.992 V 33.762 C -33.763,15.115 -18.646,0 0,0 Z" style="stroke:#000000;stroke-width:15;stroke-linecap:round;stroke-linejoin:round;stroke-miterlimit:10;stroke-dasharray:none;stroke-opacity:1" id="path7157" fill="none" stroke="#000000" stroke-width="15" stroke-linecap="round" stroke-linejoin="round" stroke-miterlimit="10" stroke-dasharray="none" stroke-opacity="" data-original="#000000"></path></g><g id="g7159" transform="translate(475.0889,92.3379)"><path d="M 0,0 H -446.988" style="stroke:#000000;stroke-width:15;stroke-linecap:round;stroke-linejoin:round;stroke-miterlimit:10;stroke-dasharray:none;stroke-opacity:1" id="path7161" fill="none" stroke="#000000" stroke-width="15" stroke-linecap="round" stroke-linejoin="round" stroke-miterlimit="10" stroke-dasharray="none" stroke-opacity="" data-original="#000000"></path></g><g id="g7163" transform="translate(475.0889,140.4736)"><path d="M 0,0 H -446.988" style="stroke:#000000;stroke-width:15;stroke-linecap:round;stroke-linejoin:round;stroke-miterlimit:10;stroke-dasharray:none;stroke-opacity:1" id="path7165" fill="none" stroke="#000000" stroke-width="15" stroke-linecap="round" stroke-linejoin="round" stroke-miterlimit="10" stroke-dasharray="none" stroke-opacity="" data-original="#000000"></path></g><g id="g7167" transform="translate(350.4863,140.4736)"><path d="M 0,0 V 46.582" style="stroke:#000000;stroke-width:15;stroke-linecap:round;stroke-linejoin:round;stroke-miterlimit:10;stroke-dasharray:none;stroke-opacity:1" id="path7169" fill="none" stroke="#000000" stroke-width="15" stroke-linecap="round" stroke-linejoin="round" stroke-miterlimit="10" stroke-dasharray="none" stroke-opacity="" data-original="#000000"></path></g><g id="g7171" transform="translate(350.4863,92.3379)"><path d="M 0,0 V -46.583" style="stroke:#000000;stroke-width:15;stroke-linecap:round;stroke-linejoin:round;stroke-miterlimit:10;stroke-dasharray:none;stroke-opacity:1" id="path7173" fill="none" stroke="#000000" stroke-width="15" stroke-linecap="round" stroke-linejoin="round" stroke-miterlimit="10" stroke-dasharray="none" stroke-opacity="" data-original="#000000"></path></g><g id="g7175" transform="translate(161.5132,140.4736)"><path d="M 0,0 V 46.582" style="stroke:#000000;stroke-width:15;stroke-linecap:round;stroke-linejoin:round;stroke-miterlimit:10;stroke-dasharray:none;stroke-opacity:1" id="path7177" fill="none" stroke="#000000" stroke-width="15" stroke-linecap="round" stroke-linejoin="round" stroke-miterlimit="10" stroke-dasharray="none" stroke-opacity="" data-original="#000000"></path></g><g id="g7179" transform="translate(429.9629,93.1143)"><path d="M 0,0 V 46.582" style="stroke:#000000;stroke-width:15;stroke-linecap:round;stroke-linejoin:round;stroke-miterlimit:10;stroke-dasharray:none;stroke-opacity:1" id="path7181" fill="none" stroke="#000000" stroke-width="15" stroke-linecap="round" stroke-linejoin="round" stroke-miterlimit="10" stroke-dasharray="none" stroke-opacity="" data-original="#000000"></path></g><g id="g7183" transform="translate(82.0371,93.1143)"><path d="M 0,0 V 46.582" style="stroke:#000000;stroke-width:15;stroke-linecap:round;stroke-linejoin:round;stroke-miterlimit:10;stroke-dasharray:none;stroke-opacity:1" id="path7185" fill="none" stroke="#000000" stroke-width="15" stroke-linecap="round" stroke-linejoin="round" stroke-miterlimit="10" stroke-dasharray="none" stroke-opacity="" data-original="#000000"></path></g><g id="g7187" transform="translate(256,93.1143)"><path d="M 0,0 V 46.582" style="stroke:#000000;stroke-width:15;stroke-linecap:round;stroke-linejoin:round;stroke-miterlimit:10;stroke-dasharray:none;stroke-opacity:1" id="path7189" fill="none" stroke="#000000" stroke-width="15" stroke-linecap="round" stroke-linejoin="round" stroke-miterlimit="10" stroke-dasharray="none" stroke-opacity="" data-original="#000000"></path></g><g id="g7191" transform="translate(161.5132,92.3379)"><path d="M 0,0 V -46.583" style="stroke:#000000;stroke-width:15;stroke-linecap:round;stroke-linejoin:round;stroke-miterlimit:10;stroke-dasharray:none;stroke-opacity:1" id="path7193" fill="none" stroke="#000000" stroke-width="15" stroke-linecap="round" stroke-linejoin="round" stroke-miterlimit="10" stroke-dasharray="none" stroke-opacity="" data-original="#000000"></path></g></g></g></g></g></svg>