<svg xmlns="http://www.w3.org/2000/svg" version="1.1" xmlns:xlink="http://www.w3.org/1999/xlink" xmlns:svgjs="http://svgjs.com/svgjs" width="512" height="512" x="0" y="0" viewBox="0 0 512.075 512.075" style="enable-background:new 0 0 512 512" xml:space="preserve" class=""><g><g><g><g><g><g><g><path d="m489.479 504.524c0-103.652-96.411-136.006-96.411-136.006h-274.061s-96.411 32.354-96.411 136.006z" fill="#e19974" data-original="#e19974"></path><g fill="#8d9ca8"><path d="m445.636 504.524c63.012-79.986 15.267-120.295 15.267-120.295l-.312-.153c1.27-6.858 1.735-13.326 1.398-19.297-8.039-56.195-45.353-58.698-45.353-137.43 0-127.795-78.179-222.077-160.043-219.779.037.013-.276.011-.555.007-.279.004-.592.006-.555-.007-81.865-2.298-160.044 82.135-160.044 219.779 0 83.863-37.258 81.123-45.353 137.43-.338 5.996.143 12.52 1.424 19.449l-.003.002s-51.466 47.16 15.266 120.295h65.942l123.471-61.5 161.169 61.5h28.281z" fill="#8d9ca8" data-original="#8d9ca8"></path><path d="m255.631 7.57c.007 0 .198.004.406.007.209-.003.399-.007.406-.007z" fill="#8d9ca8" data-original="#8d9ca8"></path></g><g><g><path d="m286.364 154.231c-6.875-10.278-18.395-16.471-30.76-16.471-11.904 0-23.04 5.762-30.023 15.404-10.927 15.086-30.725 38.132-58.992 54.531v27.26c0 35.673 20.879 66.469 51.089 80.862 11.666 5.558 24.723 8.672 38.508 8.672 13.255 0 25.836-2.879 37.155-8.041 30.938-14.109 52.442-45.29 52.442-81.493v-25.316c-29.535-16.109-48.911-39.698-59.419-55.408z" fill="#ffe5c2" data-original="#ffe5c2"></path></g></g><path d="m286.364 154.231c-6.875-10.278-18.395-16.471-30.76-16.471-7.193 0-14.105 2.104-19.99 5.896 4.207 2.713 7.883 6.288 10.75 10.575 10.508 15.71 29.884 39.299 59.42 55.407v25.316c0 36.203-21.504 67.384-52.442 81.493-5.448 2.484-11.189 4.44-17.156 5.8 6.431 1.466 13.125 2.241 20 2.241 13.255 0 25.836-2.879 37.155-8.041 30.938-14.109 52.442-45.29 52.442-81.493v-25.316c-29.535-16.108-48.911-39.697-59.419-55.407z" fill="#fed2a4" data-original="#fed2a4"></path><path d="m217.678 504.524-21.076-136.006h118.87l-22.13 136.006z" fill="#e19974" data-original="#e19974"></path><path d="m217.678 504.524v-188.708c-30.211-14.392-51.089-45.189-51.089-80.862v-27.26c-.85.493-1.707.98-2.572 1.46-19.19 10.66-31.302 30.67-31.302 52.623v242.747z" fill="#f5f8f9" data-original="#f5f8f9"></path><path d="m377.983 504.524v-241.55c0-22.259-12.345-42.565-31.91-53.179-.097-.052-.193-.105-.289-.157v25.316c0 36.203-21.504 67.384-52.442 81.493v188.077z" fill="#f5f8f9" data-original="#f5f8f9"></path><path d="m346.073 209.796c-.097-.052-.193-.105-.289-.157v25.316c0 13.036-2.788 25.42-7.801 36.591v232.978h40v-241.55c0-22.259-12.345-42.564-31.91-53.178z" fill="#e8edf2" data-original="#e8edf2"></path><path d="m293.342 375.571v-59.124c-11.32 5.162-23.901 8.041-37.155 8.041-13.785 0-26.842-3.114-38.508-8.672v60.625c28.133 46.808 46.348 46.78 75.663-.87z" fill="#ffe5c2" data-original="#ffe5c2"></path></g><g><g><path d="m377.98 504.524v-330.764h39.375v330.764" fill="#e19974" data-original="#e19974"></path><g><g><g><path d="m483.125 92.988c0-47.197-38.26-85.457-85.457-85.457s-85.457 38.26-85.457 85.457c0 35.266 21.366 65.536 51.857 78.589v22.497h67.2v-22.497c30.49-13.053 51.857-43.323 51.857-78.589z" fill="#f5f8f9" data-original="#f5f8f9"></path></g><path d="m397.667 7.531c-6.887 0-13.584.815-20 2.354 37.548 9.004 65.457 42.794 65.457 83.104 0 35.266-21.366 65.536-51.857 78.589v22.497h40v-22.497c30.491-13.053 51.857-43.323 51.857-78.589 0-47.198-38.26-85.458-85.457-85.458z" fill="#e8edf2" data-original="#e8edf2"></path><g fill="#8d9ca8"><path d="m366.667 128.067c-9.499 0-17.2-7.701-17.2-17.2v-22.626c0-9.499 7.701-17.2 17.2-17.2 9.499 0 17.2 7.701 17.2 17.2v22.626c.001 9.499-7.7 17.2-17.2 17.2z" fill="#8d9ca8" data-original="#8d9ca8"></path><path d="m428.668 128.067c-9.499 0-17.2-7.701-17.2-17.2v-22.626c0-9.499 7.701-17.2 17.2-17.2 9.499 0 17.2 7.701 17.2 17.2v22.626c0 9.499-7.701 17.2-17.2 17.2z" fill="#8d9ca8" data-original="#8d9ca8"></path></g></g><g><g><path d="" fill="#8d9ca8" data-original="#8d9ca8"></path></g><g><path d="" fill="#8d9ca8" data-original="#8d9ca8"></path></g></g></g></g></g></g></g></g><g><g><path d="" fill="#d9e7ec" data-original="#d9e7ec"></path></g><g><path d="" fill="#d9e7ec" data-original="#d9e7ec"></path></g></g></g><g><path d="m484.449 443.149c1.825-10.455 1.763-20.551-.199-30.253-3.289-16.266-11.276-26.805-15.611-31.533 3.847-26.647-7.678-50.921-21.276-73.063-10.191-16.593-19.818-32.27-22.506-63.321v-43.405h6.412c4.143 0 7.5-3.358 7.5-7.5v-17.694c51.812-24.195 68.516-95.562 32.48-140.205-5.934-7.671-17.798 1.503-11.867 9.175 31.245 38.755 15.11 100.675-31.065 119.333-2.759 1.181-4.548 3.893-4.548 6.895v14.997h-52.2v-14.997c0-3.001-1.789-5.713-4.548-6.895-28.739-12.304-47.31-40.446-47.31-71.695-.738-58.78 65.459-97.397 116.217-67.94 8.444 4.767 15.818-8.296 7.373-13.062-34.085-20.195-82.017-13.752-109.373 13.398-24.265-17.304-50.93-26.032-77.448-25.313-.032-.001-.856-.001-.887 0-68.039-2.338-125.829 53.674-149.03 118.506-12.358 32.613-18.624 69.21-18.624 108.772 0 20.666-2.341 37.545-7.158 51.604-3.058 8.926 11.029 14.092 14.19 4.861 5.361-15.648 7.967-34.119 7.967-56.465 0-37.74 5.938-72.548 17.65-103.458 21.104-58.9 72.954-110.879 134.682-108.824v-.003c.087.003.173.005.261.005h.01c.162.008.327.012.495.007.173.005.337 0 .498-.007h.014c.085-.001.169-.004.254-.008v.006c22.736-.634 45.778 6.786 67.005 21.537-35.504 44.339-19.126 115.547 32.76 139.775v17.694c0 4.142 3.357 7.5 7.5 7.5h6.412v18.974c-5.612-6.972-12.641-12.902-20.814-17.336l-.262-.142c-.002-.001-.003-.002-.005-.003-.008-.004-.015-.009-.023-.013-27.756-15.137-46.195-37.172-56.776-52.993-16.763-25.058-55.42-25.692-73.092-1.297-11.147 15.389-30.027 36.979-56.675 52.44-22.005 13.541-37.616 33.568-37.616 60.574v167.051c-11.052-6.878-24.577-17.534-29.431-30.288-3.26-9.087-17.329-4.11-14.138 5.012.353 1.01 8.761 24.072 43.568 42.574v58.397c0 9.697 15 9.697 15 0v-62.855c.002-.09.002-.181 0-.271v-179.62c0-15.556 7.041-30.202 18.874-40.164-2.757 41.034 14.401 78.613 51.089 98.804v184.106c0 9.697 15 9.697 15 0v-103.898c10.265 12.601 19.621 18.252 29.593 18.303 10.376.038 20.105-5.936 31.071-19.418v105.015c0 9.697 15 9.697 15 0v-183.39c35.842-18.465 55.294-57.364 52.442-97.055 10.698 9.817 17.047 23.633 17.195 38.367v242.077c0 9.414 15.003 9.888 15.003 0-.003-.619.006-241.597-.003-242.166v-60.785h24.376v43.48c-.004.144-.004.29 0 .436v259.035c0 9.697 15 9.697 15 0v-205.082c3.111 5.939 6.435 11.351 9.724 16.706 8.591 13.989 16.707 27.205 19.938 49.369.855 16.842-6.111 32.962-14.983 46.957-5.379 8.483 6.602 15.136 12.668 8.032 4.178-6.59 7.86-13.788 11.006-21.506 8.547 14.313 7.5 28.338 5.911 44.228-3.264 15.438-11.758 34.293-29.374 56.655-5.893 7.48 5.616 17.108 11.783 9.282 11.364-14.425 19.913-28.409 25.627-41.89 3.206 11.757 4.824 24.217 4.824 37.249 0 9.697 15 9.697 15 0 0-22.036-4.215-42.67-12.53-61.375zm-252.794-285.586c11.695-16.146 37.37-15.766 48.475.838 11.017 16.47 29.9 39.152 58.154 55.617v20.937c0 31.992-19.192 61.165-48.086 74.683-21.784 9.923-47.686 9.702-69.295-.592-28.439-13.548-46.815-42.631-46.815-74.09v-23.006c26.952-16.566 46.091-38.543 57.567-54.387zm23.243 246.366c-.016 0-.033 0-.049 0-7.803-.04-17.518-9.723-29.67-29.583v-47.438c19.53 6.511 41.04 6.67 60.664.445v46.081c-12.838 20.514-22.969 30.495-30.945 30.495z" fill="#000000" data-original="#000000"></path><path d="m156.418 171.263c.738 0 1.489-.11 2.231-.341 29.923-9.311 41.055-28.349 49.183-42.25 10.319-17.654 24.366-35.334 46.679-35.334 4.143 0 7.5-3.358 7.5-7.5s-3.357-7.5-7.5-7.5c-27.891 0-46.494 20.298-59.628 42.763-7.651 13.085-16.323 27.917-40.691 35.499-8.158 2.538-5.966 14.663 2.226 14.663z" fill="#000000" data-original="#000000"></path><path d="m391.367 110.867v-22.626c-1.246-32.732-48.167-32.707-49.4 0v22.626c1.246 32.732 48.167 32.707 49.4 0zm-15 0c-.457 12.842-18.948 12.832-19.4 0v-22.626c.457-12.842 18.948-12.832 19.4 0z" fill="#000000" data-original="#000000"></path><path d="m453.367 110.867v-22.626c-1.246-32.731-48.165-32.707-49.399 0v22.626c1.246 32.732 48.166 32.706 49.399 0zm-34.399 0v-22.626c.457-12.842 18.947-12.832 19.399 0v22.626c-.457 12.841-18.947 12.833-19.399 0z" fill="#000000" data-original="#000000"></path><path d="m380.327 149.064c4.175 8.986 17.265 3.564 13.859-5.74-4.139-8.981-17.262-3.558-13.859 5.74z" fill="#000000" data-original="#000000"></path><path d="m410.947 139.274c-9.464-3.462-14.774 9.978-5.511 13.934 9.26 3.085 14.377-9.886 5.511-13.934z" fill="#000000" data-original="#000000"></path><path d="m101.136 447.991c-36.803-27.008-42.109-64.144-42.185-64.704-.001-.008-.002-.015-.003-.023-.007-.051-.014-.103-.021-.154-.003-.022-.007-.045-.011-.067-.004-.027-.009-.054-.013-.081-.006-.034-.012-.068-.018-.102-1.149-6.217-1.596-12.049-1.327-17.34 3.193-21.789 11.117-34.086 19.503-47.104 5.001-9.719-5.272-16.014-12.609-8.124-13.931 21.623-24.847 45.156-20.95 71.491-4.538 5.185-13.074 16.732-16.716 33.584-2.279 10.544-2.173 20.823-.395 30.645-7.495 17.928-11.294 37.601-11.294 58.513 0 9.697 15 9.697 15 0 0-11.988 1.369-23.5 4.085-34.42 7.089 15.326 17.322 28.811 27.053 39.475 6.602 7.238 17.573-2.995 11.08-10.11-42.983-47.107-33.828-81.727-24.22-98.482 5.35 15.485 17.453 39.491 44.168 59.096 7.586 5.568 16.836-6.25 8.873-12.093z" fill="#000000" data-original="#000000"></path><path d="m477.727 175.634c-6.709 7.314 3.305 17.31 10.61 10.61 6.705-7.285-3.34-17.342-10.61-10.61z" fill="#000000" data-original="#000000"></path><path d="m466.367 231.964c-9.627-3.468-14.803 10.288-5.282 14.024 9.172 2.777 14.025-10.095 5.282-14.024z" fill="#000000" data-original="#000000"></path><path d="m103.697 10.394c4.296 9.113 17.488 3.393 13.758-5.963-4.363-8.718-17.107-3.197-13.758 5.963z" fill="#000000" data-original="#000000"></path><path d="m22.117 55.814c4.285 9.104 17.477 3.401 13.766-5.941-4.322-8.747-17.179-3.188-13.766 5.941z" fill="#000000" data-original="#000000"></path><path d="m51.417 273.314c10.221-.486 9.736-15.16-.485-14.977-9.553.952-9.1 14.639.485 14.977z" fill="#000000" data-original="#000000"></path><path d="m69.937 112.944c8.489 5.138 16.336-6.626 8.33-12.47-8.488-5.147-16.328 6.629-8.33 12.47z" fill="#000000" data-original="#000000"></path></g></g></g></svg>