<svg xmlns="http://www.w3.org/2000/svg" version="1.1" xmlns:xlink="http://www.w3.org/1999/xlink" xmlns:svgjs="http://svgjs.com/svgjs" width="512" height="512" x="0" y="0" viewBox="0 0 340 340" style="enable-background:new 0 0 512 512" xml:space="preserve" class=""><g><linearGradient id="linear-gradient" gradientUnits="userSpaceOnUse" x1="285.738" x2="292.406" y1="23.994" y2="87.754"><stop offset="0" stop-color="#ebfeff"></stop><stop offset=".073" stop-color="#e3f9ff"></stop><stop offset=".703" stop-color="#a2cefd"></stop><stop offset="1" stop-color="#89bdfc"></stop></linearGradient><linearGradient id="linear-gradient-2" gradientUnits="userSpaceOnUse" x1="139.402" x2="148.815" y1="9.219" y2="305.379"><stop offset="0" stop-color="#444456"></stop><stop offset="1" stop-color="#363644"></stop></linearGradient><linearGradient id="linear-gradient-3" gradientUnits="userSpaceOnUse" x1="287.959" x2="289.42" y1="259.403" y2="339.041"><stop offset="0" stop-color="#ff7b72"></stop><stop offset=".291" stop-color="#f37169"></stop><stop offset="1" stop-color="#da5b55"></stop></linearGradient><linearGradient id="linear-gradient-4" x1="145.119" x2="141.356" xlink:href="#linear-gradient-2" y1="10.234" y2="338.513"></linearGradient><linearGradient id="linear-gradient-5" gradientUnits="userSpaceOnUse" x1="134.971" x2="134.971" y1="47.981" y2="162.083"><stop offset="0" stop-color="#ffac8a"></stop><stop offset=".553" stop-color="#ff9565"></stop><stop offset="1" stop-color="#ff854c"></stop></linearGradient><linearGradient id="linear-gradient-6" gradientUnits="userSpaceOnUse" x1="214.697" x2="214.697" y1="301.717" y2="166.443"><stop offset="0" stop-color="#f771a8"></stop><stop offset="1" stop-color="#c14778"></stop></linearGradient><linearGradient id="linear-gradient-7" x1="133.822" x2="130.059" xlink:href="#linear-gradient-2" y1="10.104" y2="338.384"></linearGradient><linearGradient id="linear-gradient-8" gradientUnits="userSpaceOnUse" x1="128.447" x2="128.447" y1="137.855" y2="171.811"><stop offset="0" stop-color="#ffe1db"></stop><stop offset="1" stop-color="#feb5a9"></stop></linearGradient><linearGradient id="linear-gradient-9" x1="34.989" x2="34.989" xlink:href="#linear-gradient-6" y1="312.887" y2="245.225"></linearGradient><linearGradient id="linear-gradient-10" x1="249.75" x2="173.503" xlink:href="#linear-gradient-8" y1="245.63" y2="189.911"></linearGradient><linearGradient id="linear-gradient-11" x1="69.045" x2="26.129" xlink:href="#linear-gradient-8" y1="285.548" y2="178.093"></linearGradient><linearGradient id="linear-gradient-12" gradientUnits="userSpaceOnUse" x1="133.817" x2="133.817" y1="319.577" y2="224.676"><stop offset="0" stop-color="#f9ffff"></stop><stop offset="1" stop-color="#cce2ec"></stop></linearGradient><linearGradient id="linear-gradient-13" x1="124.028" x2="124.028" xlink:href="#linear-gradient-12" y1="257.466" y2="151.926"></linearGradient><linearGradient id="linear-gradient-14" x1="59.461" x2="164.134" xlink:href="#linear-gradient-6" y1="179.163" y2="165.121"></linearGradient><linearGradient id="linear-gradient-15" x1="210.01" x2="147.78" xlink:href="#linear-gradient-6" y1="157.067" y2="166.321"></linearGradient><linearGradient id="linear-gradient-16" x1="267.222" x2="307.041" xlink:href="#linear-gradient-3" y1="82.39" y2="129.15"></linearGradient><linearGradient id="linear-gradient-17" x1="125.741" x2="125.741" xlink:href="#linear-gradient-8" y1="118.879" y2="42.591"></linearGradient><linearGradient id="linear-gradient-18" x1="290.209" x2="290.618" xlink:href="#linear-gradient-8" y1="221.524" y2="270.263"></linearGradient><linearGradient id="linear-gradient-19" x1="171.581" x2="167.965" xlink:href="#linear-gradient-2" y1="54.712" y2="332.685"></linearGradient><path d="m285.434 101.214-24.034-42.255a3.953 3.953 0 0 1 .184-4.2l23.727-34.367a3.954 3.954 0 0 1 6.453-.078l25.1 34.555a3.148 3.148 0 0 1 -.013 3.718z" fill="url(#linear-gradient)" data-original="url(#linear-gradient)"></path><path d="m314.291 58.056-18.458 6.22a5.438 5.438 0 0 0 -3.65 4.411l-3.948 28.728 27.525-37.345a1.307 1.307 0 0 0 -1.469-2.014z" fill="#588edd" data-original="#588edd"></path><path d="m282.8 35.052-12 17.38a1.561 1.561 0 0 0 .887 2.4l13.76 3.625a1.562 1.562 0 0 0 1.954-1.64l-1.761-21.005a1.562 1.562 0 0 0 -2.84-.76z" fill="#ffffff" data-original="#ffffff"></path><path d="m110.923 73.98h-26.036v77.908c26.159 12.771 53.1 18.662 81.033 15.8l36.729-26.417-31.844-62.685z" fill="url(#linear-gradient-2)" data-original="url(#linear-gradient-2)"></path><path d="m311.867 65.351-24.467 30.31 18.64 16.557 10.06-25.454a19.83 19.83 0 0 0 1.426-7.486c-.046-4.325-.704-10.293-5.659-13.927z" fill="#c84343" data-original="#c84343"></path><path d="m274.537 105.215 23.674 23.415v200.579h-14.718v-185.64a17.048 17.048 0 0 0 -3.861-10.8c-4.282-5.234-9.982-15.213-5.095-27.554z" fill="url(#linear-gradient-3)" data-original="url(#linear-gradient-3)"></path><path d="m48.08 329.209h16.9l69.987-6.649 67.678 6.649h31.592l13.671-40.043s-28.957-84.085-62.091-121.476h-122.699s-48.932 92.665-15.038 161.519z" fill="url(#linear-gradient-4)" data-original="url(#linear-gradient-4)"></path><path d="m122.255 57.92s-3.83 21.5 33.156 38.009 33.771 50.67 33.771 71.761c0 0 34.237 6.87 36.718-19.875 0 0 0-9.213-6-15.886a22.183 22.183 0 0 1 -5.548-16.886c.683-7.625-2.368-18.209-18.593-28.539a28.143 28.143 0 0 1 -13.045-21.519c-1.483-19.285-9.262-50.749-44.242-50.749 0 0-18.646.3-26.9 13.144 0 0-16.507-7.031-33.93 8.253-10.448 9.167-11.769 27.255-11.152 40.255a27.844 27.844 0 0 1 -9.146 22.195 38.292 38.292 0 0 0 -13.262 31.17c1.223 29.039 29.9 35.069 29.9 35.069l21.4-7.948s-24.235-58.32 26.873-98.454z" fill="url(#linear-gradient-5)" data-original="url(#linear-gradient-5)"></path><path d="m166.776 181.941s76.424 56.729 67.465 147.268h27.814s11.314-95.846-67.413-168.12z" fill="url(#linear-gradient-6)" data-original="url(#linear-gradient-6)"></path><path d="m77.529 137.735a470.572 470.572 0 0 0 105.264 2.814l4.114 21.794s-83.753 11.539-109.378-24.608z" fill="url(#linear-gradient-7)" data-original="url(#linear-gradient-7)"></path><path d="m114.453 139.987v24.718h27.987v-15.186z" fill="url(#linear-gradient-8)" data-original="url(#linear-gradient-8)"></path><path d="m194.642 161.089-27.866 20.852a136.013 136.013 0 0 1 11.194 9.7l3.3-.007s19.687 1.961 28.281-15.417c-4.572-5.125-9.522-10.183-14.909-15.128z" fill="#933e65" data-original="#933e65"></path><path d="m33.554 211.209s-17.153 63.134-9.842 118h24.368s-8.333-40.276-1.54-76.779z" fill="url(#linear-gradient-9)" data-original="url(#linear-gradient-9)"></path><path d="m162.689 217.588a280.882 280.882 0 0 0 38.855 31.266 27.437 27.437 0 0 0 14.989 4.489h64.726v-23.507l-57.121-2.05a16.28 16.28 0 0 1 -11.172-5c-9.174-9.572-29.531-31.416-38.245-45.607-16.057 1.896-15.659 19.602-12.032 40.409z" fill="url(#linear-gradient-10)" data-original="url(#linear-gradient-10)"></path><path d="m174.721 177.174c-12.524 1.483-15.037 12.581-13.815 27.267a142.227 142.227 0 0 0 12.758-9.642 12.829 12.829 0 0 1 8.336-3.099h3.276a148.542 148.542 0 0 1 -10.555-14.526z" fill="#e78582" data-original="#e78582"></path><path d="m33.48 203.983a214.817 214.817 0 0 0 -5.21 37.936 19.819 19.819 0 0 0 5.684 14.943c7.444 7.561 20.473 20.083 31.03 26.5l-2.265 10.838a12.439 12.439 0 0 0 7.149 13.923l4.073 1.8 16.059-30.576s-25.328-23.783-33.667-36.755l8.648-30.578z" fill="url(#linear-gradient-11)" data-original="url(#linear-gradient-11)"></path><path d="m94.615 267.133s-22.1 26.612-29.631 62.076h137.665s-9.391-43.474-43.2-68.224z" fill="url(#linear-gradient-12)" data-original="url(#linear-gradient-12)"></path><path d="m59.26 232.254 5.724-20.24-31.5-8.031a194.168 194.168 0 0 0 -4 23.543 169.23 169.23 0 0 0 29.776 4.728z" fill="#e78582" data-original="#e78582"></path><path d="m94.615 267.133s5.084 15.308 30.02 29.492a12.412 12.412 0 0 0 14.52-1.548c6.844-6.251 16.778-17.744 20.292-34.092z" fill="#b6cfe0" data-original="#b6cfe0"></path><path d="m77.366 213.724a65.139 65.139 0 0 0 11.659 13.914 17.687 17.687 0 0 1 5.59 13.075v26.42s10.334 10.061 28.764 18.506a13.636 13.636 0 0 0 13.808-1.462 94.525 94.525 0 0 0 22.26-23.192v-24.271a17.938 17.938 0 0 1 3.5-10.756c4.928-6.564 12.41-21.359 3.832-44.017h-22.852z" fill="url(#linear-gradient-13)" data-original="url(#linear-gradient-13)"></path><path d="m166.776 181.941h-22.849l-66.561 31.783a65.139 65.139 0 0 0 11.659 13.914 16.438 16.438 0 0 1 2.853 3.466 165.187 165.187 0 0 0 78.607-33.682 58.951 58.951 0 0 0 -3.709-15.481z" fill="#b6cfe0" data-original="#b6cfe0"></path><path d="m77.529 137.735s27.782 22.913 79.564 22.216l4.1 24.7s-51.348 43.308-121.753 30.606a13.771 13.771 0 0 1 -11.306-12.779 113 113 0 0 1 1.143-22.821 8.99 8.99 0 0 1 11.442-7.243l2.11.621a97.417 97.417 0 0 1 2.008-15.522 10.977 10.977 0 0 1 12.273-8.576l7.549 1.063a26.008 26.008 0 0 1 1.919-8.265 7.7 7.7 0 0 1 10.951-4z" fill="url(#linear-gradient-14)" data-original="url(#linear-gradient-14)"></path><path d="m152.008 161.813s15.26-5.348 29.718-20.4a5.415 5.415 0 0 1 9.012 1.878 68.73 68.73 0 0 1 3.964 26.923 12.734 12.734 0 0 1 -11.74 11.868l-25.9 2.091z" fill="url(#linear-gradient-15)" data-original="url(#linear-gradient-15)"></path><path d="m298.211 128.63-36.7-34.964a16.382 16.382 0 0 1 -4.645-16.3c1.084-3.747 3.487-7.549 8.968-10.618l37.05 39.416a12.4 12.4 0 0 1 2.914 12.019 20.869 20.869 0 0 1 -7.587 10.447z" fill="url(#linear-gradient-16)" data-original="url(#linear-gradient-16)"></path><path d="m97.68 159.552c-10.528-5.488-22.237-12.723-29.285-20.6a7.635 7.635 0 0 0 -1.817 2.784 26.008 26.008 0 0 0 -1.919 8.264s11.885 8.5 30.911 14.573a2.733 2.733 0 0 0 2.11-5.021z" fill="#933e65" data-original="#933e65"></path><path d="m279.632 132.767c.235.288.451.589.666.89h.008a75.176 75.176 0 0 1 12.336 15.805 9.678 9.678 0 0 0 5.569 4.754v-25.586l-23.674-23.415c-4.887 12.341.813 22.32 5.095 27.552z" fill="#c84343" data-original="#c84343"></path><path d="m160.144 178.331-.1-.621c-12.891 2.562-72.536 12.273-115.818-17.032a95.32 95.32 0 0 0 -1.393 12.355s61.733 31.053 117.311 5.298z" fill="#933e65" data-original="#933e65"></path><path d="m160.219 153.9a14.138 14.138 0 0 1 13.334 9.5 43.5 43.5 0 0 1 2.2 11.484 14.252 14.252 0 0 1 -10.253 14.533l-.864.25a14.215 14.215 0 0 1 -17.632-9.736 34.467 34.467 0 0 1 -1-13.578 14.188 14.188 0 0 1 14.215-12.453z" fill="#ffc564" data-original="#ffc564"></path><path d="m114.453 139.987c4.991 4.2 15.111 10.836 27.987 9.532v-28.274l-27.987 4.406z" fill="#e78582" data-original="#e78582"></path><path d="m122.255 57.92a85.828 85.828 0 0 0 -23.517 27.68 132.418 132.418 0 0 0 .637 17.756 36.452 36.452 0 0 0 7.5 18.425 50.421 50.421 0 0 0 16.471 13.891 9.893 9.893 0 0 0 9.665-.363 49.776 49.776 0 0 0 12.428-10.747 35.372 35.372 0 0 0 7.361-16.221c-24.455-17.104-32.141-33.859-30.545-50.421z" fill="url(#linear-gradient-17)" data-original="url(#linear-gradient-17)"></path><g fill="#e78582"><path d="m119.082 104.013a2.973 2.973 0 0 1 -.719-.089 26.941 26.941 0 0 0 -4.164-.7 2.952 2.952 0 1 1 .508-5.883 32.951 32.951 0 0 1 5.089.857 2.953 2.953 0 0 1 -.714 5.818z" fill="#e78582" data-original="#e78582"></path><path d="m134.537 104.013a2.953 2.953 0 0 1 -.713-5.818 32.913 32.913 0 0 1 5.089-.857 2.952 2.952 0 1 1 .507 5.883 26.941 26.941 0 0 0 -4.164.7 2.961 2.961 0 0 1 -.719.092z" fill="#e78582" data-original="#e78582"></path><path d="m264.467 253.343h16.792v-23.507l-18.678-.67z" fill="#e78582" data-original="#e78582"></path></g><rect fill="url(#linear-gradient-18)" height="42.076" rx="11.688" width="31.687" x="274.537" y="220.846" data-original="url(#linear-gradient-18)"></rect><path d="m152.793 108.341c.158-.9.288-1.8.378-2.717q.517-5.22.711-10.392c-35.348-16.408-31.627-37.312-31.627-37.312s-8.862 32.488 30.538 50.421z" fill="#e78582" data-original="#e78582"></path><path d="m309.668 251.234v-18.7a15.141 15.141 0 0 0 -8.012-13.345v-88.939a23.74 23.74 0 0 0 7.439-11.057 15.326 15.326 0 0 0 .5-6.593l9.709-24.57a23.184 23.184 0 0 0 1.667-8.789c-.027-2.457-.113-9.216-4.52-14.3l4.542-6.161a3.447 3.447 0 0 0 .014-4.069l-29.732-40.939a3.391 3.391 0 0 0 -2.829-1.421 3.447 3.447 0 0 0 -2.794 1.488l-28.31 41a3.449 3.449 0 0 0 -.16 3.661l4.059 7.137a19.935 19.935 0 0 0 -7.683 10.772 19.716 19.716 0 0 0 5.579 19.747l11.209 10.679c-3.7 12.849 2.5 23.075 6.62 28.11a13.653 13.653 0 0 1 3.082 8.62v75.164a15.212 15.212 0 0 0 -7.489 7.344l-26.758-.961a209.075 209.075 0 0 0 -36.551-54.349c11.837-2.816 18.97-10.667 20.08-22.634.01-.105.015-.212.015-.318 0-.43-.079-10.621-6.877-18.188a18.633 18.633 0 0 1 -4.68-14.277c.731-8.16-2.176-20.293-20.174-31.752a24.813 24.813 0 0 1 -11.46-18.877c-1.549-20.142-9.8-53.93-47.733-53.93-.792.013-18.526.449-28.179 12.548-5.792-1.51-20.059-3.284-34.866 9.7-11.4 10-13 28.908-12.328 43.009a24.293 24.293 0 0 1 -7.993 19.456 41.761 41.761 0 0 0 -14.415 33.9 39.668 39.668 0 0 0 5.682 19.363 14.324 14.324 0 0 0 -4.856 8.034 104.307 104.307 0 0 0 -1.793 11.9 12.43 12.43 0 0 0 -13.8 10.454 116.194 116.194 0 0 0 -1.176 23.52 17.164 17.164 0 0 0 3.486 9.482c-2.416 10.632-14.439 67.4-7.94 117.062h6.9a3.311 3.311 0 0 0 -.015-.455c-3.355-25.18-1.787-52.342.832-74.123a23.309 23.309 0 0 0 3.541 4.648c2.5 2.54 5.8 5.808 9.508 9.271-2.234 29.065 2.645 55.963 3.561 60.659h6.958a3.4 3.4 0 0 0 -.072-.7 246.545 246.545 0 0 1 -3.91-54.068 133.933 133.933 0 0 0 13.58 10.549l-1.777 8.5a15.967 15.967 0 0 0 7.462 16.9 138.4 138.4 0 0 0 -5.195 18.092 3.448 3.448 0 0 0 -.074.716h6.974c5.984-27.358 20.967-49.474 26.584-57.053a121.78 121.78 0 0 0 26.847 16.62 17.077 17.077 0 0 0 17.3-1.828 99.345 99.345 0 0 0 20.975-21.032c27.815 22.173 37.526 57.78 38.892 63.3h6.983a3.481 3.481 0 0 0 -.076-.727c-.389-1.8-9.8-43.859-43.124-69.221v-22.549a14.528 14.528 0 0 1 2.806-8.688c.4-.532.818-1.12 1.243-1.758a277.84 277.84 0 0 0 32.72 25.47 30.8 30.8 0 0 0 16.872 5.05h3.058a146.493 146.493 0 0 1 11.222 72.082c-.011.115 0 .226 0 .339h6.882a152.935 152.935 0 0 0 -10.649-72.421h23.345c11.785 39.937 8.276 71.7 8.239 72.019a3.377 3.377 0 0 0 -.006.4h6.893c.408-3.891 3.041-33.908-7.949-72.421h14.59a15.2 15.2 0 0 0 7.887 8.247v64.174h6.89v-62.84h7.6c.078 0 .153-.01.231-.012v62.854h6.89v-64.629a15.144 15.144 0 0 0 8.007-13.346zm-71.618-26.4-13.788-.5a12.773 12.773 0 0 1 -8.808-3.946c-7.647-7.978-21.151-22.476-30.8-35.064a16.246 16.246 0 0 0 13.326-13.417c.189 0 .387.014.574.014.765 0 1.512-.021 2.251-.051a202.592 202.592 0 0 1 37.245 52.968zm-58.85-50.145a47.032 47.032 0 0 0 -2.381-12.392 17.312 17.312 0 0 0 -5.143-7.577 94.528 94.528 0 0 0 12.535-10.92 1.984 1.984 0 0 1 1.872-.577 1.873 1.873 0 0 1 1.413 1.231 65.477 65.477 0 0 1 3.767 25.562 9.305 9.305 0 0 1 -8.578 8.631l-3.755.3a17.916 17.916 0 0 0 .27-4.258zm-85.251-38.381a85.475 85.475 0 0 1 1.851-34.055c.049.5.1 1 .154 1.494a39.868 39.868 0 0 0 8.212 20.163 58.933 58.933 0 0 0 6.844 7.344v6.487c-6.501-.43-12.254-.941-17.061-1.433zm17.059 8.338v5.505a123.624 123.624 0 0 1 -17.767-6.984c4.974.51 10.959 1.033 17.767 1.479zm32.2 18.371a17.434 17.434 0 0 0 -.614 2.932c-.1.885-.17 1.764-.217 2.64-39.91-.592-67.28-16.057-74.061-20.314a29.029 29.029 0 0 1 1.49-5.323 4.258 4.258 0 0 1 5.83-2.322c2.964 2.346 26.081 19.553 67.564 22.387zm-25.308-10.936v-15.573c1.27.8 2.56 1.562 3.884 2.236a13.43 13.43 0 0 0 13.029-.5c1.231-.755 2.662-1.712 4.184-2.849v20.345a145.285 145.285 0 0 1 -21.097-3.659zm24.869-29.694a46.463 46.463 0 0 1 -11.56 9.987 6.406 6.406 0 0 1 -6.3.228 47.437 47.437 0 0 1 -15.324-12.948 33 33 0 0 1 -6.785-16.686 125.277 125.277 0 0 1 -.633-16.46c0-.045-.01-.086-.011-.131a80.71 80.71 0 0 1 17.122-21.451c1.73 8.106 8.269 21.256 31.048 32.419-.14 2.7-.325 5.364-.58 7.939a31.948 31.948 0 0 1 -6.979 17.103zm13.831-16.423c.176-1.779.321-3.6.445-5.44 15.087 7.614 23.8 19.139 27.1 35.887a8.761 8.761 0 0 0 -2.346.764c-11.527 1.022-23.591 1.567-35.914 1.631v-9.55c.752-.8 1.5-1.627 2.223-2.517a38.8 38.8 0 0 0 8.492-20.775zm-10.715 39.736c9.275-.048 18.411-.361 27.289-.944a87.98 87.98 0 0 1 -8.347 6.345 17.808 17.808 0 0 0 -4.586-.64 17.756 17.756 0 0 0 -13.278 5.87c-.362-.018-.718-.04-1.077-.06zm-86.252-45.042a31.157 31.157 0 0 0 10.3-24.933c-.6-12.588.652-29.312 9.989-37.5 15.465-13.568 29.726-7.914 30.308-7.674a3.445 3.445 0 0 0 4.248-1.307c7.133-11.1 23.9-11.559 24-11.561 30.7 0 39.139 25.868 40.807 47.568a31.738 31.738 0 0 0 14.63 24.161c11.933 7.6 17.815 16.355 17.012 25.326a25.794 25.794 0 0 0 6.416 19.5c4.646 5.17 5.072 12.4 5.109 13.454-1.425 14.251-13.478 17.433-24.221 17.354a73.139 73.139 0 0 0 -4.249-22.914 8.791 8.791 0 0 0 -2.5-3.672c-3.337-21.8-14.674-36.748-34.667-45.671-33.721-15.049-31.283-33.518-31.169-34.259a3.445 3.445 0 0 0 -5.519-3.313c-33.28 26.128-35.627 59.926-33.219 80.309-4.382-.527-7.274-.952-8.352-1.117a11.12 11.12 0 0 0 -15.2 6.11 37.348 37.348 0 0 0 -1.649 5.586l-4.116-.581a14.288 14.288 0 0 0 -5.021.195 32.708 32.708 0 0 1 -5.044-16.612 35.057 35.057 0 0 1 12.107-28.449zm9.713 203.159a9.046 9.046 0 0 1 -3.254-8.91l2.264-10.84a3.445 3.445 0 0 0 -1.583-3.649c-10.384-6.312-23.481-18.982-30.364-25.973a16.41 16.41 0 0 1 -4.7-12.344 233.131 233.131 0 0 1 2.671-24.9 17.32 17.32 0 0 0 4.446 1.448 151.37 151.37 0 0 0 20.064 2.251l-5.869 20.75a3.445 3.445 0 0 0 .417 2.8c6.283 9.774 21.537 25.134 29.632 33.012a171.279 171.279 0 0 0 -13.724 26.355zm21.824-37.9c-.86 1.09-2.343 3.03-4.214 5.71-7.089-6.938-20.656-20.627-26.873-29.627l5.924-20.945q6.073-.014 11.885-.5a72.964 72.964 0 0 0 8.815 9.627 14.182 14.182 0 0 1 4.463 10.527zm69.018-42.03a21.461 21.461 0 0 0 -4.188 12.827v23.225a91.245 91.245 0 0 1 -20.869 21.472 10.19 10.19 0 0 1 -10.319 1.1 113.18 113.18 0 0 1 -26.754-16.9v-24.9a21.075 21.075 0 0 0 -6.717-15.623 65.021 65.021 0 0 1 -5.289-5.421 166.566 166.566 0 0 0 58.06-19.641 3.445 3.445 0 1 0 -3.347-6.022c-22.326 12.409-57.921 25.579-100.717 17.859a10.311 10.311 0 0 1 -5.5-2.881c-.069-.081-.144-.154-.22-.229a10.261 10.261 0 0 1 -2.761-6.469 109.308 109.308 0 0 1 1.11-22.121 5.394 5.394 0 0 1 2.475-3.8 5.593 5.593 0 0 1 4.588-.652l1.821.536c3.453 1.7 34.18 16.338 70.562 16.338a3.445 3.445 0 1 0 0-6.89c-30.885 0-58.249-11.393-65.724-14.792a98.07 98.07 0 0 1 1.8-12.683 7.55 7.55 0 0 1 8.421-5.88l6.749.953c4.949 3.331 34.183 21.62 79.223 22.184a36.3 36.3 0 0 0 1.095 5.39 17.681 17.681 0 0 0 16.958 12.809 17.809 17.809 0 0 0 4.944-.7l.733-.212c3.093 15.743-2.422 26.176-6.134 31.126zm4.36-37.783-.865.25a10.768 10.768 0 0 1 -13.361-7.369 31.123 31.123 0 0 1 -.89-12.231 10.714 10.714 0 0 1 10.7-9.411h.067a10.681 10.681 0 0 1 10.094 7.167 40.085 40.085 0 0 1 2.026 10.576 10.747 10.747 0 0 1 -7.771 11.021zm106.544 63.796h-54.559a23.934 23.934 0 0 1 -13.106-3.929 273.119 273.119 0 0 1 -33.074-25.9c3.165-7.122 5.367-17.372 2.319-30.575a17.559 17.559 0 0 0 3.218-3.382l.693-.056c9.914 13.6 25.443 30.3 33.9 39.113a19.621 19.621 0 0 0 13.536 6.064l47.077 1.69zm41.808-164.4-7.318 18.52c-.062-.069-.119-.141-.182-.209l-10.841-11.531 17.533-21.722c1.664 2.628 1.96 5.943 1.99 8.757a16.3 16.3 0 0 1 -1.182 6.185zm-24.342-63.744 25.394 34.961-24.152 30.495-21.172-22.519-4.387-7.715zm-24.668 69.415a13.019 13.019 0 0 1 -3.713-12.844 13.154 13.154 0 0 1 5.1-7.135l35.085 37.326a8.958 8.958 0 0 1 2.137 8.664 16.367 16.367 0 0 1 -4.193 6.785zm12.354 21.288 18.522 17.647v87.307c-.078 0-.153-.012-.231-.012h-7.6v-73.832a20.562 20.562 0 0 0 -4.64-12.984c-3.419-4.185-6.895-10.471-6.051-18.126zm18.291 147.018h-8.311a8.252 8.252 0 0 1 -8.242-8.243v-18.7a8.251 8.251 0 0 1 8.242-8.242h8.311a8.251 8.251 0 0 1 8.243 8.242v18.7a8.252 8.252 0 0 1 -8.243 8.243z" fill="url(#linear-gradient-19)" data-original="url(#linear-gradient-19)"></path></g></svg>