<svg xmlns="http://www.w3.org/2000/svg" version="1.1" xmlns:xlink="http://www.w3.org/1999/xlink" xmlns:svgjs="http://svgjs.com/svgjs" width="512" height="512" x="0" y="0" viewBox="0 0 64 64" style="enable-background:new 0 0 512 512" xml:space="preserve" class=""><g><g id="Fill"><path d="m10.29 40.86.39 8.29c.08 2.68 9.02 12.52 13.94 13.73.47.12.92-.27.92-.76v-7.56c-4.58-1.81-12.42-8.82-15.25-13.7z" fill="#f97f51" data-original="#f97f51"></path><path d="m38.42 54.56v7.56c0 .48.45.87.92.76 4.92-1.21 13.9-11.05 13.99-13.73l.39-8.29c-2.84 4.88-10.73 11.89-15.3 13.7z" fill="#f97f51" data-original="#f97f51"></path><path d="m10.29 40.86c2.84 4.88 10.68 11.89 15.25 13.7v-17.34c0-1.19-.81-2.18-1.89-2.39-2.42-.47-6.21-1.91-6.84-4.65l-1.43-8.18-6.31-6.84z" fill="#cad3c8" data-original="#cad3c8" class=""></path><path d="m48.62 22-1.43 8.18c-.63 2.74-4.46 4.18-6.88 4.65-1.08.21-1.89 1.2-1.89 2.39v17.34c4.58-1.8 12.46-8.82 15.3-13.7l1.22-25.7z" fill="#cad3c8" data-original="#cad3c8" class=""></path><path d="m27.18 1c-6.83 0-13.25 3.54-17.27 9.53-.64.95-.96 2.12-.9 3.3l.06 1.34 6.31 6.83s12 0 12.46 5l.17 1.13c.17 1.08 1.03 1.87 2.04 1.87h1.95v-29z" fill="#cad3c8" data-original="#cad3c8" class=""></path><path d="m54.09 10.53c-4.02-5.99-10.44-9.53-17.27-9.53h-4.82v29h1.94c1.01 0 1.87-.79 2.04-1.87l.17-1.13c.46-5 12.46-5 12.46-5l6.31-6.84.06-1.34c.07-1.18-.25-2.34-.89-3.29z" fill="#cad3c8" data-original="#cad3c8" class=""></path><g fill="#f97f51"><path d="m50 14c-.27 0-.52-.11-.71-.29-.09-.1-.16-.21-.21-.33-.06-.12-.08-.25-.08-.38 0-.26.11-.52.29-.71.05-.04.1-.08.15-.12.06-.04.12-.07.18-.09.06-.03.12-.05.18-.06.33-.06.68.04.91.27.09.1.16.21.21.33.06.12.08.25.08.38s-.02.26-.08.38c-.05.12-.12.23-.21.33-.19.18-.44.29-.71.29z" fill="#f97f51" data-original="#f97f51"></path><path d="m25.12 5.23c-.54.09-.92.6-.83 1.15.08.49.51.84.99.84.05 0 .1 0 .15-.01h.01c.54-.09.91-.6.83-1.15-.09-.54-.6-.91-1.15-.83z" fill="#f97f51" data-original="#f97f51"></path><path d="m18.47 7.64v.01c-.48.28-.63.89-.35 1.37.19.31.52.48.86.48.18 0 .35-.04.51-.14h.01c.47-.28.62-.9.34-1.37s-.9-.63-1.37-.35z" fill="#f97f51" data-original="#f97f51"></path><path d="m38.89 5.24c-.54-.09-1.06.28-1.14.82-.09.55.28 1.06.83 1.15.05.01.1.01.15.01.49 0 .91-.35.99-.84.09-.54-.28-1.06-.83-1.14z" fill="#f97f51" data-original="#f97f51"></path><path d="m45.55 7.65c-.48-.28-1.09-.13-1.38.35-.28.47-.13 1.08.35 1.37.16.1.33.14.51.14.34 0 .67-.17.86-.48.28-.48.13-1.09-.34-1.38z" fill="#f97f51" data-original="#f97f51"></path><path d="m14 14c-.06 0-.13-.01-.2-.02-.06-.01-.12-.03-.18-.06-.06-.02-.12-.05-.18-.09-.05-.03-.1-.08-.15-.12-.18-.19-.29-.44-.29-.71 0-.13.03-.26.08-.38.05-.13.12-.23.21-.33.05-.04.1-.09.15-.12.06-.04.12-.07.18-.09.06-.03.12-.05.18-.06.33-.06.67.04.91.27.18.19.29.45.29.71 0 .06-.01.13-.02.2-.01.06-.03.12-.06.18-.02.06-.05.12-.09.18-.03.05-.08.1-.12.15-.1.09-.2.16-.33.21-.12.06-.25.08-.38.08z" fill="#f97f51" data-original="#f97f51"></path></g><path d="m31 1v29h1 1v-29h-1z" fill="#eab543" data-original="#eab543"></path><path d="m9.01 13.63c0 .07-.01.13-.01.2l.06 1.34.07 1.55 6.56 7.1-.31-1.82s.55 0 1.41.05z" fill="#eab543" data-original="#eab543"></path><path d="m54.86 16.72.07-1.55.06-1.34c0-.07-.01-.13-.01-.2l-7.78 8.42c.87-.05 1.42-.05 1.42-.05l-.32 1.82z" fill="#eab543" data-original="#eab543"></path><path d="m33.67 26.68-.13.82h-3.1l-.13-.82c-.73-6.84-12.57-7.18-14.94-7.18h-2.97l1.94 11.11.03.13c.85 3.69 5.01 5.78 8.67 6.51v16.01c.9.55 1.74 1 2.5 1.3v-17.34c0-1.19-.81-2.18-1.89-2.39-2.42-.47-6.21-1.91-6.84-4.65l-1.43-8.18s12 0 12.46 5l.17 1.13c.17 1.08 1.03 1.87 2.04 1.87h1.95 1.94c1.01 0 1.87-.79 2.04-1.87l.17-1.13c.46-5 12.46-5 12.46-5l-1.43 8.18c-.63 2.74-4.46 4.18-6.88 4.65-1.08.21-1.89 1.2-1.89 2.39v17.34c.75-.3 1.6-.75 2.5-1.3v-16.01c3.68-.74 7.86-2.83 8.71-6.51l1.96-11.24h-2.97c-2.37 0-14.21.35-14.94 7.18z" fill="#eab543" data-original="#eab543"></path></g><g id="Shading" fill="#2c3a47"><path d="m36.82 1h-4.82-4.82c-6.83 0-13.25 3.54-17.27 9.53-.64.95-.96 2.12-.9 3.3l.06 1.34 1.22 25.7c.55.94 1.28 1.96 2.14 3.01l-1.43-30.15c-.04-.75.17-1.49.57-2.09 3.63-5.41 9.47-8.64 15.61-8.64h9.64c6.14 0 11.98 3.23 15.61 8.64.4.6.6 1.34.57 2.09l-1.43 30.14c.86-1.05 1.6-2.07 2.14-3l1.22-25.7.06-1.34c.06-1.18-.26-2.34-.9-3.3-4.02-5.99-10.44-9.53-17.27-9.53z" opacity=".1" fill="#2c3a47" data-original="#2c3a47" class=""></path><path d="m12.43 43.87c-.86-1.05-1.6-2.07-2.14-3.01l.39 8.29c.03.82.88 2.3 2.19 4.01z" opacity=".1" fill="#2c3a47" data-original="#2c3a47" class=""></path><path d="m51.13 53.14c1.31-1.7 2.17-3.18 2.19-4l.39-8.29c-.55.94-1.28 1.96-2.14 3z" opacity=".1" fill="#2c3a47" data-original="#2c3a47" class=""></path></g></g></svg>