<svg xmlns="http://www.w3.org/2000/svg" version="1.1" xmlns:xlink="http://www.w3.org/1999/xlink" xmlns:svgjs="http://svgjs.com/svgjs" width="512" height="512" x="0" y="0" viewBox="0 0 64 64" style="enable-background:new 0 0 512 512" xml:space="preserve" class=""><g><g id="Fill"><path d="m51.96 7h-8.07c2.52 0 4.79 1.02 6.44 2.67s2.66 3.93 2.65 6.45v1.09 1.09l-.02 2.85-.02 2.76.1.09h9.96v-5.96c0-6.1-4.94-11.04-11.04-11.04z" fill="#58b19f" data-original="#58b19f"></path><path d="m11 18.3v-1.12-1.12c.01-2.5 1.03-4.77 2.67-6.41 1.65-1.64 3.92-2.65 6.43-2.65h-8.05c-6.11 0-11.05 4.94-11.05 11.04v5.96h9.96l.07-.06-.02-2.79z" fill="#58b19f" data-original="#58b19f"></path><path d="m32 20c2.85 0 5.22 1.67 6.34 4h14.59v-.09l.02-2.76.02-2.85v-1.09-1.09c.01-2.52-1.01-4.8-2.65-6.45-1.65-1.65-3.92-2.67-6.44-2.67h-23.78c-2.5 0-4.77 1.01-6.42 2.65-1.64 1.64-2.66 3.9-2.67 6.41v1.12 1.12l.02 2.85.02 2.79v.06h14.62c1.11-2.33 3.48-4 6.33-4z" fill="#bdc581" data-original="#bdc581"></path><path d="m51.96 7h-8.07c2.52 0 4.79 1.02 6.44 2.67s2.66 3.93 2.65 6.45v1.09 1.09l-.02 2.85-.02 2.76.1.09h9.96v-5.96c0-6.1-4.94-11.04-11.04-11.04z" fill="#58b19f" data-original="#58b19f"></path><path d="m11 18.3v-1.12-1.12c.01-2.5 1.03-4.77 2.67-6.41 1.65-1.64 3.92-2.65 6.43-2.65h-8.05c-6.11 0-11.05 4.94-11.05 11.04v5.96h9.96l.07-.06-.02-2.79z" fill="#58b19f" data-original="#58b19f"></path><path d="m53 33v4.6c0 4.24-.59 8.47-1.76 12.55-.14.5-.6.85-1.13.85h-18.11-18.12c-.52 0-.98-.35-1.13-.85-1.16-4.08-1.75-8.3-1.75-12.55v-4.6h-10v4c0 4.65.57 9.28 1.7 13.78l.61 2.43c.54-.13 1.1-.21 1.69-.21 3.87 0 7 3.13 7 7h2 .84c.94 0 1.78-.6 2.08-1.5s1.14-1.5 2.08-1.5h26c.94 0 1.78.6 2.08 1.5s1.14 1.5 2.08 1.5h.84 2c0-3.87 3.13-7 7-7 .59 0 1.15.08 1.7.22l.61-2.43c1.12-4.51 1.69-9.14 1.69-13.79v-4z" fill="#58b19f" data-original="#58b19f"></path><path d="m12.76 50.15c.14.5.6.85 1.13.85h18.11 18.12c.52 0 .98-.35 1.13-.85 1.16-4.08 1.75-8.3 1.75-12.55v-4.6h-15.25l-.53 2.83c-.13.68-.72 1.17-1.41 1.17h-7.61c-.69 0-1.29-.49-1.41-1.17l-.54-2.83h-15.25v4.6c0 4.25.59 8.47 1.76 12.55z" fill="#bdc581" data-original="#bdc581"></path><path d="m32 20c2.85 0 5.22 1.67 6.34 4h14.59v-.09l.02-2.76.02-2.85v-1.09-1.09c.01-2.52-1.01-4.8-2.65-6.45-1.65-1.65-3.92-2.67-6.44-2.67h-23.78c-2.5 0-4.77 1.01-6.42 2.65-1.64 1.64-2.66 3.9-2.67 6.41v1.12 1.12l.02 2.85.02 2.79v.06h14.62c1.11-2.33 3.48-4 6.33-4z" fill="#bdc581" data-original="#bdc581"></path><path d="m52.93 24h-14.59c-1.12-2.33-3.49-4-6.34-4s-5.22 1.67-6.34 4h-14.62-10.04v9h10 15.25l.53 2.83c.13.68.72 1.17 1.41 1.17h7.61c.69 0 1.29-.49 1.41-1.17l.54-2.83h15.25 10v-9z" fill="#cad3c8" data-original="#cad3c8"></path><path d="m1 33h10v3h-10z" fill="#2c3a47" opacity=".1" data-original="#2c3a47"></path><path d="m53 33h10v3h-10z" fill="#2c3a47" opacity=".1" data-original="#2c3a47"></path><circle cx="6" cy="20" fill="#ffffff" r="0" data-original="#ffffff"></circle><circle cx="58" cy="20" fill="#ffffff" r="0" data-original="#ffffff"></circle><circle cx="6" cy="37" fill="#ffffff" r="0" data-original="#ffffff"></circle><circle cx="58" cy="37" fill="#ffffff" r="0" data-original="#ffffff"></circle><circle cx="6.5" cy="44" fill="#ffffff" r="0" data-original="#ffffff"></circle><circle cx="57.5" cy="44" fill="#ffffff" r="0" data-original="#ffffff"></circle><circle cx="7" cy="13" fill="#ffffff" r="0" data-original="#ffffff"></circle><circle cx="57" cy="13" fill="#ffffff" r="0" data-original="#ffffff"></circle><g fill="#cad3c8"><path d="m5 53c-.59 0-1.15.08-1.7.22l1.1 4.41c.35 1.39 1.61 2.37 3.05 2.37h4.55c0-3.87-3.13-7-7-7z" fill="#cad3c8" data-original="#cad3c8"></path><path d="m59.59 57.62 1.1-4.41c-.54-.13-1.1-.21-1.69-.21-3.87 0-7 3.13-7 7h4.55c1.44 0 2.7-.98 3.04-2.38z" fill="#cad3c8" data-original="#cad3c8"></path><path d="m6.02 21c-.55 0-1-.45-1-1s.44-1 .99-1h.01c.55 0 1 .45 1 1s-.45 1-1 1z" fill="#cad3c8" data-original="#cad3c8"></path><path d="m58.02 21c-.55 0-1-.45-1-1s.44-1 1-1h.01c.55 0 1 .45 1 1-.01.55-.46 1-1.01 1z" fill="#cad3c8" data-original="#cad3c8"></path><path d="m6.02 41c-.55 0-1-.45-1-1s.44-1 .99-1h.01c.55 0 1 .45 1 1s-.45 1-1 1z" fill="#cad3c8" data-original="#cad3c8"></path><path d="m58.02 41c-.55 0-1-.45-1-1s.44-1 1-1h.01c.55 0 1 .45 1 1s-.46 1-1.01 1z" fill="#cad3c8" data-original="#cad3c8"></path><path d="m7.02 48c-.55 0-1-.45-1-1s.44-1 .99-1h.01c.55 0 1 .45 1 1s-.45 1-1 1z" fill="#cad3c8" data-original="#cad3c8"></path><path d="m57.02 48c-.55 0-1-.45-1-1s.44-1 1-1h.01c.55 0 1 .45 1 1s-.46 1-1.01 1z" fill="#cad3c8" data-original="#cad3c8"></path><path d="m7.02 14c-.55 0-1-.45-1-1s.44-1 .99-1h.01c.55 0 1 .45 1 1s-.45 1-1 1z" fill="#cad3c8" data-original="#cad3c8"></path><path d="m57.02 14c-.55 0-1-.45-1-1s.44-1 1-1h.01c.55 0 1 .45 1 1s-.46 1-1.01 1z" fill="#cad3c8" data-original="#cad3c8"></path></g></g><g id="Shading" fill="#2c3a47"><path d="m51.99 12h-40c-.32.63-.56 1.3-.73 2h41.46c-.17-.7-.41-1.37-.73-2z" opacity=".1" fill="#2c3a47" data-original="#2c3a47"></path><path d="m11 19 .01 2h17.39c1.04-.63 2.26-1 3.59-1s2.55.37 3.59 1h17.35l.01-2z" opacity=".1" fill="#2c3a47" data-original="#2c3a47"></path><path d="m11.34 43c.08.67.18 1.34.28 2h40.74c.11-.66.21-1.33.28-2z" opacity=".1" fill="#2c3a47" data-original="#2c3a47"></path><path d="m53 37.6v-1.6h-15.85c-.19.58-.72 1-1.35 1h-7.61c-.63 0-1.16-.42-1.35-1h-15.84v1.6c0 .13.01.26.01.4h41.97c.01-.13.02-.26.02-.4z" opacity=".1" fill="#2c3a47" data-original="#2c3a47"></path><path d="m35 27c0-1.65-1.35-3-3-3s-3 1.35-3 3c0 1.15.66 2.14 1.61 2.64l-.09.59-.47 1.45c-.1.3-.05.64.14.9.19.27.49.42.81.42h2c.32 0 .62-.15.81-.41s.24-.59.14-.9l-.47-1.45-.09-.59c.95-.51 1.61-1.5 1.61-2.65z" opacity=".1" fill="#2c3a47" data-original="#2c3a47"></path><path d="m4.49 10h8.87c.11-.12.21-.24.32-.35 1.64-1.64 3.91-2.65 6.42-2.65h-8.05c-2.93 0-5.58 1.14-7.56 3z" opacity=".1" fill="#2c3a47" data-original="#2c3a47"></path><path d="m51.96 7h-8.07c2.52 0 4.79 1.02 6.44 2.67.1.1.2.22.3.33h8.89c-1.99-1.86-4.64-3-7.56-3z" opacity=".1" fill="#2c3a47" data-original="#2c3a47"></path><path d="m16.92 58.5c.3-.9 1.14-1.5 2.08-1.5h-7.68c.43.91.68 1.92.68 3h2 .84c.94 0 1.78-.6 2.08-1.5z" opacity=".1" fill="#2c3a47" data-original="#2c3a47"></path><path d="m45 57c.94 0 1.78.6 2.08 1.5s1.14 1.5 2.08 1.5h.84 2c0-1.08.25-2.09.68-3z" opacity=".1" fill="#2c3a47" data-original="#2c3a47"></path></g></g></svg>