
<svg xmlns="http://www.w3.org/2000/svg" version="1.1" xmlns:xlink="http://www.w3.org/1999/xlink" xmlns:svgjs="http://svgjs.com/svgjs" width="512" height="512" x="0" y="0" viewBox="0 0 64 64" style="enable-background:new 0 0 512 512" xml:space="preserve" class=""><g><g id="Fill"><path d="m11 1c-2.76 0-5 2.24-5 5v8c0-2.76 2.24-5 5-5h3v-8z" fill="#f97f51" data-original="#f97f51"></path><path d="m11 9c-2.76 0-5 2.24-5 5v36c0-2.76 2.24-5 5-5h3v-36z" fill="#eab543" data-original="#eab543"></path><path d="m11 53h3v-8h-3c-2.76 0-5 2.24-5 5v8c0-2.76 2.24-5 5-5z" fill="#f97f51" data-original="#f97f51"></path><path d="m32 53h-18-3c-2.76 0-5 2.24-5 5s2.24 5 5 5h47v-10z" fill="#cad3c8" data-original="#cad3c8"></path><path d="m26 47h20v6h-20z" fill="#f97f51" data-original="#f97f51"></path><path d="m26 1h20v6h-20z" fill="#f97f51" data-original="#f97f51"></path><path d="m20 7.68c0-.38.3-.68.68-.68h5.32v-6h-6-6v6 6h6z" fill="#bdc581" data-original="#bdc581"></path><path d="m46 1v6h5.32c.38 0 .68.3.68.68v5.32h6v-12z" fill="#bdc581" data-original="#bdc581"></path><path d="m52 46.32c0 .38-.3.68-.68.68h-5.32v6h12v-12h-6z" fill="#bdc581" data-original="#bdc581"></path><path d="m20.68 47c-.38 0-.68-.3-.68-.68v-5.32h-6v12h12v-6z" fill="#bdc581" data-original="#bdc581"></path><path d="m36.98 38.96-1.02 4.04-1-4.04c-6.61-.31-12.66-3.58-14.96-8.05v10.09 5.32c0 .38.3.68.68.68h5.32 20 5.32c.38 0 .68-.3.68-.68v-5.32-10.09c-2.31 4.49-8.39 7.76-15.02 8.05z" fill="#bdc581" data-original="#bdc581"></path><path d="m51.32 7h-5.32-20-5.32c-.38 0-.68.3-.68.68v5.32 10.09c2.31-4.48 8.39-7.75 15.02-8.05l1.02-4.04 1 4.04c6.61.32 12.65 3.58 14.96 8.05v-10.09-5.32c0-.38-.3-.68-.68-.68z" fill="#bdc581" data-original="#bdc581"></path><path d="m14 13v28h6v-10.09-7.82-10.09z" fill="#f97f51" data-original="#f97f51"></path><path d="m52 13v10.09 7.82 10.09h6v-28z" fill="#f97f51" data-original="#f97f51"></path><path d="m37.04 15.04 1.33 5.38c2.17.78 3.84 2.6 4.41 4.86l5.22 1.76-5.23 1.73c-.59 2.25-2.26 4.05-4.43 4.82l-1.36 5.37c6.63-.3 12.71-3.57 15.02-8.05v-7.83c-2.3-4.46-8.35-7.73-14.96-8.04z" fill="#eab543" data-original="#eab543"></path><path d="m34.96 38.96-1.33-5.38c-2.17-.78-3.84-2.6-4.41-4.86l-5.22-1.76 5.23-1.73c.59-2.25 2.26-4.05 4.43-4.82l1.36-5.37c-6.63.3-12.71 3.57-15.02 8.05v7.83c2.3 4.46 8.35 7.73 14.96 8.04z" fill="#eab543" data-original="#eab543"></path><path d="m42.78 25.28c-.57-2.26-2.24-4.08-4.41-4.86l-1.33-5.38-1-4.04-1.02 4.04-1.36 5.37c-2.17.77-3.84 2.57-4.43 4.82l-5.23 1.73 5.22 1.76c.57 2.26 2.24 4.08 4.41 4.86l1.33 5.38 1 4.04 1.02-4.04 1.36-5.37c2.17-.77 3.84-2.57 4.43-4.82l5.23-1.73zm-6.78 4.72c-1.66 0-3-1.34-3-3s1.34-3 3-3 3 1.34 3 3-1.34 3-3 3z" fill="#f97f51" data-original="#f97f51"></path><circle cx="36" cy="27" fill="#eab543" r="3" data-original="#eab543"></circle><circle cx="55" cy="9" fill="#cad3c8" r="0" data-original="#cad3c8"></circle><circle cx="55" cy="45" fill="#cad3c8" r="0" data-original="#cad3c8"></circle><circle cx="17" cy="9" fill="#cad3c8" r="0" data-original="#cad3c8"></circle><circle cx="17" cy="45" fill="#cad3c8" r="0" data-original="#cad3c8"></circle><circle cx="50" cy="4" fill="#cad3c8" r="0" data-original="#cad3c8"></circle><circle cx="50" cy="50" fill="#cad3c8" r="0" data-original="#cad3c8"></circle><circle cx="22" cy="50" fill="#cad3c8" r="0" data-original="#cad3c8"></circle><circle cx="22" cy="4" fill="#cad3c8" r="0" data-original="#cad3c8"></circle><g fill="#f97f51"><path d="m55.02 10c-.55 0-1-.45-1-1s.44-1 1-1h.01c.55 0 1 .45 1 1s-.46 1-1.01 1z" fill="#f97f51" data-original="#f97f51"></path><path d="m55.02 46c-.55 0-1-.45-1-1s.44-1 1-1h.01c.55 0 1 .45 1 1s-.46 1-1.01 1z" fill="#f97f51" data-original="#f97f51"></path><path d="m17.02 10c-.55 0-1-.45-1-1s.44-1 .99-1h.01c.55 0 1 .45 1 1s-.45 1-1 1z" fill="#f97f51" data-original="#f97f51"></path><path d="m17.02 46c-.55 0-1-.45-1-1s.44-1 .99-1h.01c.55 0 1 .45 1 1s-.45 1-1 1z" fill="#f97f51" data-original="#f97f51"></path><path d="m50.02 5c-.55 0-1-.45-1-1s.44-1 1-1h.01c.55 0 1 .45 1 1s-.46 1-1.01 1z" fill="#f97f51" data-original="#f97f51"></path><path d="m50.02 51c-.55 0-1-.45-1-1s.44-1 1-1h.01c.55 0 1 .45 1 1s-.46 1-1.01 1z" fill="#f97f51" data-original="#f97f51"></path><path d="m22.02 51c-.55 0-1-.45-1-1s.44-1 1-1h.01c.55 0 1 .45 1 1s-.46 1-1.01 1z" fill="#f97f51" data-original="#f97f51"></path><path d="m22.02 5c-.55 0-1-.45-1-1s.44-1 1-1h.01c.55 0 1 .45 1 1s-.46 1-1.01 1z" fill="#f97f51" data-original="#f97f51"></path></g></g><g id="Shading" fill="#2c3a47"><path d="m11 57c-.55 0-1 .45-1 1s.45 1 1 1h47v-2z" opacity=".1" fill="#2c3a47" data-original="#2c3a47"></path><path d="m49 10v3 10.09 7.83 10.08 3h-3-20-3v-3-10.09-7.83-10.08-3h3 20zm2.32-3h-5.32-20-5.32c-.38 0-.68.3-.68.68v5.32 10.09 7.83 10.08 5.32c0 .38.3.68.68.68h5.32 20 5.32c.38 0 .68-.3.68-.68v-5.32-10.09-7.83-10.08-5.32c0-.38-.3-.68-.68-.68z" opacity=".1" fill="#2c3a47" data-original="#2c3a47"></path><path d="m6 6v8c0-2.05 1.24-3.81 3-4.58v-8c-1.76.77-3 2.53-3 4.58z" opacity=".1" fill="#2c3a47" data-original="#2c3a47"></path><path d="m6 14v36c0-2.05 1.24-3.81 3-4.58v-36c-1.76.77-3 2.53-3 4.58z" opacity=".1" fill="#2c3a47" data-original="#2c3a47"></path><path d="m6 50v8c0-2.05 1.24-3.81 3-4.58v-8c-1.76.77-3 2.53-3 4.58z" opacity=".1" fill="#2c3a47" data-original="#2c3a47"></path></g></g></svg>