<svg xmlns="http://www.w3.org/2000/svg" version="1.1" xmlns:xlink="http://www.w3.org/1999/xlink" xmlns:svgjs="http://svgjs.com/svgjs" width="512" height="512" x="0" y="0" viewBox="0 0 64 64" style="enable-background:new 0 0 512 512" xml:space="preserve"><g><g id="Fill"><path d="m54 33.4-6-9.7-6-9.7 3-6c-1.7-.5-3.4-.9-5.1-1.2l1.2-3.8c-5.7-2.5-12.3-2.6-18 0h-.1l1.2 3.8c-1.8.3-3.5.7-5.2 1.2l3 6-6 9.7-6 9.7c-1.5 3-2.3 6.3-2.3 9.6 0 2.1.4 4.1 1 6.1 15.1 5.2 31.4 5.2 46.5 0 .7-2 1-4.1 1-6.1.1-3.3-.6-6.6-2.2-9.6z" fill="#bdc581" data-original="#bdc581"></path><path d="m56 23.4c.2-1.1-.5-2.1-1.6-2.3s-2.1.5-2.3 1.6.4 3.1 1.5 3.3c.9.1 2.2-1.6 2.4-2.6z" fill="#fc427b" data-original="#fc427b"></path><path d="m8 23.4c-.2-1.1.5-2.1 1.6-2.3s2.1.5 2.3 1.6-.4 3.1-1.4 3.3-2.3-1.6-2.5-2.6z" fill="#fc427b" data-original="#fc427b"></path><path d="m8.7 49.1c.4 1.2.9 2.3 1.5 3.4 1.8 3.2 4.4 5.9 7.4 7.7 3.1 1.8 6.7 2.8 10.4 2.8h8c3.7 0 7.2-1 10.3-2.8s5.7-4.5 7.5-7.7c.6-1.1 1.1-2.2 1.5-3.4-15.1 5.2-31.5 5.2-46.6 0z" fill="#fc427b" data-original="#fc427b"></path><g fill="#fd7272"><path d="m32.2 37.8 3 4.2c.1.1.1.2 0 .3l-3 4.2c-.1.2-.3.2-.5 0l-3-4.2c-.1-.1-.1-.2 0-.3l3-4.2c.2-.1.4-.1.5 0z" fill="#fd7272" data-original="#fd7272"></path><path d="m26.5 30.5 3 4.2c.1.1.1.2 0 .3l-3 4.2c-.1.2-.3.2-.5 0l-3-4.2c-.1-.1-.1-.2 0-.3l3-4.2c.2-.1.4-.1.5 0z" fill="#fd7272" data-original="#fd7272"></path><path d="m37.9 30.5 3 4.2c.1.1.1.2 0 .3l-3 4.2c-.1.2-.3.2-.5 0l-3-4.2c-.1-.1-.1-.2 0-.3l3-4.2c.2-.1.4-.1.5 0z" fill="#fd7272" data-original="#fd7272"></path><path d="m32.2 22.8 3 4.2c.1.1.1.2 0 .3l-3 4.2c-.1.2-.3.2-.5 0l-3-4.2c-.1-.1-.1-.2 0-.3l3-4.2c.2-.1.4-.1.5 0z" fill="#fd7272" data-original="#fd7272"></path><path d="m21.5 13.1-7.5 1.6c-1.9.4-3.4 1.6-4.4 3.2-.6 1.1-.9 2.3-.9 3.6.3-.2.6-.4 1-.5s.7 0 1.1.1c0-.8.2-1.6.6-2.2.7-1.1 1.8-2 3.1-2.2l6.9-1.5.6-1.2z" fill="#fd7272" data-original="#fd7272"></path><path d="m42.7 15.2 6.9 1.5c1.3.3 2.4 1.1 3.1 2.2.4.7.6 1.5.6 2.2.3-.1.7-.2 1.1-.1s.7.2.9.5c0-1.2-.2-2.5-.9-3.6-.9-1.6-2.5-2.8-4.4-3.2l-7.6-1.6-.4.9z" fill="#fd7272" data-original="#fd7272"></path></g></g><g fill="#2c3a47"><g id="Shading"><path d="m11.2 34.3c.4.4 1 .4 1.4 0 .9-1.2-.8-2-1.6-2.7l-1 1.7c.4.4.8.7 1.2 1z" opacity=".11" fill="#000000" data-original="#000000"></path><path d="m17.6 39.1c-.7-1.1-1.5-2.2-2.3-3.3-.4-.4-1-.5-1.4-.1-.4.3-.5 1-.1 1.4.8 1 1.5 2 2.2 3.1.6 1.1 2.3 0 1.6-1.1z" opacity=".11" fill="#000000" data-original="#000000"></path><path d="m20.1 47.7c.5-.2.8-.7.7-1.2-.4-1.3-.8-2.6-1.3-3.8-.2-.5-.8-.7-1.3-.5s-.7.8-.5 1.3c.5 1.1.9 2.3 1.2 3.5.1.5.7.8 1.2.7z" opacity=".11" fill="#000000" data-original="#000000"></path><path d="m21.6 50.4c-.1-.5-.6-.9-1.1-.8s-.9.6-.9 1.1l.2 1.3c.7.1 1.4.2 2.1.3z" opacity=".11" fill="#000000" data-original="#000000"></path><path d="m52.1 34.6c.8-.1 1.3-.9 1.9-1.3l-1.1-1.7c-.5.4-1 .8-1.5 1.3-.4.4-.4 1 0 1.4.2.2.4.3.7.3z" opacity=".11" fill="#000000" data-original="#000000"></path><path d="m48.7 35.8c-.8 1-1.6 2.1-2.3 3.3-.3.5-.1 1.1.3 1.4.5.3 1.1.1 1.4-.3.7-1.1 1.4-2.1 2.2-3.1.3-.4.3-1.1-.1-1.4-.5-.4-1.2-.3-1.5.1z" opacity=".11" fill="#000000" data-original="#000000"></path><path d="m45.8 42.2c-.5-.2-1.1 0-1.3.5-.5 1.2-1 2.5-1.3 3.8-.2.5.2 1.1.7 1.2.5.2 1.1-.2 1.2-.7.3-1.2.8-2.4 1.3-3.5.2-.5-.1-1.1-.6-1.3z" opacity=".11" fill="#000000" data-original="#000000"></path><path d="m44.2 51.9.2-1.3c.1-.5-.3-1-.8-1.1s-1 .3-1.1.8l-.3 1.9c.6 0 1.3-.1 2-.3z" opacity=".11" fill="#000000" data-original="#000000"></path><path d="m42 14c-.8.3-1.6.6-2.5.8.1-.2 2.3-7.4 2.4-7.7-.7-.2-1.3-.3-2-.4l-2.7 8.6c-3.5.7-7 .7-10.5 0l-2.7-8.6c-.7.1-1.3.3-2 .4.1.3 2.3 7.4 2.4 7.7-.8-.2-1.7-.5-2.5-.9l-1.6 2.5c7.2 3.2 15.9 3.2 23.2 0z" opacity=".1" fill="#000000" data-original="#000000"></path></g><g id="Outline"><path d="m57.3 43c0-3.5-.8-7-2.4-10 0 0 0 0 0-.1l-11.8-19 2.7-5.5c.1-.3.1-.6 0-.8-.1-.3-.3-.5-.6-.6-1.3-.4-2.7-.7-4.1-1l.9-2.7c.1-.5-.1-1-.5-1.2-6-2.7-12.8-2.7-18.8-.1h-.1c-.5.2-.7.7-.6 1.2l.8 2.8c-1.4.3-2.8.6-4.1 1-.3.1-.5.3-.6.6s-.1.6 0 .8l2.7 5.5-11.8 19c-1.5 3.1-2.3 6.6-2.3 10.1 0 2.2.4 4.3 1.1 6.3v.1c.4 1.2.9 2.4 1.6 3.5 1.8 3.3 4.5 6.1 7.8 8.1 3.3 1.9 7 3 10.8 3h8c3.8 0 7.6-1 10.8-3 3.3-1.9 6-4.7 7.8-8.1.6-1.1 1.1-2.3 1.5-3.5v-.1c.8-2 1.2-4.2 1.2-6.3zm-16.7-35.1c1 .2 2 .4 3 .7l-2.3 4.6c-.8.3-1.7.6-2.6.8zm-.8-4.3-.8 2.8-2.5 8.1c-3 .5-6 .5-8.9 0l-3.4-11c5-1.9 10.6-1.9 15.6.1zm-16.4 4.3 1.3 4.2.6 2c-.9-.2-1.7-.5-2.6-.8l-2.3-4.6c1-.4 2-.6 3-.8zm-12.6 26 11.6-18.7c6.2 2.2 13 2.2 19.2 0l11.6 18.6c1.4 2.8 2.2 5.9 2.1 9.1 0 1.8-.3 3.6-.8 5.4-14.5 4.9-30.5 4.9-45 0-.5-1.7-.8-3.5-.8-5.3 0-3.2.7-6.3 2.1-9.1zm42.1 18.1c-1.7 3-4.1 5.5-7.1 7.3s-6.4 2.7-9.8 2.7h-8c-3.5 0-6.8-.9-9.8-2.7s-5.4-4.3-7.1-7.3c-.2-.4-.4-.8-.6-1.3 13.9 4.3 29.2 4.3 43.1 0-.3.5-.5.9-.7 1.3z" fill="#000000" data-original="#000000"></path><path d="m53.3 27c1.8.3 3.4-1.9 3.7-3.4.3-1.6-.8-3.2-2.4-3.5s-3.2.8-3.5 2.4.4 4.1 2.2 4.5zm-.3-4.2c.1-.5.6-.9 1.2-.8.5.1.9.6.8 1.1-.2.9-1 1.9-1.4 1.9-.3-.1-.7-1.4-.6-2.2z" fill="#000000" data-original="#000000"></path><path d="m10.7 27c1.8-.3 2.5-2.9 2.3-4.5-.3-1.6-1.8-2.7-3.5-2.4-1.6.3-2.7 1.9-2.4 3.5.2 1.5 1.8 3.7 3.6 3.4zm-.9-5c.5-.1 1.1.3 1.1.8.2.8-.3 2-.6 2.1s-1.1-.9-1.3-1.7c-.1-.6.3-1.1.8-1.2z" fill="#000000" data-original="#000000"></path><path d="m32.8 36.9c-.4-.5-1.2-.5-1.6 0l-3.3 4.7c-.2.3-.2.8 0 1.1l3.3 4.7c.2.3.5.4.8.4s.6-.2.8-.4l3.3-4.7c.2-.3.2-.8 0-1.1zm-.8 8.2-2.1-2.9 2.1-2.9 2.1 2.9z" fill="#000000" data-original="#000000"></path><path d="m25.5 40.1c.2.3.5.4.8.4s.6-.1.8-.4l3.3-4.7c.2-.3.2-.8 0-1.2l-3.3-4.7c-.4-.5-1.2-.5-1.6 0l-3.3 4.7c-.2.3-.2.8 0 1.2zm.8-8.1 2.1 2.9-2.1 2.9-2.1-2.9z" fill="#000000" data-original="#000000"></path><path d="m33.6 35.4 3.3 4.7c.2.3.5.4.8.4s.6-.2.8-.4l3.3-4.7c.2-.3.2-.8 0-1.1l-3.3-4.7c-.4-.5-1.2-.5-1.6 0l-3.3 4.7c-.3.3-.3.8 0 1.1zm4.1-3.5 2.1 2.9-2.1 2.9-2.1-2.9z" fill="#000000" data-original="#000000"></path><path d="m31.2 32.4c.2.3.5.4.8.4s.6-.2.8-.4l3.3-4.7c.2-.3.2-.8 0-1.1l-3.3-4.7c-.4-.5-1.2-.5-1.6 0l-3.3 4.7c-.2.3-.2.8 0 1.1zm.8-8.2 2.1 2.9-2.1 3-2.1-2.9z" fill="#000000" data-original="#000000"></path></g></g></g></svg>