<svg xmlns="http://www.w3.org/2000/svg" version="1.1" xmlns:xlink="http://www.w3.org/1999/xlink" xmlns:svgjs="http://svgjs.com/svgjs" width="512" height="512" x="0" y="0" viewBox="0 0 64 64" style="enable-background:new 0 0 512 512" xml:space="preserve" class=""><g><g id="Fill"><path d="m53 18.1v-7.1h-42v7.1c0 .6.2 1.1.6 1.5l1.9 1.9c.8.8.8 2.2 0 3l-1.9 1.9c-.4.4-.6 1-.6 1.5v25.1h42v-25.1c0-.6-.2-1.1-.6-1.5l-1.9-1.9c-.8-.8-.8-2.2 0-3l1.9-1.9c.4-.4.6-.9.6-1.5z" fill="#f8efba" data-original="#f8efba"></path><path d="m6.4 3h-2.4c-1.7 0-3 1.3-3 3s1.3 3 3 3h2.4c-.5-2-.5-4 0-6z" fill="#f97f51" data-original="#f97f51"></path><path d="m60 3h-2.4c.5 2 .5 4 0 6h2.4c1.7 0 3-1.3 3-3s-1.3-3-3-3z" fill="#f97f51" data-original="#f97f51"></path><path d="m57.6 3c-.1-.6-.3-1.2-.5-1.7-.1-.2-.2-.3-.4-.3h-49.4c-.2 0-.3.1-.4.3-.2.5-.4 1.1-.5 1.7-.4 2-.4 4 0 6 .1.6.3 1.2.5 1.7.1.2.2.3.4.3h49.4c.2 0 .3-.1.4-.3.2-.6.4-1.1.5-1.7.5-2 .5-4 0-6z" fill="#eab543" data-original="#eab543"></path><path d="m25.4 19.2 4 1.8 2.4-3.7c.1-.1.3-.1.4 0l2.4 3.7 4-1.8c.2-.1.3.1.3.2l-1.6 7.4c0 .1-.1.2-.2.2h-10.2c-.1 0-.2-.1-.2-.2l-1.6-7.4c0-.1.1-.3.3-.2z" fill="#eab543" data-original="#eab543"></path><g fill="#f97f51"><path d="m17 7c-1.7 0-3-1.3-3-3v-3h6v3c0 1.7-1.3 3-3 3z" fill="#f97f51" data-original="#f97f51"></path><path d="m46 7c-1.7 0-3-1.3-3-3v-3h6v3c0 1.7-1.3 3-3 3z" fill="#f97f51" data-original="#f97f51"></path><path d="m6.4 55h-2.4c-1.7 0-3 1.3-3 3s1.3 3 3 3h2.4c-.5-2-.5-4 0-6z" fill="#f97f51" data-original="#f97f51"></path><path d="m60 55h-2.4c.5 2 .5 4 0 6h2.4c1.7 0 3-1.3 3-3s-1.3-3-3-3z" fill="#f97f51" data-original="#f97f51"></path></g><path d="m57.6 55c-.1-.6-.3-1.2-.5-1.7-.1-.2-.2-.3-.4-.3h-10.7c0 .7-.4 1.4-1.2 2-2.2 1.7-7.1 2.9-12.8 2.9s-10.6-1.2-12.8-2.9c-.8-.6-1.2-1.3-1.2-2h-10.7c-.2 0-.3.1-.4.3-.2.6-.4 1.1-.5 1.7-.4 2-.4 4 0 6 .1.6.3 1.2.5 1.7.1.2.2.3.4.3h49.4c.2 0 .3-.1.4-.3.2-.6.4-1.2.5-1.7.5-2 .5-4 0-6z" fill="#eab543" data-original="#eab543"></path><path d="m18 53c0 .7.4 1.4 1.2 2 2.2 1.7 7.1 2.9 12.8 2.9s10.6-1.2 12.8-2.9c.8-.6 1.2-1.3 1.2-2z" fill="#f97f51" data-original="#f97f51"></path><path d="m19.5 24c-.5 0-1-.5-1-1 0-.6.5-1 1-1s1 .5 1 1c0 .6-.4 1-1 1z" fill="#f97f51" data-original="#f97f51"></path><path d="m44.5 24c-.5 0-1-.5-1-1s.5-1 1-1c.6 0 1 .5 1 1 0 .6-.4 1-1 1z" fill="#f97f51" data-original="#f97f51"></path></g><g fill="#2c3a47"><g id="Shading"><path d="m45 46h-26c-.5 0-1-.5-1-1s.5-1 1-1h26c.5 0 1 .5 1 1s-.5 1-1 1z" opacity=".1" fill="#000000" data-original="#000000" class=""></path><path d="m45 40h-26c-.5 0-1-.5-1-1s.5-1 1-1h26c.5 0 1 .5 1 1s-.5 1-1 1z" opacity=".1" fill="#000000" data-original="#000000" class=""></path><path d="m45 34h-26c-.5 0-1-.5-1-1s.5-1 1-1h26c.5 0 1 .5 1 1s-.5 1-1 1z" opacity=".1" fill="#000000" data-original="#000000" class=""></path><path d="m11 11v3h42v-3z" opacity=".1" fill="#000000" data-original="#000000" class=""></path><path d="m53 53v-3h-42v3z" opacity=".1" fill="#000000" data-original="#000000" class=""></path><path d="m6.2 60c.1.9.4 1.8.7 2.7.1.2.2.3.4.3h49.4c.2 0 .3-.1.4-.3.3-.9.6-1.8.7-2.7z" opacity=".1" fill="#000000" data-original="#000000" class=""></path><path d="m56.7 1h-49.4c-.2 0-.3.1-.4.3-.3.7-.5 1.4-.6 2.2h51.4c-.1-.8-.3-1.5-.6-2.2-.1-.2-.2-.3-.4-.3z" opacity=".11" fill="#000000" data-original="#000000" class=""></path></g><g id="Outline"><path d="m25.8 27.2c.1.5.5.8 1 .8h10.5c.5 0 .9-.3 1-.8l1.8-8c.1-.4-.1-.8-.4-1s-.7-.3-1-.1l-3.7 1.6-2.2-3.3c-.4-.6-1.3-.6-1.7 0l-2.1 3.3-3.6-1.6c-.3-.2-.7-.1-1 .1s-.4.6-.3 1zm3.2-5.3c.4.2 1 .1 1.2-.4l1.8-2.7 1.8 2.7c.3.4.8.6 1.2.4l2.6-1.2-1.2 5.3h-8.9l-1.1-5.3z" fill="#000000" data-original="#000000" class=""></path><path d="m60 54h-1.6c-.1-.5-.3-.9-.5-1.4-.1-.4-.5-.6-.9-.6h-3v-24.1c0-.8-.3-1.6-.9-2.2l-1.9-1.9c-.4-.4-.4-1.2 0-1.6l1.9-1.9c.6-.6.9-1.4.9-2.2v-6.1h3c.4 0 .8-.2.9-.6.2-.4.3-.9.5-1.4h1.6c2.2 0 4-1.8 4-4s-1.8-4-4-4h-1.6c-.1-.5-.3-.9-.5-1.4-.1-.4-.5-.6-.9-.6h-50c-.4 0-.8.2-.9.6-.2.4-.3.9-.5 1.4h-1.6c-2.2 0-4 1.8-4 4s1.8 4 4 4h1.6c.1.5.3.9.5 1.4.1.4.5.6.9.6h3v6.1c0 .8.3 1.6.9 2.2l1.9 1.9c.2.2.3.5.3.8s-.1.6-.3.8l-1.9 1.9c-.6.6-.9 1.3-.9 2.2v24.1h-3c-.4 0-.8.2-.9.6-.2.4-.3.9-.5 1.4h-1.6c-2.2 0-4 1.8-4 4s1.8 4 4 4h1.6c.1.5.3.9.5 1.4.1.4.5.6.9.6h50c.4 0 .8-.2.9-.6.2-.4.3-.9.5-1.4h1.6c2.2 0 4-1.8 4-4s-1.8-4-4-4zm-15.8.2c-2 1.6-6.9 2.7-12.2 2.7s-10.1-1.1-12.2-2.7c-.1-.1-.2-.1-.2-.2h24.8c-.1.1-.2.2-.2.2zm15.8-50.2c1.1 0 2 .9 2 2s-.9 2-2 2h-1.2c.2-1.3.2-2.7 0-4zm-12-2v2c0 1.1-.9 2-2 2s-2-.9-2-2v-2zm-29 0v2c0 1.1-.9 2-2 2s-2-.9-2-2v-2zm-15 6c-1.1 0-2-.9-2-2s.9-2 2-2h1.2c-.2 1.3-.2 2.7 0 4zm3.4.8c-.2-.9-.4-1.9-.4-2.8s.1-1.9.3-2.8c.2-.4.3-.8.4-1.2h5.3v2c0 2.2 1.8 4 4 4s4-1.8 4-4v-2h21v2c0 2.2 1.8 4 4 4s4-1.8 4-4v-2h6.3c.1.4.2.8.3 1.2.4 1.8.4 3.8 0 5.6-.1.4-.2.8-.3 1.2h-48.6c-.1-.4-.2-.8-.3-1.2zm4.6 19.1c0-.3.1-.6.3-.8l1.9-1.9c.6-.6.9-1.4.9-2.2s-.3-1.6-.9-2.2l-1.9-1.9c-.2-.2-.3-.5-.3-.8v-6.1h40v6.1c0 .3-.1.6-.3.8l-1.9 1.9c-1.2 1.2-1.2 3.2 0 4.4l1.9 1.9c.2.2.3.5.3.8v24.1h-40zm-8 32.1c-1.1 0-2-.9-2-2s.9-2 2-2h1.2c-.2 1.3-.2 2.7 0 4zm52.3 2h-48.6c-.1-.4-.2-.8-.3-1.2-.4-1.8-.4-3.7 0-5.5.1-.4.2-.8.3-1.2h9.5c.3.7.8 1.3 1.4 1.8 2.4 1.8 7.6 3.1 13.4 3.1s11-1.2 13.4-3.2c.6-.5 1.1-1.1 1.4-1.8h9.5c.1.4.2.8.3 1.2.4 1.8.4 3.7 0 5.5-.1.5-.2.9-.3 1.3zm3.7-2h-1.2c.2-1.3.2-2.7 0-4h1.2c1.1 0 2 .9 2 2s-.9 2-2 2z" fill="#000000" data-original="#000000" class=""></path></g></g></g></svg>